G04*
G04 #@! TF.GenerationSoftware,Altium Limited,Altium Designer,21.0.8 (223)*
G04*
G04 Layer_Color=32896*
%FSLAX25Y25*%
%MOIN*%
G70*
G04*
G04 #@! TF.SameCoordinates,482E8025-2E78-4A05-A4F1-2824EEF061A7*
G04*
G04*
G04 #@! TF.FilePolarity,Positive*
G04*
G01*
G75*
G36*
X95801Y100691D02*
X99047Y102943D01*
X99539Y103369D01*
Y101314D01*
X97003Y99609D01*
X99539Y97445D01*
Y96625D01*
X96468Y99215D01*
X92500Y96516D01*
Y98428D01*
X95265Y100297D01*
X92500Y102669D01*
Y103500D01*
X95801Y100691D01*
D02*
G37*
G36*
X99539Y90821D02*
X98872D01*
Y94242D01*
X96522D01*
Y90887D01*
X95855D01*
Y94242D01*
X92500D01*
Y95882D01*
X99069D01*
X99539Y96068D01*
Y90821D01*
D02*
G37*
G36*
X97484Y88449D02*
X93156D01*
Y86515D01*
X97014D01*
X97484Y86701D01*
Y84930D01*
X92500D01*
Y90034D01*
X97014D01*
X97484Y90220D01*
Y88449D01*
D02*
G37*
G36*
Y83323D02*
X99069D01*
X99539Y83509D01*
Y81738D01*
X97484D01*
Y80547D01*
X96817D01*
Y81738D01*
X93156D01*
Y80547D01*
X92500Y80755D01*
Y83323D01*
X96817D01*
Y84329D01*
X97484D01*
Y83323D01*
D02*
G37*
G36*
Y78405D02*
X93156D01*
Y76470D01*
X97014D01*
X97484Y76656D01*
Y74885D01*
X92500D01*
Y79990D01*
X97014D01*
X97484Y80175D01*
Y78405D01*
D02*
G37*
G36*
Y69693D02*
X95451D01*
Y71278D01*
X96817D01*
Y72207D01*
X92500D01*
Y73792D01*
X97014D01*
X97484Y73978D01*
Y69693D01*
D02*
G37*
G36*
Y63518D02*
X94686D01*
Y67049D01*
X93156D01*
Y65114D01*
X93779D01*
X94238Y65300D01*
Y63529D01*
X92500D01*
Y68633D01*
X97014D01*
X97484Y68819D01*
Y63518D01*
D02*
G37*
%LPC*%
G36*
X96817Y67049D02*
X95353D01*
Y65103D01*
X96817D01*
Y67049D01*
D02*
G37*
%LPD*%
M02*
