M48
;Layer_Color=9474304
;FILE_FORMAT=2:5
INCH,TZ
;TYPE=PLATED
T1F00S00C0.01000
T3F00S00C0.02559
T4F00S00C0.03937
T5F00S00C0.11024
%
T01
X5879Y78879
X8354Y76404
X10828Y73929
X16500Y74000
X19500
Y77500
X16500
Y81000
X19500
X30000Y84000
Y87500
Y91000
X48760Y79706
X57219Y79290
X59000Y71500
X62800Y68851
X65500
X68000Y71500
X66000Y82000
X67500Y86500
X71000Y89500
X73000Y91500
X76500
X80000
X83500
X87000
X90000
X93500
X97000
X71500Y93500
Y96000
Y102000
Y104500
X61500Y89500
X52500Y71000
X44226Y59886
X44000Y55000
X41500Y62500
X28500Y62000
X32000Y54000
X35500Y51000
Y47500
Y44000
X37000Y36500
X41000Y32500
X42000Y24500
X57000Y31500
X68500Y30000
X67449Y34974
X68000Y37000
X70500Y34500
Y45000
X65800Y47100
X59500Y46000
X56000
Y49500
Y53000
X59500
Y49500
X62800Y39800
X52500Y40000
X66500Y21000
Y17500
Y14000
X11500Y33500
Y37000
Y40500
X82000Y73500
T03
X21358Y26122
Y48878
T04
X91000Y22500
Y32500
Y42500
Y52500
X63622Y100394
X53622
X43622
X33622
T05
X8268Y7874
X88976
X8268Y98425
M30
