G04*
G04 #@! TF.GenerationSoftware,Altium Limited,Altium Designer,21.0.8 (223)*
G04*
G04 Layer_Color=16711935*
%FSLAX25Y25*%
%MOIN*%
G70*
G04*
G04 #@! TF.SameCoordinates,482E8025-2E78-4A05-A4F1-2824EEF061A7*
G04*
G04*
G04 #@! TF.FilePolarity,Negative*
G04*
G01*
G75*
%ADD50O,0.08868X0.04537*%
%ADD51O,0.06899X0.04537*%
%ADD52C,0.03159*%
%ADD53C,0.07687*%
%ADD54C,0.02200*%
%ADD55C,0.13198*%
D50*
X23327Y54528D02*
D03*
Y20472D02*
D03*
D51*
X7579Y54528D02*
D03*
Y20472D02*
D03*
D52*
X21358Y26122D02*
D03*
Y48878D02*
D03*
D53*
X33622Y100394D02*
D03*
X43622D02*
D03*
X53622D02*
D03*
X63622D02*
D03*
X91000Y22500D02*
D03*
Y32500D02*
D03*
Y42500D02*
D03*
Y52500D02*
D03*
D54*
X37000Y36500D02*
D03*
X30000Y91000D02*
D03*
Y87500D02*
D03*
Y84000D02*
D03*
X66500Y21000D02*
D03*
Y17500D02*
D03*
Y14000D02*
D03*
X42000Y24500D02*
D03*
X67500Y86500D02*
D03*
X73000Y91500D02*
D03*
X71500Y93500D02*
D03*
Y104500D02*
D03*
Y102000D02*
D03*
Y96000D02*
D03*
X76500Y91500D02*
D03*
X80000D02*
D03*
X83500D02*
D03*
X87000D02*
D03*
X90000D02*
D03*
X93500D02*
D03*
X97000D02*
D03*
X10828Y73929D02*
D03*
X8354Y76404D02*
D03*
X5879Y78879D02*
D03*
X16500Y74000D02*
D03*
Y77500D02*
D03*
Y81000D02*
D03*
X19500Y74000D02*
D03*
Y77500D02*
D03*
Y81000D02*
D03*
X11500Y33500D02*
D03*
Y37000D02*
D03*
Y40500D02*
D03*
X35500Y44000D02*
D03*
Y47500D02*
D03*
Y51000D02*
D03*
X59500Y46000D02*
D03*
Y49500D02*
D03*
Y53000D02*
D03*
X56000Y46000D02*
D03*
Y49500D02*
D03*
Y53000D02*
D03*
X66000Y82000D02*
D03*
X65500Y68851D02*
D03*
X68000Y71500D02*
D03*
X62800Y39800D02*
D03*
Y68851D02*
D03*
X59000Y71500D02*
D03*
X82000Y73500D02*
D03*
X61500Y89500D02*
D03*
X71000D02*
D03*
X57219Y79290D02*
D03*
X32000Y54000D02*
D03*
X28500Y62000D02*
D03*
X68500Y30000D02*
D03*
X67449Y34974D02*
D03*
X68000Y37000D02*
D03*
X44226Y59886D02*
D03*
X44000Y55000D02*
D03*
X52500Y40000D02*
D03*
X41500Y62500D02*
D03*
X70500Y45000D02*
D03*
X65800Y47100D02*
D03*
X52500Y71000D02*
D03*
X57000Y31500D02*
D03*
X48760Y79706D02*
D03*
X41000Y32500D02*
D03*
X70500Y34500D02*
D03*
D55*
X88976Y7874D02*
D03*
X8268Y98425D02*
D03*
Y7874D02*
D03*
M02*
