G04*
G04 #@! TF.GenerationSoftware,Altium Limited,Altium Designer,21.0.8 (223)*
G04*
G04 Layer_Physical_Order=1*
G04 Layer_Color=255*
%FSLAX25Y25*%
%MOIN*%
G70*
G04*
G04 #@! TF.SameCoordinates,482E8025-2E78-4A05-A4F1-2824EEF061A7*
G04*
G04*
G04 #@! TF.FilePolarity,Positive*
G04*
G01*
G75*
%ADD10C,0.01000*%
G04:AMPARAMS|DCode=18|XSize=59.06mil|YSize=11.81mil|CornerRadius=2.95mil|HoleSize=0mil|Usage=FLASHONLY|Rotation=0.000|XOffset=0mil|YOffset=0mil|HoleType=Round|Shape=RoundedRectangle|*
%AMROUNDEDRECTD18*
21,1,0.05906,0.00591,0,0,0.0*
21,1,0.05315,0.01181,0,0,0.0*
1,1,0.00591,0.02657,-0.00295*
1,1,0.00591,-0.02657,-0.00295*
1,1,0.00591,-0.02657,0.00295*
1,1,0.00591,0.02657,0.00295*
%
%ADD18ROUNDEDRECTD18*%
G04:AMPARAMS|DCode=19|XSize=31.5mil|YSize=70.87mil|CornerRadius=7.87mil|HoleSize=0mil|Usage=FLASHONLY|Rotation=0.000|XOffset=0mil|YOffset=0mil|HoleType=Round|Shape=RoundedRectangle|*
%AMROUNDEDRECTD19*
21,1,0.03150,0.05512,0,0,0.0*
21,1,0.01575,0.07087,0,0,0.0*
1,1,0.01575,0.00787,-0.02756*
1,1,0.01575,-0.00787,-0.02756*
1,1,0.01575,-0.00787,0.02756*
1,1,0.01575,0.00787,0.02756*
%
%ADD19ROUNDEDRECTD19*%
G04:AMPARAMS|DCode=20|XSize=23.62mil|YSize=9.84mil|CornerRadius=2.46mil|HoleSize=0mil|Usage=FLASHONLY|Rotation=0.000|XOffset=0mil|YOffset=0mil|HoleType=Round|Shape=RoundedRectangle|*
%AMROUNDEDRECTD20*
21,1,0.02362,0.00492,0,0,0.0*
21,1,0.01870,0.00984,0,0,0.0*
1,1,0.00492,0.00935,-0.00246*
1,1,0.00492,-0.00935,-0.00246*
1,1,0.00492,-0.00935,0.00246*
1,1,0.00492,0.00935,0.00246*
%
%ADD20ROUNDEDRECTD20*%
G04:AMPARAMS|DCode=21|XSize=43.31mil|YSize=70.87mil|CornerRadius=10.83mil|HoleSize=0mil|Usage=FLASHONLY|Rotation=0.000|XOffset=0mil|YOffset=0mil|HoleType=Round|Shape=RoundedRectangle|*
%AMROUNDEDRECTD21*
21,1,0.04331,0.04921,0,0,0.0*
21,1,0.02165,0.07087,0,0,0.0*
1,1,0.02165,0.01083,-0.02461*
1,1,0.02165,-0.01083,-0.02461*
1,1,0.02165,-0.01083,0.02461*
1,1,0.02165,0.01083,0.02461*
%
%ADD21ROUNDEDRECTD21*%
G04:AMPARAMS|DCode=22|XSize=26.57mil|YSize=9.84mil|CornerRadius=2.46mil|HoleSize=0mil|Usage=FLASHONLY|Rotation=0.000|XOffset=0mil|YOffset=0mil|HoleType=Round|Shape=RoundedRectangle|*
%AMROUNDEDRECTD22*
21,1,0.02657,0.00492,0,0,0.0*
21,1,0.02165,0.00984,0,0,0.0*
1,1,0.00492,0.01083,-0.00246*
1,1,0.00492,-0.01083,-0.00246*
1,1,0.00492,-0.01083,0.00246*
1,1,0.00492,0.01083,0.00246*
%
%ADD22ROUNDEDRECTD22*%
G04:AMPARAMS|DCode=23|XSize=26.57mil|YSize=9.84mil|CornerRadius=2.46mil|HoleSize=0mil|Usage=FLASHONLY|Rotation=270.000|XOffset=0mil|YOffset=0mil|HoleType=Round|Shape=RoundedRectangle|*
%AMROUNDEDRECTD23*
21,1,0.02657,0.00492,0,0,270.0*
21,1,0.02165,0.00984,0,0,270.0*
1,1,0.00492,-0.00246,-0.01083*
1,1,0.00492,-0.00246,0.01083*
1,1,0.00492,0.00246,0.01083*
1,1,0.00492,0.00246,-0.01083*
%
%ADD23ROUNDEDRECTD23*%
G04:AMPARAMS|DCode=24|XSize=160mil|YSize=160mil|CornerRadius=16mil|HoleSize=0mil|Usage=FLASHONLY|Rotation=270.000|XOffset=0mil|YOffset=0mil|HoleType=Round|Shape=RoundedRectangle|*
%AMROUNDEDRECTD24*
21,1,0.16000,0.12800,0,0,270.0*
21,1,0.12800,0.16000,0,0,270.0*
1,1,0.03200,-0.06400,-0.06400*
1,1,0.03200,-0.06400,0.06400*
1,1,0.03200,0.06400,0.06400*
1,1,0.03200,0.06400,-0.06400*
%
%ADD24ROUNDEDRECTD24*%
G04:AMPARAMS|DCode=25|XSize=12mil|YSize=38mil|CornerRadius=3mil|HoleSize=0mil|Usage=FLASHONLY|Rotation=270.000|XOffset=0mil|YOffset=0mil|HoleType=Round|Shape=RoundedRectangle|*
%AMROUNDEDRECTD25*
21,1,0.01200,0.03200,0,0,270.0*
21,1,0.00600,0.03800,0,0,270.0*
1,1,0.00600,-0.01600,-0.00300*
1,1,0.00600,-0.01600,0.00300*
1,1,0.00600,0.01600,0.00300*
1,1,0.00600,0.01600,-0.00300*
%
%ADD25ROUNDEDRECTD25*%
G04:AMPARAMS|DCode=26|XSize=12mil|YSize=38mil|CornerRadius=3mil|HoleSize=0mil|Usage=FLASHONLY|Rotation=180.000|XOffset=0mil|YOffset=0mil|HoleType=Round|Shape=RoundedRectangle|*
%AMROUNDEDRECTD26*
21,1,0.01200,0.03200,0,0,180.0*
21,1,0.00600,0.03800,0,0,180.0*
1,1,0.00600,-0.00300,0.01600*
1,1,0.00600,0.00300,0.01600*
1,1,0.00600,0.00300,-0.01600*
1,1,0.00600,-0.00300,-0.01600*
%
%ADD26ROUNDEDRECTD26*%
%ADD27R,0.10630X0.11024*%
G04:AMPARAMS|DCode=28|XSize=20mil|YSize=20mil|CornerRadius=5mil|HoleSize=0mil|Usage=FLASHONLY|Rotation=270.000|XOffset=0mil|YOffset=0mil|HoleType=Round|Shape=RoundedRectangle|*
%AMROUNDEDRECTD28*
21,1,0.02000,0.01000,0,0,270.0*
21,1,0.01000,0.02000,0,0,270.0*
1,1,0.01000,-0.00500,-0.00500*
1,1,0.01000,-0.00500,0.00500*
1,1,0.01000,0.00500,0.00500*
1,1,0.01000,0.00500,-0.00500*
%
%ADD28ROUNDEDRECTD28*%
G04:AMPARAMS|DCode=29|XSize=37.4mil|YSize=39.37mil|CornerRadius=9.35mil|HoleSize=0mil|Usage=FLASHONLY|Rotation=180.000|XOffset=0mil|YOffset=0mil|HoleType=Round|Shape=RoundedRectangle|*
%AMROUNDEDRECTD29*
21,1,0.03740,0.02067,0,0,180.0*
21,1,0.01870,0.03937,0,0,180.0*
1,1,0.01870,-0.00935,0.01034*
1,1,0.01870,0.00935,0.01034*
1,1,0.01870,0.00935,-0.01034*
1,1,0.01870,-0.00935,-0.01034*
%
%ADD29ROUNDEDRECTD29*%
G04:AMPARAMS|DCode=30|XSize=23.62mil|YSize=35mil|CornerRadius=5.91mil|HoleSize=0mil|Usage=FLASHONLY|Rotation=0.000|XOffset=0mil|YOffset=0mil|HoleType=Round|Shape=RoundedRectangle|*
%AMROUNDEDRECTD30*
21,1,0.02362,0.02319,0,0,0.0*
21,1,0.01181,0.03500,0,0,0.0*
1,1,0.01181,0.00591,-0.01159*
1,1,0.01181,-0.00591,-0.01159*
1,1,0.01181,-0.00591,0.01159*
1,1,0.01181,0.00591,0.01159*
%
%ADD30ROUNDEDRECTD30*%
G04:AMPARAMS|DCode=31|XSize=20mil|YSize=20mil|CornerRadius=5mil|HoleSize=0mil|Usage=FLASHONLY|Rotation=180.000|XOffset=0mil|YOffset=0mil|HoleType=Round|Shape=RoundedRectangle|*
%AMROUNDEDRECTD31*
21,1,0.02000,0.01000,0,0,180.0*
21,1,0.01000,0.02000,0,0,180.0*
1,1,0.01000,-0.00500,0.00500*
1,1,0.01000,0.00500,0.00500*
1,1,0.01000,0.00500,-0.00500*
1,1,0.01000,-0.00500,-0.00500*
%
%ADD31ROUNDEDRECTD31*%
G04:AMPARAMS|DCode=32|XSize=44mil|YSize=40mil|CornerRadius=10mil|HoleSize=0mil|Usage=FLASHONLY|Rotation=0.000|XOffset=0mil|YOffset=0mil|HoleType=Round|Shape=RoundedRectangle|*
%AMROUNDEDRECTD32*
21,1,0.04400,0.02000,0,0,0.0*
21,1,0.02400,0.04000,0,0,0.0*
1,1,0.02000,0.01200,-0.01000*
1,1,0.02000,-0.01200,-0.01000*
1,1,0.02000,-0.01200,0.01000*
1,1,0.02000,0.01200,0.01000*
%
%ADD32ROUNDEDRECTD32*%
G04:AMPARAMS|DCode=33|XSize=35.43mil|YSize=62.99mil|CornerRadius=8.86mil|HoleSize=0mil|Usage=FLASHONLY|Rotation=270.000|XOffset=0mil|YOffset=0mil|HoleType=Round|Shape=RoundedRectangle|*
%AMROUNDEDRECTD33*
21,1,0.03543,0.04528,0,0,270.0*
21,1,0.01772,0.06299,0,0,270.0*
1,1,0.01772,-0.02264,-0.00886*
1,1,0.01772,-0.02264,0.00886*
1,1,0.01772,0.02264,0.00886*
1,1,0.01772,0.02264,-0.00886*
%
%ADD33ROUNDEDRECTD33*%
%ADD56C,0.00500*%
%ADD57O,0.08268X0.03937*%
%ADD58O,0.06299X0.03937*%
%ADD59C,0.02559*%
%ADD60C,0.07087*%
%ADD61C,0.01600*%
%ADD62C,0.12598*%
G36*
X74934Y100000D02*
X74924Y100095D01*
X74893Y100180D01*
X74843Y100255D01*
X74772Y100320D01*
X74681Y100375D01*
X74570Y100420D01*
X74438Y100455D01*
X74286Y100480D01*
X74114Y100495D01*
X73922Y100500D01*
Y101500D01*
X74114Y101505D01*
X74286Y101520D01*
X74438Y101545D01*
X74570Y101580D01*
X74681Y101625D01*
X74772Y101680D01*
X74843Y101745D01*
X74893Y101820D01*
X74924Y101905D01*
X74934Y102000D01*
Y100000D01*
D02*
G37*
G36*
X57168Y99823D02*
X57225Y98870D01*
X57279Y98452D01*
X57350Y98073D01*
X57438Y97733D01*
X57543Y97432D01*
X57665Y97170D01*
X57803Y96947D01*
X57959Y96763D01*
X57252Y96056D01*
X57068Y96212D01*
X56845Y96351D01*
X56583Y96473D01*
X56283Y96578D01*
X55943Y96666D01*
X55564Y96737D01*
X55146Y96791D01*
X54193Y96848D01*
X53658Y96851D01*
X57165Y100358D01*
X57168Y99823D01*
D02*
G37*
G36*
X45679Y97439D02*
X44675Y96313D01*
X44430Y95988D01*
X44229Y95687D01*
X44073Y95411D01*
X43961Y95161D01*
X43894Y94934D01*
X43872Y94733D01*
X43372D01*
X43350Y94934D01*
X43283Y95161D01*
X43171Y95411D01*
X43015Y95687D01*
X42814Y95988D01*
X42569Y96313D01*
X41945Y97039D01*
X41142Y97863D01*
X46102D01*
X45679Y97439D01*
D02*
G37*
G36*
X61137Y90571D02*
X61385Y90353D01*
X61419Y90330D01*
X61448Y90313D01*
X61473Y90303D01*
X61492Y90300D01*
X60700Y89508D01*
X60697Y89527D01*
X60687Y89552D01*
X60670Y89581D01*
X60647Y89615D01*
X60617Y89655D01*
X60536Y89749D01*
X60365Y89927D01*
X61073Y90635D01*
X61137Y90571D01*
D02*
G37*
G36*
X71500Y100442D02*
X68779Y97721D01*
X68558Y97390D01*
X68480Y97000D01*
Y94422D01*
X63300Y89242D01*
X62800Y89449D01*
Y89759D01*
X62602Y90236D01*
X62236Y90602D01*
X61759Y90800D01*
X61696D01*
X61506Y90967D01*
X61453Y91020D01*
X61401Y91041D01*
X59520Y92922D01*
Y95516D01*
X59442Y95906D01*
X59221Y96237D01*
X58385Y97072D01*
X58372Y97114D01*
X58242Y97267D01*
X58141Y97429D01*
X58045Y97636D01*
X57956Y97890D01*
X57878Y98191D01*
X57814Y98537D01*
X57764Y98921D01*
X57709Y99841D01*
X57706Y100361D01*
X57665Y100459D01*
Y100926D01*
X57390Y101954D01*
X56858Y102876D01*
X56253Y103480D01*
X56461Y103980D01*
X69000D01*
X69390Y104058D01*
X69721Y104279D01*
X70923Y105481D01*
X71500D01*
Y100442D01*
D02*
G37*
G36*
X71587Y90049D02*
X71611Y90038D01*
X71644Y90029D01*
X71685Y90022D01*
X71734Y90015D01*
X71857Y90005D01*
X72105Y90000D01*
Y89000D01*
X72014Y88999D01*
X71685Y88978D01*
X71644Y88971D01*
X71611Y88962D01*
X71587Y88951D01*
X71571Y88940D01*
Y90060D01*
X71587Y90049D01*
D02*
G37*
G36*
X76000Y87485D02*
X75000D01*
X75000Y88000D01*
X76000D01*
X76000Y87485D01*
D02*
G37*
G36*
X48458Y87172D02*
X48445Y87128D01*
Y87076D01*
X48458Y87018D01*
X48486Y86953D01*
X48527Y86882D01*
X48581Y86803D01*
X48650Y86718D01*
X48827Y86526D01*
X48474Y86173D01*
X48375Y86268D01*
X48197Y86419D01*
X48118Y86473D01*
X48047Y86514D01*
X47982Y86542D01*
X47924Y86555D01*
X47872D01*
X47828Y86542D01*
X47790Y86514D01*
X48486Y87210D01*
X48458Y87172D01*
D02*
G37*
G36*
X70514Y86000D02*
X70509Y86048D01*
X70494Y86090D01*
X70468Y86128D01*
X70433Y86160D01*
X70386Y86187D01*
X70330Y86210D01*
X70263Y86228D01*
X70187Y86240D01*
X70100Y86247D01*
X70002Y86250D01*
Y86750D01*
X70100Y86752D01*
X70187Y86760D01*
X70263Y86772D01*
X70330Y86790D01*
X70386Y86812D01*
X70432Y86839D01*
X70468Y86871D01*
X70494Y86909D01*
X70509Y86951D01*
X70514Y86998D01*
X70514Y86000D01*
D02*
G37*
G36*
X68133Y87001D02*
X68195Y86948D01*
X68259Y86902D01*
X68324Y86862D01*
X68390Y86827D01*
X68458Y86800D01*
X68527Y86778D01*
X68597Y86762D01*
X68668Y86753D01*
X68740Y86750D01*
Y86250D01*
X68668Y86247D01*
X68597Y86238D01*
X68527Y86222D01*
X68458Y86200D01*
X68390Y86172D01*
X68324Y86138D01*
X68259Y86098D01*
X68195Y86052D01*
X68133Y85999D01*
X68071Y85940D01*
Y87060D01*
X68133Y87001D01*
D02*
G37*
G36*
X27779Y104279D02*
X28110Y104058D01*
X28500Y103980D01*
X30784D01*
X30991Y103480D01*
X30387Y102876D01*
X29854Y101954D01*
X29579Y100926D01*
Y99861D01*
X29854Y98833D01*
X30387Y97911D01*
X31139Y97158D01*
X32061Y96626D01*
X33090Y96350D01*
X34154D01*
X35183Y96626D01*
X36105Y97158D01*
X36858Y97911D01*
X37390Y98833D01*
X37665Y99861D01*
Y100926D01*
X37390Y101954D01*
X36858Y102876D01*
X36253Y103480D01*
X36461Y103980D01*
X40784D01*
X40991Y103480D01*
X40387Y102876D01*
X39854Y101954D01*
X39579Y100926D01*
Y99861D01*
X39854Y98833D01*
X40387Y97911D01*
X40716Y97582D01*
X40754Y97486D01*
X41545Y96673D01*
X42148Y95973D01*
X42373Y95674D01*
X42554Y95403D01*
X42687Y95168D01*
X42774Y94973D01*
X42817Y94827D01*
X42834Y94674D01*
X42857Y94631D01*
Y93878D01*
X42916Y93585D01*
X43081Y93337D01*
X46910Y89508D01*
X46894Y89282D01*
X46782Y88976D01*
X46610Y88942D01*
X46279Y88721D01*
X46058Y88390D01*
X45980Y88000D01*
Y87000D01*
X46058Y86610D01*
X46279Y86279D01*
X46610Y86058D01*
X46702Y86040D01*
X46808Y85509D01*
X46790Y85497D01*
X46473Y85022D01*
X46362Y84463D01*
Y82396D01*
X46473Y81836D01*
X46790Y81361D01*
X47265Y81044D01*
X47456Y81006D01*
X47555Y80907D01*
X47663Y80448D01*
X47658Y80443D01*
X47460Y79965D01*
Y79448D01*
X47658Y78970D01*
X48024Y78604D01*
X48501Y78406D01*
X49018D01*
X49496Y78604D01*
X49862Y78970D01*
X50060Y79448D01*
Y79965D01*
X49862Y80443D01*
X49851Y80454D01*
X49908Y80817D01*
X49962Y80904D01*
X50064Y81006D01*
X50255Y81044D01*
X50730Y81361D01*
X51047Y81836D01*
X51158Y82396D01*
Y84463D01*
X51047Y85022D01*
X50730Y85497D01*
X50255Y85814D01*
X49695Y85926D01*
X49547D01*
X49525Y85977D01*
Y86240D01*
X49466Y86533D01*
X49301Y86781D01*
X49246Y86836D01*
X49224Y86895D01*
X49060Y87071D01*
X49020Y87121D01*
Y87192D01*
X49027Y87210D01*
X49020Y87227D01*
Y87292D01*
X49020Y87294D01*
X49020Y87295D01*
Y88000D01*
X48942Y88390D01*
X48721Y88721D01*
X48700Y88735D01*
X48851Y89235D01*
X55183D01*
X57932Y86486D01*
X57899Y86261D01*
X57360Y85889D01*
X57175Y85926D01*
X55305D01*
X54745Y85814D01*
X54270Y85497D01*
X53953Y85022D01*
X53842Y84463D01*
Y82396D01*
X53879Y82209D01*
X53785Y82095D01*
X53715Y82023D01*
X53691Y81961D01*
X46959Y75230D01*
X46793Y74982D01*
X46735Y74689D01*
X46735Y73071D01*
X46709Y73011D01*
X46708Y72961D01*
X46610Y72942D01*
X46279Y72721D01*
X46058Y72390D01*
X45980Y72000D01*
Y71000D01*
X46058Y70610D01*
X46279Y70279D01*
X46610Y70058D01*
X47000Y69980D01*
X48000D01*
X48390Y70058D01*
X48721Y70279D01*
X48942Y70610D01*
X49020Y71000D01*
Y72000D01*
X48942Y72390D01*
X48721Y72721D01*
X48390Y72942D01*
X48292Y72961D01*
X48291Y73011D01*
X48265Y73071D01*
X48265Y74372D01*
X49616Y75723D01*
X49857Y75664D01*
X50102Y75502D01*
Y73537D01*
X50213Y72978D01*
X50530Y72503D01*
X51005Y72186D01*
X51118Y72163D01*
X51203Y72033D01*
X51345Y71608D01*
X51200Y71259D01*
Y70741D01*
X51398Y70264D01*
X51764Y69898D01*
X52241Y69700D01*
X52759D01*
X53236Y69898D01*
X53602Y70264D01*
X53800Y70741D01*
Y71259D01*
X53655Y71608D01*
X53797Y72033D01*
X53882Y72163D01*
X53995Y72186D01*
X54470Y72503D01*
X54787Y72978D01*
X54898Y73537D01*
Y75604D01*
X54861Y75791D01*
X54956Y75905D01*
X55025Y75977D01*
X55049Y76039D01*
X56827Y77816D01*
X56885Y77837D01*
X56921Y77870D01*
X56940Y77885D01*
X56960Y77898D01*
X56982Y77909D01*
X57007Y77920D01*
X57036Y77929D01*
X57070Y77937D01*
X57109Y77943D01*
X57154Y77947D01*
X57222Y77948D01*
X57315Y77990D01*
X57477D01*
X57735Y78096D01*
X58235Y77814D01*
Y72819D01*
X58209Y72763D01*
X58207Y72714D01*
X58204Y72690D01*
X58199Y72667D01*
X58191Y72643D01*
X58181Y72618D01*
X58167Y72591D01*
X58149Y72561D01*
X58125Y72529D01*
X58096Y72495D01*
X58049Y72446D01*
X58012Y72351D01*
X57898Y72236D01*
X57700Y71759D01*
Y71241D01*
X57898Y70764D01*
X58264Y70398D01*
X58741Y70200D01*
X59259D01*
X59480Y70292D01*
X59980Y69989D01*
Y68000D01*
X60058Y67610D01*
X60279Y67279D01*
X61976Y65582D01*
X61769Y65082D01*
X61644D01*
X61353Y65024D01*
X61106Y64859D01*
X60705D01*
X60458Y65024D01*
X60167Y65082D01*
X59675D01*
X59384Y65024D01*
X59137Y64859D01*
X58737D01*
X58490Y65024D01*
X58199Y65082D01*
X57707D01*
X57416Y65024D01*
X57169Y64859D01*
X56768Y64859D01*
X56521Y65024D01*
X56230Y65082D01*
X55738D01*
X55447Y65024D01*
X55200Y64859D01*
X54800D01*
X54553Y65024D01*
X54262Y65082D01*
X53770D01*
X53479Y65024D01*
X53232Y64859D01*
X52831D01*
X52584Y65024D01*
X52293Y65082D01*
X51801D01*
X51510Y65024D01*
X51400Y64950D01*
X51336Y64942D01*
X51201Y64960D01*
X50976Y65050D01*
X50847Y65135D01*
X50843Y65143D01*
Y65930D01*
X50870Y65989D01*
X50871Y66054D01*
X50890Y66058D01*
X51221Y66279D01*
X51442Y66610D01*
X51520Y67000D01*
Y68000D01*
X51442Y68390D01*
X51221Y68721D01*
X50890Y68942D01*
X50500Y69020D01*
X49500D01*
X49110Y68942D01*
X48779Y68721D01*
X48558Y68390D01*
X48539Y68292D01*
X48489Y68291D01*
X48429Y68265D01*
X47071D01*
X47012Y68291D01*
X46961Y68292D01*
X46942Y68390D01*
X46721Y68721D01*
X46390Y68942D01*
X46292Y68962D01*
X46291Y69011D01*
X46239Y69128D01*
X46207Y69293D01*
X46041Y69541D01*
X45541Y70041D01*
X45293Y70206D01*
X45276Y70210D01*
X44984Y70560D01*
X44973Y70765D01*
X45020Y71000D01*
Y72000D01*
X44942Y72390D01*
X44721Y72721D01*
X44390Y72942D01*
X44292Y72961D01*
X44291Y73011D01*
X44265Y73071D01*
Y74689D01*
X44207Y74982D01*
X44041Y75230D01*
X37309Y81961D01*
X37285Y82023D01*
X37210Y82101D01*
X37157Y82161D01*
X37121Y82208D01*
X37158Y82396D01*
Y84463D01*
X37047Y85022D01*
X36729Y85497D01*
X36255Y85814D01*
X35695Y85926D01*
X33825D01*
X33265Y85814D01*
X32790Y85497D01*
X32473Y85022D01*
X32362Y84463D01*
Y82396D01*
X32370Y82352D01*
X32363Y82341D01*
X32262Y82219D01*
X32193Y82147D01*
X32169Y82086D01*
X31459Y81376D01*
X31293Y81128D01*
X31235Y80835D01*
Y55319D01*
X31209Y55263D01*
X31207Y55214D01*
X31204Y55190D01*
X31199Y55167D01*
X31191Y55143D01*
X31181Y55118D01*
X31167Y55091D01*
X31149Y55061D01*
X31125Y55029D01*
X31096Y54995D01*
X31049Y54946D01*
X31012Y54851D01*
X30898Y54736D01*
X30700Y54259D01*
Y53741D01*
X30898Y53264D01*
X31264Y52898D01*
X31741Y52700D01*
X32259D01*
X32736Y52898D01*
X33102Y53264D01*
X33300Y53741D01*
Y54259D01*
X33102Y54736D01*
X32988Y54851D01*
X32950Y54946D01*
X32904Y54995D01*
X32875Y55029D01*
X32851Y55061D01*
X32833Y55091D01*
X32819Y55118D01*
X32809Y55143D01*
X32801Y55167D01*
X32796Y55190D01*
X32793Y55214D01*
X32791Y55263D01*
X32765Y55319D01*
Y80519D01*
X33127Y80880D01*
X33150Y80885D01*
X33182Y80930D01*
X33234Y80950D01*
X33309Y81022D01*
X33321Y81033D01*
X33825Y80932D01*
X35695D01*
X35945Y80982D01*
X35949Y80981D01*
X35963Y80986D01*
X35992Y80992D01*
X36021Y80983D01*
X36200Y80871D01*
X36256Y80852D01*
X39554Y77554D01*
X39495Y77313D01*
X39333Y77068D01*
X37565D01*
X37005Y76956D01*
X36530Y76639D01*
X36213Y76164D01*
X36102Y75604D01*
Y73537D01*
X36213Y72978D01*
X36530Y72503D01*
X37005Y72186D01*
X37565Y72074D01*
X38090D01*
X38116Y72014D01*
X38148Y71853D01*
X38314Y71605D01*
X40523Y69396D01*
X40406Y68806D01*
X40279Y68721D01*
X40058Y68390D01*
X39981Y68005D01*
X39980Y68003D01*
X39981Y68001D01*
X39980Y68000D01*
Y67934D01*
X39973Y67917D01*
X39980Y67899D01*
Y67557D01*
X39966Y67532D01*
X39879Y67409D01*
X39593Y67072D01*
X39406Y66878D01*
X39386Y66828D01*
X37779Y65221D01*
X37558Y64890D01*
X37480Y64500D01*
Y51000D01*
X37558Y50610D01*
X37779Y50279D01*
X37779Y50279D01*
X38964Y49094D01*
X38987Y49040D01*
X39463Y48576D01*
X39474Y48572D01*
X39479Y48561D01*
X39652Y48406D01*
X39763Y48295D01*
X39812Y48262D01*
X39831Y48245D01*
X39844Y48241D01*
X39849Y48238D01*
X39856Y48224D01*
X39992Y48037D01*
X40003Y47884D01*
X39979Y47591D01*
X39976Y47584D01*
X39919Y47293D01*
Y46801D01*
X39976Y46510D01*
X40141Y46263D01*
Y45863D01*
X39976Y45616D01*
X39919Y45325D01*
Y44833D01*
X39976Y44542D01*
X40141Y44295D01*
Y43894D01*
X39976Y43647D01*
X39919Y43356D01*
Y42864D01*
X39976Y42573D01*
X40141Y42326D01*
Y41926D01*
X39976Y41679D01*
X39919Y41388D01*
Y40896D01*
X39976Y40605D01*
X40141Y40358D01*
Y39957D01*
X39976Y39710D01*
X39919Y39419D01*
Y38927D01*
X39976Y38636D01*
X40141Y38389D01*
X40388Y38224D01*
X40679Y38166D01*
X42721D01*
X42979Y37980D01*
X43167Y37721D01*
Y35679D01*
X42730Y35312D01*
X38357D01*
X38207Y35578D01*
X38122Y35812D01*
X38300Y36241D01*
Y36759D01*
X38102Y37236D01*
X37736Y37602D01*
X37259Y37800D01*
X37097D01*
X37003Y37841D01*
X36936Y37842D01*
X36891Y37846D01*
X36851Y37852D01*
X36817Y37860D01*
X36789Y37870D01*
X36764Y37880D01*
X36741Y37892D01*
X36721Y37905D01*
X36702Y37919D01*
X36666Y37952D01*
X36608Y37973D01*
X35541Y39041D01*
X35293Y39206D01*
X35000Y39265D01*
X32770D01*
X32281Y39356D01*
X32265Y39380D01*
Y40000D01*
X32206Y40293D01*
X32041Y40541D01*
X31588Y40993D01*
X31340Y41159D01*
X31047Y41217D01*
X30984D01*
X30977Y41224D01*
X30900Y41330D01*
X30779Y41653D01*
X30776Y41663D01*
X30776Y41665D01*
X30824Y41810D01*
X30828Y41816D01*
X30890Y42126D01*
Y42717D01*
X30828Y43027D01*
X30652Y43290D01*
Y43521D01*
X30828Y43784D01*
X30890Y44094D01*
Y44685D01*
X30828Y44995D01*
X30652Y45258D01*
Y45490D01*
X30828Y45753D01*
X30890Y46063D01*
Y46654D01*
X30831Y46949D01*
X30890Y47244D01*
Y47835D01*
X30828Y48145D01*
X30652Y48408D01*
X30389Y48584D01*
X30079Y48645D01*
X24764D01*
X24453Y48584D01*
X24190Y48408D01*
X24015Y48145D01*
X23953Y47835D01*
Y47412D01*
X23734Y47400D01*
X23558Y47399D01*
X23507Y47378D01*
X23028D01*
X22837Y47840D01*
X22867Y47870D01*
X23138Y48524D01*
Y49232D01*
X22867Y49886D01*
X22366Y50387D01*
X21712Y50657D01*
X21004D01*
X20350Y50387D01*
X19850Y49886D01*
X19579Y49232D01*
Y48524D01*
X19850Y47870D01*
X20078Y47641D01*
X20135Y47097D01*
X20062Y47004D01*
X19391Y46333D01*
X19345Y46316D01*
X19228Y46211D01*
X19147Y46154D01*
X19083Y46122D01*
X19036Y46108D01*
X19000Y46105D01*
X18964Y46108D01*
X18917Y46122D01*
X18853Y46154D01*
X18772Y46211D01*
X18655Y46316D01*
X18609Y46333D01*
X15520Y49422D01*
Y76000D01*
X15442Y76390D01*
X15221Y76721D01*
X10271Y81671D01*
X10266Y81695D01*
X10228Y81719D01*
X10212Y81760D01*
X10029Y81950D01*
X9884Y82113D01*
X9772Y82255D01*
X9701Y82358D01*
X9729Y82500D01*
Y82627D01*
X9731Y82630D01*
X9729Y82637D01*
Y82696D01*
X9736Y82714D01*
X9729Y82730D01*
Y84500D01*
X9613Y85085D01*
X9281Y85581D01*
X8785Y85913D01*
X8200Y86029D01*
X5800D01*
X5215Y85913D01*
X4719Y85581D01*
X4387Y85085D01*
X4271Y84500D01*
Y82500D01*
X4387Y81915D01*
X4719Y81419D01*
X5215Y81087D01*
X5800Y80971D01*
X7514D01*
X7517Y80969D01*
X7524Y80971D01*
X7938D01*
X7998Y80936D01*
X8116Y80855D01*
X8434Y80587D01*
X8615Y80413D01*
X8665Y80393D01*
X13480Y75578D01*
Y49000D01*
X13558Y48610D01*
X13779Y48279D01*
X17379Y44679D01*
X17397Y44631D01*
X17517Y44502D01*
X17612Y44384D01*
X17694Y44263D01*
X17764Y44140D01*
X17823Y44012D01*
X17871Y43881D01*
X17909Y43744D01*
X17936Y43600D01*
X17953Y43450D01*
X17959Y43273D01*
X17980Y43227D01*
Y30500D01*
X18058Y30110D01*
X18279Y29779D01*
X20062Y27996D01*
X20135Y27903D01*
X20078Y27359D01*
X19850Y27130D01*
X19579Y26476D01*
Y25768D01*
X19850Y25114D01*
X20350Y24613D01*
X21004Y24342D01*
X21712D01*
X22366Y24613D01*
X22867Y25114D01*
X23138Y25768D01*
Y26476D01*
X22867Y27130D01*
X22837Y27160D01*
X23028Y27622D01*
X23507D01*
X23558Y27601D01*
X23743Y27600D01*
X23953Y27595D01*
Y27165D01*
X24015Y26855D01*
X24190Y26592D01*
X24453Y26416D01*
X24764Y26355D01*
X30079D01*
X30158Y26370D01*
X30189Y26357D01*
X30191Y26358D01*
X30193Y26357D01*
X31203Y26364D01*
X31255Y26386D01*
X36017D01*
X36065Y26364D01*
X36241Y26360D01*
X36376Y26348D01*
X36482Y26331D01*
X36555Y26311D01*
X36557Y26310D01*
Y26246D01*
X36642Y25821D01*
X36828Y25542D01*
X36839Y25502D01*
X36865Y25487D01*
X36876Y25471D01*
X36884Y25451D01*
X36916Y25438D01*
X37154Y25279D01*
X37159Y25262D01*
X37181Y25169D01*
X37214Y24846D01*
X37219Y24644D01*
X37240Y24596D01*
Y23740D01*
X37318Y23350D01*
X37539Y23019D01*
X38779Y21779D01*
X39110Y21558D01*
X39500Y21480D01*
X44500D01*
X44890Y21558D01*
X45221Y21779D01*
X46461Y23019D01*
X46682Y23350D01*
X46760Y23740D01*
Y24596D01*
X46781Y24644D01*
X46786Y24854D01*
X46798Y25023D01*
X46817Y25160D01*
X46841Y25262D01*
X46846Y25279D01*
X47084Y25438D01*
X47116Y25451D01*
X47124Y25471D01*
X47135Y25487D01*
X47161Y25502D01*
X47172Y25542D01*
X47358Y25821D01*
X47443Y26246D01*
Y26405D01*
X47444Y26406D01*
X47518Y26425D01*
X47624Y26443D01*
X47759Y26454D01*
X47935Y26459D01*
X47983Y26480D01*
X48578D01*
X49480Y25578D01*
Y15500D01*
X49558Y15110D01*
X49779Y14779D01*
X53185Y11373D01*
X53515Y11152D01*
X53905Y11075D01*
X54482D01*
X54533Y11053D01*
X54887Y11050D01*
X55274Y11036D01*
X55425Y11022D01*
X55449Y11018D01*
X55475Y11012D01*
X55537Y11021D01*
X55549Y11019D01*
X55638Y10982D01*
X55669Y10995D01*
X55750Y10979D01*
X58950D01*
X59051Y10999D01*
X59284Y10893D01*
X59389Y10789D01*
X59499Y10549D01*
X59479Y10450D01*
Y7250D01*
X59495Y7169D01*
X59482Y7138D01*
X59517Y7054D01*
X59509Y7031D01*
X59538Y6513D01*
X59503Y6480D01*
X59399Y6387D01*
X59185Y6220D01*
X59096Y6160D01*
X59006Y6107D01*
X58921Y6064D01*
X58843Y6032D01*
X58771Y6007D01*
X58681Y5985D01*
X58642Y5957D01*
X58593Y5956D01*
X58526Y5886D01*
X58279Y5721D01*
X58058Y5390D01*
X57980Y5000D01*
Y4000D01*
X57566Y3520D01*
X56922D01*
X48721Y11721D01*
X48390Y11942D01*
X48105Y11999D01*
X48008Y12041D01*
X47845Y12044D01*
X47710Y12053D01*
X47592Y12067D01*
X47494Y12085D01*
X47416Y12105D01*
X47358Y12126D01*
X47321Y12144D01*
X47302Y12156D01*
X47299Y12159D01*
X47273Y12191D01*
X47246Y12206D01*
X47234Y12235D01*
X47146Y12271D01*
X47118Y12290D01*
X47112Y12303D01*
X47080Y12316D01*
X47062Y12346D01*
X47014Y12359D01*
X46890Y12442D01*
X46833Y12453D01*
X46817Y12521D01*
X46798Y12647D01*
X46786Y12807D01*
X46781Y13010D01*
X46774Y13026D01*
X46780Y13043D01*
X46760Y13081D01*
Y13195D01*
X46781Y13244D01*
X46786Y13454D01*
X46798Y13623D01*
X46817Y13760D01*
X46841Y13862D01*
X46846Y13879D01*
X47084Y14038D01*
X47116Y14051D01*
X47124Y14071D01*
X47135Y14087D01*
X47161Y14102D01*
X47172Y14142D01*
X47358Y14421D01*
X47443Y14846D01*
Y17165D01*
X47358Y17591D01*
X47117Y17951D01*
X46756Y18192D01*
X46331Y18277D01*
X45150D01*
X44724Y18192D01*
X44363Y17951D01*
X44122Y17591D01*
X44038Y17165D01*
Y14846D01*
X44122Y14421D01*
X44308Y14142D01*
X44319Y14102D01*
X44345Y14087D01*
X44356Y14071D01*
X44364Y14051D01*
X44396Y14038D01*
X44634Y13879D01*
X44640Y13862D01*
X44661Y13769D01*
X44695Y13446D01*
X44699Y13244D01*
X44721Y13195D01*
Y12974D01*
X44699Y12926D01*
X44691Y12593D01*
X44683Y12465D01*
X44655Y12228D01*
X44639Y12146D01*
X44634Y12123D01*
X44584Y12105D01*
X44506Y12085D01*
X44415Y12068D01*
X44148Y12044D01*
X44000Y12041D01*
X43845Y12044D01*
X43710Y12053D01*
X43593Y12067D01*
X43494Y12085D01*
X43416Y12105D01*
X43358Y12126D01*
X43321Y12144D01*
X43302Y12156D01*
X43299Y12159D01*
X43273Y12191D01*
X43246Y12206D01*
X43235Y12235D01*
X43145Y12271D01*
X42890Y12442D01*
X42500Y12520D01*
X41500D01*
X41110Y12442D01*
X40779Y12221D01*
X40558Y11890D01*
X40480Y11500D01*
Y10500D01*
X40558Y10110D01*
X40779Y9779D01*
X41110Y9558D01*
X41500Y9480D01*
X42500D01*
X42890Y9558D01*
X43145Y9729D01*
X43235Y9765D01*
X43246Y9794D01*
X43273Y9809D01*
X43299Y9841D01*
X43302Y9844D01*
X43321Y9856D01*
X43358Y9874D01*
X43416Y9894D01*
X43494Y9915D01*
X43585Y9932D01*
X43852Y9956D01*
X44000Y9959D01*
X44155Y9956D01*
X44290Y9947D01*
X44407Y9933D01*
X44506Y9915D01*
X44584Y9894D01*
X44642Y9874D01*
X44679Y9856D01*
X44698Y9844D01*
X44701Y9841D01*
X44726Y9809D01*
X44754Y9794D01*
X44765Y9765D01*
X44855Y9729D01*
X45110Y9558D01*
X45500Y9480D01*
X46500D01*
X46890Y9558D01*
X47146Y9729D01*
X47234Y9765D01*
X47446Y9803D01*
X47766Y9792D01*
X55779Y1779D01*
X56110Y1558D01*
X56303Y1520D01*
X56254Y1020D01*
X1020D01*
Y19078D01*
X2721Y20779D01*
X2942Y21110D01*
X3020Y21500D01*
Y53500D01*
X2942Y53890D01*
X2721Y54221D01*
X1020Y55922D01*
Y105480D01*
X26578D01*
X27779Y104279D01*
D02*
G37*
G36*
X76406Y87285D02*
X76473Y87225D01*
X76554Y87172D01*
X76648Y87127D01*
X76756Y87088D01*
X76877Y87056D01*
X77012Y87032D01*
X77160Y87014D01*
X77322Y87003D01*
X77498Y87000D01*
Y86000D01*
X77322Y85997D01*
X77012Y85968D01*
X76877Y85944D01*
X76756Y85912D01*
X76648Y85873D01*
X76554Y85828D01*
X76473Y85775D01*
X76406Y85715D01*
X76352Y85648D01*
Y87352D01*
X76406Y87285D01*
D02*
G37*
G36*
X49012Y85806D02*
X49020Y85719D01*
X49032Y85643D01*
X49050Y85576D01*
X49072Y85520D01*
X49100Y85474D01*
X49132Y85438D01*
X49170Y85412D01*
X49212Y85397D01*
X49260Y85392D01*
X48260D01*
X48307Y85397D01*
X48350Y85412D01*
X48387Y85438D01*
X48420Y85474D01*
X48447Y85520D01*
X48470Y85576D01*
X48487Y85643D01*
X48500Y85719D01*
X48507Y85806D01*
X48510Y85904D01*
X49010D01*
X49012Y85806D01*
D02*
G37*
G36*
X71952Y85509D02*
X71910Y85494D01*
X71873Y85468D01*
X71840Y85432D01*
X71812Y85386D01*
X71790Y85330D01*
X71772Y85264D01*
X71760Y85187D01*
X71753Y85100D01*
X71750Y85002D01*
X71250D01*
X71248Y85100D01*
X71240Y85187D01*
X71228Y85264D01*
X71210Y85330D01*
X71188Y85386D01*
X71161Y85432D01*
X71129Y85468D01*
X71092Y85494D01*
X71049Y85509D01*
X71002Y85514D01*
X72000Y85514D01*
X71952Y85509D01*
D02*
G37*
G36*
X82148Y85648D02*
X83852D01*
X83785Y85594D01*
X83725Y85527D01*
X83672Y85446D01*
X83627Y85352D01*
X83588Y85244D01*
X83556Y85123D01*
X83532Y84988D01*
X83514Y84840D01*
X83504Y84678D01*
X83500Y84502D01*
X82500D01*
X82497Y84678D01*
X82468Y84988D01*
X82444Y85123D01*
X82412Y85244D01*
X82373Y85352D01*
X82328Y85446D01*
X82275Y85527D01*
X82215Y85594D01*
X82148Y85648D01*
X82094Y85715D01*
X82027Y85775D01*
X81946Y85828D01*
X81852Y85873D01*
X81744Y85912D01*
X81623Y85944D01*
X81488Y85968D01*
X81340Y85986D01*
X81178Y85997D01*
X81002Y86000D01*
Y87000D01*
X81178Y87003D01*
X81488Y87032D01*
X81623Y87056D01*
X81744Y87088D01*
X81852Y87127D01*
X81946Y87172D01*
X82027Y87225D01*
X82094Y87285D01*
X82148Y87352D01*
Y85648D01*
D02*
G37*
G36*
X83504Y83822D02*
X83532Y83512D01*
X83556Y83377D01*
X83588Y83256D01*
X83627Y83148D01*
X83672Y83054D01*
X83725Y82973D01*
X83785Y82906D01*
X83852Y82852D01*
X82148D01*
X82215Y82906D01*
X82275Y82973D01*
X82328Y83054D01*
X82373Y83148D01*
X82412Y83256D01*
X82444Y83377D01*
X82468Y83512D01*
X82486Y83660D01*
X82497Y83822D01*
X82500Y83998D01*
X83500D01*
X83504Y83822D01*
D02*
G37*
G36*
X69696Y82342D02*
X69708Y82336D01*
X69727Y82330D01*
X69753Y82325D01*
X69786Y82320D01*
X69874Y82314D01*
X70061Y82311D01*
Y81811D01*
X70002Y81810D01*
X69829Y81800D01*
X69802Y81795D01*
X69781Y81789D01*
X69766Y81783D01*
X69757Y81775D01*
X69755Y81767D01*
X69692Y82349D01*
X69696Y82342D01*
D02*
G37*
G36*
X33431Y81563D02*
X33402Y81599D01*
X33366Y81623D01*
X33323Y81634D01*
X33275Y81631D01*
X33221Y81615D01*
X33161Y81587D01*
X33095Y81545D01*
X33022Y81490D01*
X32944Y81422D01*
X32859Y81341D01*
X32584Y81773D01*
X32667Y81859D01*
X32798Y82017D01*
X32846Y82090D01*
X32883Y82157D01*
X32908Y82220D01*
X32923Y82279D01*
X32925Y82332D01*
X32916Y82382D01*
X32896Y82426D01*
X33431Y81563D01*
D02*
G37*
G36*
X66660Y82464D02*
X66719Y82409D01*
X66780Y82361D01*
X66842Y82319D01*
X66906Y82283D01*
X66972Y82254D01*
X67040Y82232D01*
X67110Y82216D01*
X67113Y82215D01*
X67154Y82218D01*
X67224Y82231D01*
X67285Y82247D01*
X67338Y82266D01*
X67383Y82289D01*
X67418Y82315D01*
X67446Y82345D01*
X67465Y82378D01*
Y81528D01*
X67446Y81561D01*
X67418Y81591D01*
X67383Y81617D01*
X67338Y81640D01*
X67285Y81659D01*
X67224Y81675D01*
X67154Y81687D01*
X67098Y81693D01*
X67080Y81691D01*
X67010Y81676D01*
X66940Y81656D01*
X66872Y81629D01*
X66803Y81596D01*
X66736Y81558D01*
X66669Y81514D01*
X66603Y81463D01*
X66537Y81407D01*
X66603Y82525D01*
X66660Y82464D01*
D02*
G37*
G36*
X55030Y81521D02*
X54996Y81553D01*
X54957Y81572D01*
X54912Y81578D01*
X54861Y81572D01*
X54804Y81554D01*
X54743Y81523D01*
X54675Y81480D01*
X54602Y81424D01*
X54523Y81355D01*
X54439Y81274D01*
X54105Y81648D01*
X54189Y81735D01*
X54320Y81894D01*
X54368Y81965D01*
X54403Y82031D01*
X54426Y82093D01*
X54437Y82148D01*
X54436Y82199D01*
X54423Y82245D01*
X54398Y82285D01*
X55030Y81521D01*
D02*
G37*
G36*
X36577Y82245D02*
X36564Y82199D01*
X36563Y82148D01*
X36574Y82093D01*
X36597Y82031D01*
X36632Y81965D01*
X36680Y81893D01*
X36740Y81817D01*
X36811Y81735D01*
X36895Y81648D01*
X36561Y81274D01*
X36477Y81355D01*
X36325Y81480D01*
X36257Y81523D01*
X36195Y81554D01*
X36139Y81572D01*
X36088Y81578D01*
X36043Y81572D01*
X36004Y81553D01*
X35970Y81521D01*
X36602Y82285D01*
X36577Y82245D01*
D02*
G37*
G36*
X49212Y81461D02*
X49170Y81446D01*
X49132Y81420D01*
X49100Y81385D01*
X49072Y81339D01*
X49050Y81282D01*
X49032Y81216D01*
X49020Y81139D01*
X49012Y81052D01*
X49010Y80954D01*
X48510D01*
X48507Y81052D01*
X48500Y81139D01*
X48487Y81216D01*
X48470Y81282D01*
X48447Y81339D01*
X48420Y81385D01*
X48387Y81420D01*
X48350Y81446D01*
X48307Y81461D01*
X48260Y81467D01*
X49260D01*
X49212Y81461D01*
D02*
G37*
G36*
X9130Y82640D02*
X9093Y82559D01*
X9085Y82463D01*
X9105Y82352D01*
X9154Y82227D01*
X9230Y82088D01*
X9336Y81934D01*
X9470Y81765D01*
X9632Y81582D01*
X9822Y81385D01*
X8991Y80802D01*
X8797Y80989D01*
X8445Y81286D01*
X8287Y81395D01*
X8141Y81478D01*
X8007Y81535D01*
X7886Y81567D01*
X7776Y81572D01*
X7679Y81551D01*
X7593Y81505D01*
X9195Y82707D01*
X9130Y82640D01*
D02*
G37*
G36*
X49013Y80874D02*
X49022Y80803D01*
X49038Y80733D01*
X49059Y80664D01*
X49087Y80597D01*
X49121Y80531D01*
X49162Y80465D01*
X49208Y80402D01*
X49261Y80339D01*
X49320Y80278D01*
X48200D01*
X48259Y80339D01*
X48311Y80402D01*
X48358Y80465D01*
X48398Y80531D01*
X48432Y80597D01*
X48460Y80664D01*
X48482Y80733D01*
X48497Y80803D01*
X48507Y80874D01*
X48510Y80946D01*
X49010D01*
X49013Y80874D01*
D02*
G37*
G36*
X83785Y81094D02*
X83725Y81027D01*
X83672Y80946D01*
X83627Y80852D01*
X83588Y80744D01*
X83556Y80623D01*
X83532Y80488D01*
X83514Y80340D01*
X83504Y80178D01*
X83500Y80002D01*
X82500D01*
X82497Y80178D01*
X82468Y80488D01*
X82444Y80623D01*
X82412Y80744D01*
X82373Y80852D01*
X82328Y80946D01*
X82275Y81027D01*
X82215Y81094D01*
X82148Y81148D01*
X83852D01*
X83785Y81094D01*
D02*
G37*
G36*
X67465Y79559D02*
X67445Y79595D01*
X67416Y79628D01*
X67380Y79656D01*
X67335Y79681D01*
X67281Y79702D01*
X67220Y79720D01*
X67150Y79733D01*
X67072Y79742D01*
X66985Y79748D01*
X66890Y79750D01*
X66899Y80250D01*
X66994Y80252D01*
X67159Y80264D01*
X67229Y80275D01*
X67290Y80290D01*
X67342Y80307D01*
X67386Y80328D01*
X67421Y80352D01*
X67447Y80379D01*
X67465Y80409D01*
Y79559D01*
D02*
G37*
G36*
X64491Y80451D02*
X64506Y80409D01*
X64532Y80371D01*
X64568Y80339D01*
X64614Y80312D01*
X64670Y80290D01*
X64737Y80272D01*
X64813Y80260D01*
X64900Y80252D01*
X64998Y80250D01*
Y79750D01*
X64900Y79747D01*
X64813Y79740D01*
X64737Y79728D01*
X64670Y79710D01*
X64614Y79688D01*
X64568Y79661D01*
X64532Y79629D01*
X64506Y79592D01*
X64491Y79549D01*
X64486Y79502D01*
Y80498D01*
X64491Y80451D01*
D02*
G37*
G36*
X63952Y79009D02*
X63910Y78994D01*
X63872Y78968D01*
X63840Y78932D01*
X63813Y78886D01*
X63790Y78830D01*
X63772Y78764D01*
X63760Y78687D01*
X63753Y78600D01*
X63750Y78502D01*
X63250D01*
X63248Y78600D01*
X63240Y78687D01*
X63228Y78764D01*
X63210Y78830D01*
X63188Y78886D01*
X63161Y78932D01*
X63129Y78968D01*
X63091Y78994D01*
X63049Y79009D01*
X63002Y79014D01*
X64000Y79014D01*
X63952Y79009D01*
D02*
G37*
G36*
X57211Y78490D02*
X57126Y78488D01*
X57044Y78481D01*
X56966Y78469D01*
X56892Y78451D01*
X56821Y78428D01*
X56753Y78400D01*
X56689Y78367D01*
X56629Y78329D01*
X56572Y78285D01*
X56519Y78236D01*
X56165Y78589D01*
X56214Y78643D01*
X56258Y78700D01*
X56296Y78760D01*
X56330Y78824D01*
X56358Y78891D01*
X56380Y78962D01*
X56398Y79037D01*
X56410Y79115D01*
X56417Y79197D01*
X56419Y79282D01*
X57211Y78490D01*
D02*
G37*
G36*
X67468Y77614D02*
X67463Y77640D01*
X67448Y77663D01*
X67425Y77684D01*
X67392Y77701D01*
X67350Y77716D01*
X67298Y77728D01*
X67238Y77738D01*
X67168Y77745D01*
X67000Y77750D01*
Y78250D01*
X67087Y78251D01*
X67233Y78262D01*
X67292Y78272D01*
X67342Y78284D01*
X67383Y78299D01*
X67415Y78316D01*
X67437Y78337D01*
X67450Y78360D01*
X67455Y78386D01*
X67468Y77614D01*
D02*
G37*
G36*
X79323Y77544D02*
X79238Y77513D01*
X79164Y77461D01*
X79100Y77388D01*
X79045Y77295D01*
X79001Y77181D01*
X78966Y77046D01*
X78959Y77000D01*
X78966Y76954D01*
X79001Y76819D01*
X79045Y76705D01*
X79100Y76612D01*
X79164Y76539D01*
X79238Y76487D01*
X79323Y76456D01*
X79417Y76446D01*
X77426Y76446D01*
X77520Y76456D01*
X77604Y76487D01*
X77679Y76539D01*
X77743Y76612D01*
X77797Y76705D01*
X77842Y76819D01*
X77877Y76954D01*
X77884Y77000D01*
X77877Y77046D01*
X77842Y77181D01*
X77797Y77295D01*
X77743Y77388D01*
X77679Y77461D01*
X77604Y77513D01*
X77520Y77544D01*
X77426Y77554D01*
X79417D01*
X79323Y77544D01*
D02*
G37*
G36*
X54635Y76352D02*
X54551Y76265D01*
X54420Y76106D01*
X54373Y76035D01*
X54337Y75969D01*
X54314Y75907D01*
X54303Y75852D01*
X54304Y75801D01*
X54317Y75755D01*
X54342Y75715D01*
X53710Y76478D01*
X53744Y76447D01*
X53784Y76428D01*
X53829Y76422D01*
X53879Y76428D01*
X53936Y76446D01*
X53998Y76477D01*
X54065Y76521D01*
X54138Y76576D01*
X54217Y76645D01*
X54301Y76726D01*
X54635Y76352D01*
D02*
G37*
G36*
X69728Y76452D02*
X69781Y76406D01*
X70808Y75399D01*
X69952Y74841D01*
X69753Y75033D01*
X69394Y75336D01*
X69234Y75448D01*
X69086Y75533D01*
X68951Y75592D01*
X68828Y75624D01*
X68719Y75629D01*
X68622Y75608D01*
X68538Y75560D01*
X69693Y76472D01*
X69699Y76474D01*
X69728Y76452D01*
D02*
G37*
G36*
X79322Y75512D02*
X79238Y75481D01*
X79164Y75429D01*
X79100Y75357D01*
X79045Y75263D01*
X79001Y75149D01*
X78966Y75014D01*
X78941Y74858D01*
X78926Y74682D01*
X78921Y74485D01*
X77921D01*
X77916Y74682D01*
X77901Y74858D01*
X77877Y75014D01*
X77842Y75149D01*
X77797Y75263D01*
X77743Y75357D01*
X77679Y75429D01*
X77604Y75481D01*
X77520Y75512D01*
X77426Y75523D01*
X79417D01*
X79322Y75512D01*
D02*
G37*
G36*
X74284Y87774D02*
X74279Y87721D01*
X74058Y87390D01*
X73980Y87000D01*
Y86000D01*
X74058Y85610D01*
X74279Y85279D01*
X74610Y85058D01*
X75000Y84980D01*
X76000D01*
X76390Y85058D01*
X76645Y85229D01*
X76735Y85265D01*
X76746Y85294D01*
X76774Y85309D01*
X76799Y85341D01*
X76802Y85344D01*
X76821Y85356D01*
X76858Y85374D01*
X76916Y85395D01*
X76994Y85415D01*
X77085Y85432D01*
X77352Y85456D01*
X77508Y85459D01*
X77557Y85480D01*
X80942D01*
X80992Y85459D01*
X81155Y85456D01*
X81290Y85447D01*
X81407Y85433D01*
X81506Y85415D01*
X81584Y85395D01*
X81642Y85374D01*
X81679Y85356D01*
X81698Y85344D01*
X81701Y85341D01*
X81726Y85309D01*
X81754Y85294D01*
X81766Y85265D01*
X81794Y85254D01*
X81809Y85227D01*
X81841Y85201D01*
X81844Y85198D01*
X81856Y85179D01*
X81874Y85142D01*
X81894Y85084D01*
X81915Y85006D01*
X81932Y84915D01*
X81956Y84648D01*
X81959Y84492D01*
X81980Y84443D01*
Y84057D01*
X81959Y84008D01*
X81956Y83845D01*
X81947Y83710D01*
X81933Y83592D01*
X81915Y83494D01*
X81894Y83416D01*
X81874Y83358D01*
X81856Y83321D01*
X81844Y83302D01*
X81841Y83299D01*
X81809Y83274D01*
X81794Y83246D01*
X81766Y83235D01*
X81729Y83145D01*
X81558Y82890D01*
X81480Y82500D01*
Y81500D01*
X81558Y81110D01*
X81729Y80854D01*
X81766Y80765D01*
X81794Y80754D01*
X81809Y80726D01*
X81841Y80701D01*
X81844Y80698D01*
X81856Y80679D01*
X81874Y80642D01*
X81894Y80584D01*
X81915Y80506D01*
X81932Y80415D01*
X81956Y80148D01*
X81959Y79992D01*
X81980Y79943D01*
Y79422D01*
X81593Y79035D01*
X78421D01*
X78357Y79023D01*
X77486D01*
X77195Y78965D01*
X76948Y78800D01*
X76784Y78553D01*
X76726Y78262D01*
Y77770D01*
X76784Y77479D01*
X76948Y77232D01*
X76948Y76768D01*
X76783Y76521D01*
X76726Y76230D01*
Y75738D01*
X76783Y75447D01*
X76948Y75200D01*
X77195Y75035D01*
X77315Y75012D01*
X77326Y74983D01*
X77346Y74904D01*
X77364Y74793D01*
X77376Y74652D01*
X77380Y74471D01*
X77402Y74423D01*
Y73123D01*
X77391Y73106D01*
X77399Y73066D01*
X77381Y73028D01*
X77372Y72872D01*
X77355Y72773D01*
X77333Y72705D01*
X77309Y72662D01*
X77287Y72635D01*
X77259Y72612D01*
X77216Y72589D01*
X77148Y72566D01*
X77050Y72549D01*
X76933Y72543D01*
X76845Y72544D01*
X76710Y72553D01*
X76592Y72567D01*
X76494Y72585D01*
X76416Y72606D01*
X76358Y72626D01*
X76321Y72644D01*
X76302Y72656D01*
X76299Y72659D01*
X76274Y72691D01*
X76246Y72706D01*
X76235Y72734D01*
X76145Y72771D01*
X75890Y72942D01*
X75500Y73020D01*
X74500D01*
X74110Y72942D01*
X73779Y72721D01*
X73558Y72390D01*
X73480Y72000D01*
Y71000D01*
X73528Y70761D01*
X73093Y70528D01*
X72742Y70846D01*
X72724Y70895D01*
X72560Y71071D01*
X72520Y71122D01*
Y71192D01*
X72527Y71210D01*
X72520Y71227D01*
Y71292D01*
X72520Y71294D01*
X72520Y71295D01*
Y72000D01*
X72442Y72390D01*
X72271Y72645D01*
X72234Y72734D01*
X72206Y72746D01*
X72191Y72773D01*
X72159Y72799D01*
X72156Y72802D01*
X72144Y72821D01*
X72126Y72858D01*
X72105Y72916D01*
X72085Y72994D01*
X72069Y73085D01*
X72044Y73352D01*
X72041Y73508D01*
X72020Y73558D01*
Y74500D01*
X71942Y74890D01*
X71721Y75221D01*
X71264Y75678D01*
X71261Y75695D01*
X71216Y75726D01*
X71209Y75733D01*
X71187Y75786D01*
X70214Y76739D01*
X70108Y77060D01*
X70102Y77093D01*
X70111Y77221D01*
X70155Y77387D01*
X70217Y77479D01*
X70275Y77770D01*
Y78262D01*
X70217Y78553D01*
X70052Y78800D01*
Y79200D01*
X70217Y79447D01*
X70275Y79738D01*
Y80230D01*
X70217Y80521D01*
X70052Y80768D01*
X70052Y81169D01*
X70140Y81301D01*
X70187Y81321D01*
X70353Y81354D01*
X70601Y81520D01*
X72041Y82959D01*
X72206Y83207D01*
X72265Y83500D01*
Y84929D01*
X72291Y84988D01*
X72292Y85039D01*
X72390Y85058D01*
X72721Y85279D01*
X72942Y85610D01*
X73020Y86000D01*
Y87000D01*
X72942Y87390D01*
X72721Y87721D01*
X72390Y87942D01*
X72197Y87980D01*
X72246Y88480D01*
X73578D01*
X74284Y87774D01*
D02*
G37*
G36*
X47752Y72900D02*
X47760Y72813D01*
X47772Y72737D01*
X47790Y72670D01*
X47812Y72614D01*
X47839Y72568D01*
X47871Y72532D01*
X47908Y72506D01*
X47951Y72491D01*
X47998Y72486D01*
X47002D01*
X47049Y72491D01*
X47091Y72506D01*
X47129Y72532D01*
X47161Y72568D01*
X47188Y72614D01*
X47210Y72670D01*
X47228Y72737D01*
X47240Y72813D01*
X47247Y72900D01*
X47250Y72998D01*
X47750D01*
X47752Y72900D01*
D02*
G37*
G36*
X43753D02*
X43760Y72813D01*
X43772Y72737D01*
X43790Y72670D01*
X43812Y72614D01*
X43839Y72568D01*
X43871Y72532D01*
X43909Y72506D01*
X43951Y72491D01*
X43998Y72486D01*
X43002D01*
X43049Y72491D01*
X43091Y72506D01*
X43129Y72532D01*
X43161Y72568D01*
X43188Y72614D01*
X43210Y72670D01*
X43228Y72737D01*
X43240Y72813D01*
X43248Y72900D01*
X43250Y72998D01*
X43750D01*
X43753Y72900D01*
D02*
G37*
G36*
X71504Y73322D02*
X71532Y73012D01*
X71556Y72877D01*
X71588Y72756D01*
X71627Y72648D01*
X71672Y72554D01*
X71725Y72473D01*
X71785Y72406D01*
X71852Y72352D01*
X70148D01*
X70215Y72406D01*
X70275Y72473D01*
X70328Y72554D01*
X70373Y72648D01*
X70412Y72756D01*
X70444Y72877D01*
X70468Y73012D01*
X70486Y73160D01*
X70496Y73322D01*
X70500Y73498D01*
X71500D01*
X71504Y73322D01*
D02*
G37*
G36*
X39268Y72604D02*
X39233Y72590D01*
X39203Y72567D01*
X39177Y72534D01*
X39155Y72492D01*
X39137Y72442D01*
X39123Y72381D01*
X39113Y72312D01*
X39107Y72233D01*
X39105Y72145D01*
X38605D01*
X38603Y72233D01*
X38597Y72312D01*
X38587Y72381D01*
X38573Y72442D01*
X38554Y72492D01*
X38532Y72534D01*
X38506Y72567D01*
X38476Y72590D01*
X38442Y72604D01*
X38404Y72608D01*
X39306D01*
X39268Y72604D01*
D02*
G37*
G36*
X59253Y72668D02*
X59262Y72597D01*
X59278Y72527D01*
X59300Y72458D01*
X59328Y72390D01*
X59362Y72324D01*
X59402Y72259D01*
X59448Y72195D01*
X59501Y72133D01*
X59560Y72071D01*
X58440D01*
X58499Y72133D01*
X58552Y72195D01*
X58598Y72259D01*
X58638Y72324D01*
X58672Y72390D01*
X58700Y72458D01*
X58722Y72527D01*
X58738Y72597D01*
X58747Y72668D01*
X58750Y72740D01*
X59250D01*
X59253Y72668D01*
D02*
G37*
G36*
X77921Y73000D02*
Y73000D01*
X78921Y71500D01*
X77921Y70000D01*
Y70000D01*
X77921Y70000D01*
X77911Y70190D01*
X77881Y70360D01*
X77831Y70510D01*
X77761Y70640D01*
X77671Y70750D01*
X77561Y70840D01*
X77431Y70910D01*
X77281Y70960D01*
X77111Y70990D01*
X76942Y70999D01*
X76822Y70996D01*
X76512Y70968D01*
X76377Y70944D01*
X76256Y70912D01*
X76148Y70873D01*
X76054Y70828D01*
X75973Y70775D01*
X75906Y70715D01*
X75852Y70648D01*
Y72352D01*
X75906Y72285D01*
X75973Y72225D01*
X76054Y72172D01*
X76148Y72127D01*
X76256Y72088D01*
X76377Y72056D01*
X76512Y72032D01*
X76660Y72014D01*
X76822Y72004D01*
X76942Y72001D01*
X77111Y72010D01*
X77281Y72040D01*
X77431Y72090D01*
X77561Y72160D01*
X77671Y72250D01*
X77761Y72360D01*
X77831Y72490D01*
X77881Y72640D01*
X77911Y72810D01*
X77921Y73000D01*
X77921Y73000D01*
D02*
G37*
G36*
X52952Y72603D02*
X52910Y72588D01*
X52873Y72562D01*
X52840Y72526D01*
X52812Y72480D01*
X52790Y72424D01*
X52772Y72357D01*
X52760Y72281D01*
X52753Y72194D01*
X52752Y72186D01*
X52753Y72168D01*
X52762Y72097D01*
X52778Y72027D01*
X52800Y71958D01*
X52828Y71890D01*
X52862Y71824D01*
X52902Y71759D01*
X52948Y71695D01*
X53001Y71633D01*
X53060Y71571D01*
X51940D01*
X51999Y71633D01*
X52052Y71695D01*
X52098Y71759D01*
X52138Y71824D01*
X52172Y71890D01*
X52200Y71958D01*
X52222Y72027D01*
X52238Y72097D01*
X52247Y72168D01*
X52248Y72186D01*
X52248Y72194D01*
X52240Y72281D01*
X52227Y72357D01*
X52210Y72424D01*
X52188Y72480D01*
X52160Y72526D01*
X52127Y72562D01*
X52090Y72588D01*
X52047Y72603D01*
X52000Y72608D01*
X53000D01*
X52952Y72603D01*
D02*
G37*
G36*
X70014Y71768D02*
X70506Y71801D01*
X70570Y71816D01*
X70617Y71834D01*
X70647Y71854D01*
Y71146D01*
X70617Y71166D01*
X70570Y71184D01*
X70506Y71199D01*
X70424Y71213D01*
X70208Y71233D01*
X70014Y71240D01*
X70014Y71000D01*
X70009Y71048D01*
X69994Y71090D01*
X69968Y71127D01*
X69933Y71160D01*
X69886Y71188D01*
X69830Y71210D01*
X69763Y71228D01*
X69687Y71240D01*
X69600Y71248D01*
X69502Y71250D01*
Y71750D01*
X69600Y71753D01*
X69687Y71760D01*
X69763Y71772D01*
X69830Y71790D01*
X69886Y71812D01*
X69932Y71839D01*
X69968Y71871D01*
X69994Y71908D01*
X70009Y71951D01*
X70014Y71998D01*
X70014Y71768D01*
D02*
G37*
G36*
X68633Y72001D02*
X68695Y71948D01*
X68759Y71902D01*
X68824Y71862D01*
X68890Y71828D01*
X68958Y71800D01*
X69027Y71778D01*
X69096Y71762D01*
X69168Y71753D01*
X69240Y71750D01*
Y71250D01*
X69168Y71247D01*
X69096Y71238D01*
X69027Y71222D01*
X68958Y71200D01*
X68890Y71172D01*
X68824Y71138D01*
X68759Y71098D01*
X68695Y71052D01*
X68633Y70999D01*
X68571Y70940D01*
Y72060D01*
X68633Y72001D01*
D02*
G37*
G36*
X71507Y71465D02*
X71528Y71420D01*
X71562Y71363D01*
X71610Y71296D01*
X71749Y71129D01*
X71824Y71048D01*
X71986Y71210D01*
X71958Y71172D01*
X71945Y71128D01*
Y71076D01*
X71958Y71018D01*
X71986Y70953D01*
X72027Y70882D01*
X72081Y70803D01*
X72150Y70718D01*
X72327Y70526D01*
X71974Y70173D01*
X71875Y70268D01*
X71697Y70419D01*
X71618Y70473D01*
X71547Y70514D01*
X71482Y70542D01*
X71424Y70555D01*
X71372D01*
X71328Y70542D01*
X71290Y70514D01*
X71444Y70668D01*
X71137Y70938D01*
X71080Y70972D01*
X71034Y70993D01*
X71000Y71000D01*
X71500Y71500D01*
X71507Y71465D01*
D02*
G37*
G36*
X65753Y70019D02*
X65762Y69948D01*
X65778Y69878D01*
X65800Y69809D01*
X65828Y69742D01*
X65862Y69675D01*
X65902Y69610D01*
X65948Y69547D01*
X66001Y69484D01*
X66060Y69423D01*
X64940D01*
X64999Y69484D01*
X65052Y69547D01*
X65098Y69610D01*
X65138Y69675D01*
X65172Y69742D01*
X65200Y69809D01*
X65222Y69878D01*
X65238Y69948D01*
X65247Y70019D01*
X65250Y70091D01*
X65750D01*
X65753Y70019D01*
D02*
G37*
G36*
X63053D02*
X63062Y69948D01*
X63078Y69878D01*
X63100Y69809D01*
X63127Y69742D01*
X63162Y69675D01*
X63202Y69610D01*
X63248Y69547D01*
X63301Y69484D01*
X63360Y69423D01*
X62240D01*
X62299Y69484D01*
X62352Y69547D01*
X62398Y69610D01*
X62438Y69675D01*
X62472Y69742D01*
X62500Y69809D01*
X62522Y69878D01*
X62538Y69948D01*
X62547Y70019D01*
X62550Y70091D01*
X63050D01*
X63053Y70019D01*
D02*
G37*
G36*
X45753Y68900D02*
X45760Y68813D01*
X45772Y68737D01*
X45790Y68670D01*
X45812Y68614D01*
X45839Y68568D01*
X45871Y68532D01*
X45908Y68506D01*
X45951Y68491D01*
X45998Y68486D01*
X45002D01*
X45049Y68491D01*
X45092Y68506D01*
X45129Y68532D01*
X45161Y68568D01*
X45188Y68614D01*
X45210Y68670D01*
X45228Y68737D01*
X45240Y68813D01*
X45248Y68900D01*
X45250Y68998D01*
X45750D01*
X45753Y68900D01*
D02*
G37*
G36*
X46491Y67953D02*
X46506Y67910D01*
X46532Y67873D01*
X46567Y67840D01*
X46614Y67813D01*
X46670Y67790D01*
X46736Y67773D01*
X46813Y67760D01*
X46900Y67752D01*
X46998Y67750D01*
Y67250D01*
X46900Y67247D01*
X46813Y67240D01*
X46736Y67228D01*
X46670Y67210D01*
X46614Y67188D01*
X46568Y67161D01*
X46532Y67129D01*
X46506Y67092D01*
X46491Y67049D01*
X46486Y67002D01*
X46486Y68000D01*
X46491Y67953D01*
D02*
G37*
G36*
X49014Y67000D02*
X49009Y67048D01*
X48994Y67090D01*
X48968Y67128D01*
X48932Y67160D01*
X48886Y67188D01*
X48830Y67210D01*
X48763Y67228D01*
X48687Y67240D01*
X48600Y67247D01*
X48502Y67250D01*
Y67750D01*
X48600Y67752D01*
X48687Y67760D01*
X48763Y67772D01*
X48830Y67790D01*
X48886Y67812D01*
X48932Y67839D01*
X48968Y67871D01*
X48994Y67909D01*
X49009Y67951D01*
X49014Y67998D01*
X49014Y67000D01*
D02*
G37*
G36*
X41917Y66514D02*
X41840Y66570D01*
X41749Y66597D01*
X41643Y66596D01*
X41524Y66566D01*
X41389Y66508D01*
X41241Y66422D01*
X41078Y66308D01*
X40900Y66165D01*
X40502Y65795D01*
X39795Y66502D01*
X39994Y66709D01*
X40308Y67078D01*
X40422Y67241D01*
X40508Y67389D01*
X40566Y67524D01*
X40596Y67643D01*
X40597Y67749D01*
X40570Y67840D01*
X40514Y67917D01*
X41917Y66514D01*
D02*
G37*
G36*
X50529Y66524D02*
X50487Y66508D01*
X50450Y66481D01*
X50418Y66444D01*
X50391Y66396D01*
X50368Y66338D01*
X50351Y66270D01*
X50339Y66191D01*
X50331Y66102D01*
X50329Y66002D01*
X49829D01*
X49826Y66100D01*
X49819Y66188D01*
X49806Y66265D01*
X49789Y66332D01*
X49766Y66388D01*
X49739Y66434D01*
X49706Y66470D01*
X49669Y66495D01*
X49626Y66510D01*
X49579Y66514D01*
X50576Y66530D01*
X50529Y66524D01*
D02*
G37*
G36*
X50331Y64977D02*
X50345Y64811D01*
X50357Y64741D01*
X50372Y64679D01*
X50392Y64626D01*
X50415Y64582D01*
X50441Y64546D01*
X50471Y64519D01*
X50504Y64500D01*
X49654D01*
X49687Y64519D01*
X49717Y64546D01*
X49743Y64582D01*
X49766Y64626D01*
X49785Y64679D01*
X49801Y64741D01*
X49813Y64811D01*
X49822Y64890D01*
X49829Y65073D01*
X50329D01*
X50331Y64977D01*
D02*
G37*
G36*
X78926Y65332D02*
X78939Y65177D01*
X78960Y65034D01*
X78990Y64902D01*
X79029Y64782D01*
X79076Y64673D01*
X79132Y64576D01*
X79197Y64490D01*
X79270Y64415D01*
X79352Y64352D01*
X77648D01*
X77700Y64396D01*
X77746Y64455D01*
X77787Y64530D01*
X77823Y64620D01*
X77853Y64726D01*
X77878Y64846D01*
X77897Y64982D01*
X77918Y65300D01*
X77921Y65482D01*
X78921Y65498D01*
X78926Y65332D01*
D02*
G37*
G36*
X61402Y63739D02*
X61421Y63738D01*
Y62738D01*
X61402Y62738D01*
Y62238D01*
X61392Y62333D01*
X61362Y62418D01*
X61311Y62493D01*
X61240Y62558D01*
X61149Y62613D01*
X61038Y62658D01*
X60906Y62693D01*
X60905Y62693D01*
X60905Y62693D01*
X60773Y62658D01*
X60662Y62613D01*
X60571Y62558D01*
X60500Y62493D01*
X60449Y62418D01*
X60419Y62333D01*
X60409Y62238D01*
Y62738D01*
X60390Y62738D01*
Y63738D01*
X60409Y63739D01*
Y64238D01*
X60419Y64143D01*
X60449Y64058D01*
X60500Y63983D01*
X60571Y63918D01*
X60662Y63863D01*
X60773Y63818D01*
X60905Y63783D01*
X60905Y63783D01*
X60906Y63783D01*
X61038Y63818D01*
X61149Y63863D01*
X61240Y63918D01*
X61311Y63983D01*
X61362Y64058D01*
X61392Y64143D01*
X61402Y64238D01*
Y63739D01*
D02*
G37*
G36*
X79406Y64285D02*
X79473Y64225D01*
X79554Y64172D01*
X79648Y64127D01*
X79756Y64088D01*
X79877Y64056D01*
X80012Y64032D01*
X80160Y64014D01*
X80322Y64003D01*
X80498Y64000D01*
Y63000D01*
X80322Y62997D01*
X80012Y62968D01*
X79877Y62944D01*
X79756Y62912D01*
X79648Y62873D01*
X79554Y62828D01*
X79473Y62775D01*
X79406Y62715D01*
X79352Y62648D01*
Y64352D01*
X79406Y64285D01*
D02*
G37*
G36*
X75285Y62594D02*
X75225Y62527D01*
X75172Y62446D01*
X75127Y62352D01*
X75088Y62244D01*
X75056Y62123D01*
X75032Y61988D01*
X75014Y61840D01*
X75003Y61678D01*
X75000Y61502D01*
X74000D01*
X73997Y61678D01*
X73968Y61988D01*
X73944Y62123D01*
X73912Y62244D01*
X73873Y62352D01*
X73828Y62446D01*
X73775Y62527D01*
X73715Y62594D01*
X73648Y62648D01*
X75352D01*
X75285Y62594D01*
D02*
G37*
G36*
X44565Y61958D02*
X44535Y61930D01*
X44509Y61894D01*
X44486Y61850D01*
X44467Y61797D01*
X44451Y61735D01*
X44439Y61665D01*
X44430Y61587D01*
X44423Y61404D01*
X43923D01*
X43922Y61500D01*
X43907Y61665D01*
X43895Y61735D01*
X43879Y61797D01*
X43860Y61850D01*
X43837Y61894D01*
X43811Y61930D01*
X43781Y61958D01*
X43748Y61976D01*
X44598D01*
X44565Y61958D01*
D02*
G37*
G36*
X42001Y61867D02*
X41948Y61805D01*
X41902Y61741D01*
X41862Y61676D01*
X41827Y61610D01*
X41800Y61542D01*
X41788Y61506D01*
X41790Y61498D01*
X41813Y61442D01*
X41840Y61396D01*
X41873Y61360D01*
X41910Y61335D01*
X41952Y61319D01*
X42000Y61314D01*
X41752D01*
X41750Y61260D01*
X41250D01*
X41248Y61314D01*
X41000D01*
X41047Y61319D01*
X41090Y61335D01*
X41127Y61360D01*
X41160Y61396D01*
X41188Y61442D01*
X41210Y61498D01*
X41212Y61506D01*
X41200Y61542D01*
X41173Y61610D01*
X41138Y61676D01*
X41098Y61741D01*
X41052Y61805D01*
X40999Y61867D01*
X40940Y61929D01*
X42060D01*
X42001Y61867D01*
D02*
G37*
G36*
X44427Y61069D02*
X44436Y60997D01*
X44452Y60928D01*
X44475Y60860D01*
X44504Y60795D01*
X44540Y60731D01*
X44582Y60669D01*
X44631Y60608D01*
X44686Y60550D01*
X44747Y60493D01*
X43630Y60420D01*
X43685Y60486D01*
X43735Y60552D01*
X43779Y60619D01*
X43817Y60687D01*
X43850Y60756D01*
X43876Y60825D01*
X43897Y60894D01*
X43911Y60965D01*
X43920Y61036D01*
X43923Y61107D01*
X44423Y61142D01*
X44427Y61069D01*
D02*
G37*
G36*
X75003Y60822D02*
X75032Y60512D01*
X75056Y60377D01*
X75088Y60256D01*
X75127Y60148D01*
X75172Y60054D01*
X75225Y59973D01*
X75285Y59906D01*
X75352Y59852D01*
X73648D01*
X73715Y59906D01*
X73775Y59973D01*
X73828Y60054D01*
X73873Y60148D01*
X73912Y60256D01*
X73944Y60377D01*
X73968Y60512D01*
X73986Y60660D01*
X73997Y60822D01*
X74000Y60998D01*
X75000D01*
X75003Y60822D01*
D02*
G37*
G36*
X66327Y60456D02*
X65327Y58956D01*
X65317Y59146D01*
X65287Y59316D01*
X65237Y59466D01*
X65167Y59596D01*
X65077Y59706D01*
X64967Y59796D01*
X64837Y59866D01*
X64687Y59916D01*
X64517Y59946D01*
X64327Y59956D01*
Y60956D01*
X64517Y60966D01*
X64687Y60996D01*
X64837Y61046D01*
X64967Y61116D01*
X65077Y61206D01*
X65167Y61316D01*
X65237Y61446D01*
X65287Y61596D01*
X65317Y61766D01*
X65327Y61956D01*
X66327Y60456D01*
D02*
G37*
G36*
X75285Y58094D02*
X75225Y58027D01*
X75172Y57946D01*
X75127Y57852D01*
X75088Y57744D01*
X75056Y57623D01*
X75032Y57488D01*
X75014Y57340D01*
X75003Y57178D01*
X75000Y57002D01*
X74000D01*
X73997Y57178D01*
X73968Y57488D01*
X73944Y57623D01*
X73912Y57744D01*
X73873Y57852D01*
X73828Y57946D01*
X73775Y58027D01*
X73715Y58094D01*
X73648Y58148D01*
X75352D01*
X75285Y58094D01*
D02*
G37*
G36*
X71500Y96905D02*
Y93500D01*
X73000Y91500D01*
X99374D01*
Y62316D01*
X96523Y59465D01*
X96302Y59134D01*
X96224Y58744D01*
Y56871D01*
X95763Y56679D01*
X88221Y64221D01*
X87890Y64442D01*
X87500Y64520D01*
X80558D01*
X80508Y64541D01*
X80345Y64544D01*
X80210Y64553D01*
X80093Y64567D01*
X79994Y64585D01*
X79916Y64605D01*
X79858Y64626D01*
X79821Y64644D01*
X79802Y64656D01*
X79799Y64659D01*
X79773Y64691D01*
X79746Y64706D01*
X79734Y64735D01*
X79701Y64749D01*
X79683Y64780D01*
X79630Y64820D01*
X79608Y64843D01*
X79585Y64874D01*
X79561Y64917D01*
X79536Y64973D01*
X79513Y65046D01*
X79492Y65135D01*
X79476Y65240D01*
X79466Y65361D01*
X79462Y65512D01*
X79441Y65560D01*
Y71377D01*
X79452Y71394D01*
X79441Y71450D01*
Y71550D01*
X79452Y71606D01*
X79441Y71623D01*
Y74423D01*
X79462Y74471D01*
X79467Y74652D01*
X79479Y74793D01*
X79496Y74904D01*
X79517Y74983D01*
X79528Y75012D01*
X79647Y75035D01*
X79894Y75200D01*
X80059Y75447D01*
X80117Y75738D01*
Y76230D01*
X80064Y76496D01*
X80063Y76527D01*
X80343Y76996D01*
X82016D01*
X82406Y77074D01*
X82737Y77295D01*
X83721Y78279D01*
X83942Y78610D01*
X84020Y79000D01*
Y79943D01*
X84041Y79992D01*
X84044Y80155D01*
X84053Y80290D01*
X84067Y80408D01*
X84085Y80506D01*
X84105Y80584D01*
X84126Y80642D01*
X84144Y80679D01*
X84156Y80698D01*
X84159Y80701D01*
X84191Y80726D01*
X84206Y80754D01*
X84234Y80765D01*
X84271Y80854D01*
X84442Y81110D01*
X84520Y81500D01*
Y82500D01*
X84442Y82890D01*
X84271Y83145D01*
X84234Y83235D01*
X84206Y83246D01*
X84191Y83274D01*
X84159Y83299D01*
X84156Y83302D01*
X84144Y83321D01*
X84126Y83358D01*
X84105Y83416D01*
X84085Y83494D01*
X84068Y83585D01*
X84044Y83852D01*
X84041Y84008D01*
X84020Y84057D01*
Y84443D01*
X84041Y84492D01*
X84044Y84655D01*
X84053Y84790D01*
X84067Y84908D01*
X84085Y85006D01*
X84105Y85084D01*
X84126Y85142D01*
X84144Y85179D01*
X84156Y85198D01*
X84159Y85201D01*
X84191Y85227D01*
X84206Y85254D01*
X84234Y85265D01*
X84271Y85355D01*
X84442Y85610D01*
X84520Y86000D01*
Y87000D01*
X84442Y87390D01*
X84221Y87721D01*
X83890Y87942D01*
X83500Y88020D01*
X82500D01*
X82110Y87942D01*
X81854Y87771D01*
X81766Y87735D01*
X81754Y87706D01*
X81726Y87691D01*
X81701Y87659D01*
X81698Y87656D01*
X81679Y87644D01*
X81642Y87626D01*
X81584Y87606D01*
X81506Y87585D01*
X81415Y87568D01*
X81148Y87544D01*
X80992Y87541D01*
X80942Y87520D01*
X77557D01*
X77508Y87541D01*
X77345Y87544D01*
X77210Y87553D01*
X77092Y87567D01*
X76994Y87585D01*
X76916Y87606D01*
X76858Y87626D01*
X76821Y87644D01*
X76802Y87656D01*
X76799Y87659D01*
X76774Y87691D01*
X76746Y87706D01*
X76735Y87735D01*
X76645Y87771D01*
X76541Y87841D01*
X76541Y88000D01*
X76500Y88100D01*
X76442Y88390D01*
X76221Y88721D01*
X74721Y90221D01*
X74390Y90442D01*
X74000Y90520D01*
X72165D01*
X72116Y90541D01*
X71884Y90546D01*
X71791Y90553D01*
X71784Y90554D01*
X71736Y90602D01*
X71259Y90800D01*
X70741D01*
X70264Y90602D01*
X69898Y90236D01*
X69700Y89759D01*
Y89241D01*
X69898Y88764D01*
X70264Y88398D01*
X70351Y88362D01*
X70399Y87801D01*
X70279Y87721D01*
X70058Y87390D01*
X70039Y87292D01*
X69989Y87291D01*
X69929Y87265D01*
X68819D01*
X68763Y87291D01*
X68714Y87293D01*
X68690Y87296D01*
X68667Y87301D01*
X68643Y87309D01*
X68618Y87319D01*
X68591Y87333D01*
X68561Y87351D01*
X68529Y87375D01*
X68495Y87404D01*
X68446Y87450D01*
X68351Y87488D01*
X68236Y87602D01*
X67759Y87800D01*
X67241D01*
X66764Y87602D01*
X66398Y87236D01*
X66200Y86759D01*
Y86241D01*
X66398Y85764D01*
X66764Y85398D01*
X67241Y85200D01*
X67759D01*
X68236Y85398D01*
X68351Y85512D01*
X68446Y85549D01*
X68495Y85596D01*
X68529Y85625D01*
X68561Y85649D01*
X68591Y85667D01*
X68618Y85681D01*
X68643Y85691D01*
X68667Y85699D01*
X68690Y85704D01*
X68714Y85707D01*
X68763Y85709D01*
X68819Y85735D01*
X69929D01*
X69989Y85709D01*
X70039Y85708D01*
X70058Y85610D01*
X70279Y85279D01*
X70610Y85058D01*
X70708Y85039D01*
X70709Y84989D01*
X70735Y84929D01*
Y83817D01*
X69814Y82895D01*
X69805Y82902D01*
X69514Y82960D01*
X67644D01*
X67353Y82902D01*
X67345Y82896D01*
X67319Y82899D01*
X67210Y82814D01*
X67128Y82780D01*
X67125Y82781D01*
X67100Y82798D01*
X67073Y82819D01*
X67044Y82847D01*
X67000Y82894D01*
X66898Y82940D01*
X66736Y83102D01*
X66259Y83300D01*
X65741D01*
X65264Y83102D01*
X64898Y82736D01*
X64700Y82259D01*
Y81836D01*
X64585Y81690D01*
X64485Y81602D01*
X64273Y81465D01*
X64000Y81520D01*
X63000D01*
X62610Y81442D01*
X62520Y81382D01*
X62020Y81649D01*
Y85078D01*
X70221Y93279D01*
X70442Y93610D01*
X70520Y94000D01*
Y96578D01*
X71038Y97096D01*
X71500Y96905D01*
D02*
G37*
G36*
X43417Y55216D02*
X43484Y55212D01*
X43580Y55211D01*
X43598Y54711D01*
X43505Y54708D01*
X43443Y54704D01*
X43457Y54413D01*
X43392Y54469D01*
X43326Y54520D01*
X43260Y54565D01*
X43193Y54603D01*
X43146Y54626D01*
X43113Y54606D01*
X43075Y54573D01*
X43045Y54537D01*
X43024Y54496D01*
Y54673D01*
X42987Y54684D01*
X42917Y54699D01*
X42846Y54708D01*
X42774Y54711D01*
X42748Y55211D01*
X42821Y55214D01*
X42892Y55224D01*
X42962Y55239D01*
X43024Y55260D01*
Y55347D01*
X43039Y55321D01*
X43064Y55298D01*
X43084Y55285D01*
X43096Y55291D01*
X43161Y55326D01*
X43223Y55368D01*
X43285Y55416D01*
X43344Y55470D01*
X43402Y55531D01*
X43417Y55216D01*
D02*
G37*
G36*
X75003Y55822D02*
X75032Y55512D01*
X75056Y55377D01*
X75088Y55256D01*
X75127Y55148D01*
X75172Y55054D01*
X75225Y54973D01*
X75285Y54906D01*
X75352Y54852D01*
X73648D01*
X73715Y54906D01*
X73775Y54973D01*
X73828Y55054D01*
X73873Y55148D01*
X73912Y55256D01*
X73944Y55377D01*
X73968Y55512D01*
X73986Y55660D01*
X73997Y55822D01*
X74000Y55998D01*
X75000D01*
X75003Y55822D01*
D02*
G37*
G36*
X32253Y55168D02*
X32262Y55097D01*
X32278Y55027D01*
X32300Y54958D01*
X32327Y54890D01*
X32362Y54824D01*
X32402Y54759D01*
X32448Y54695D01*
X32501Y54633D01*
X32560Y54571D01*
X31440D01*
X31499Y54633D01*
X31552Y54695D01*
X31598Y54759D01*
X31638Y54824D01*
X31672Y54890D01*
X31700Y54958D01*
X31722Y55027D01*
X31738Y55097D01*
X31747Y55168D01*
X31750Y55240D01*
X32250D01*
X32253Y55168D01*
D02*
G37*
G36*
X87089Y56297D02*
X87303Y56182D01*
X87562Y56087D01*
X87864Y56014D01*
X88211Y55962D01*
X88603Y55931D01*
X89038Y55922D01*
X90043Y55967D01*
X90611Y56022D01*
X87471Y52182D01*
X87409Y52813D01*
X87105Y54793D01*
X87015Y55152D01*
X86920Y55457D01*
X86819Y55707D01*
X86713Y55904D01*
X86601Y56045D01*
X86919Y56435D01*
X87089Y56297D01*
D02*
G37*
G36*
X75285Y53094D02*
X75225Y53027D01*
X75172Y52946D01*
X75127Y52852D01*
X75088Y52744D01*
X75056Y52623D01*
X75032Y52488D01*
X75014Y52340D01*
X75003Y52178D01*
X75000Y52002D01*
X74000D01*
X73997Y52178D01*
X73968Y52488D01*
X73944Y52623D01*
X73912Y52744D01*
X73873Y52852D01*
X73828Y52946D01*
X73775Y53027D01*
X73715Y53094D01*
X73648Y53148D01*
X75352D01*
X75285Y53094D01*
D02*
G37*
G36*
X40192Y50023D02*
X40561Y49708D01*
X40724Y49594D01*
X40873Y49508D01*
X41007Y49450D01*
X41127Y49421D01*
X41232Y49420D01*
X41323Y49447D01*
X41399Y49503D01*
X40500Y48591D01*
X40527Y48507D01*
X40522Y48461D01*
X40486Y48452D01*
X40420Y48481D01*
X40321Y48546D01*
X40192Y48648D01*
X39841Y48964D01*
X39365Y49428D01*
X39985Y50222D01*
X40192Y50023D01*
D02*
G37*
G36*
X66448Y47581D02*
X66509Y47527D01*
X66571Y47479D01*
X66635Y47438D01*
X66700Y47403D01*
X66766Y47374D01*
X66807Y47361D01*
X66857Y47377D01*
X66900Y47396D01*
X66934Y47419D01*
X66960Y47444D01*
X66976Y47472D01*
Y47327D01*
X67048Y47324D01*
X67031Y46824D01*
X66976Y46821D01*
Y46622D01*
X66956Y46660D01*
X66927Y46695D01*
X66890Y46725D01*
X66844Y46751D01*
X66791Y46773D01*
X66766Y46781D01*
X66749Y46775D01*
X66680Y46748D01*
X66613Y46715D01*
X66546Y46676D01*
X66481Y46630D01*
X66416Y46579D01*
X66352Y46521D01*
X66390Y47641D01*
X66448Y47581D01*
D02*
G37*
G36*
X24653Y45796D02*
X24625Y45808D01*
X24579Y45819D01*
X24516Y45828D01*
X24333Y45843D01*
X23751Y45858D01*
X23560Y45859D01*
Y46858D01*
X23751Y46858D01*
X24625Y46909D01*
X24653Y46920D01*
Y45796D01*
D02*
G37*
G36*
X20207Y45000D02*
X20073Y44856D01*
X19952Y44705D01*
X19847Y44549D01*
X19755Y44388D01*
X19677Y44220D01*
X19613Y44046D01*
X19564Y43867D01*
X19528Y43681D01*
X19507Y43490D01*
X19500Y43293D01*
X18500D01*
X18493Y43490D01*
X18472Y43681D01*
X18436Y43867D01*
X18387Y44046D01*
X18323Y44220D01*
X18245Y44388D01*
X18154Y44549D01*
X18047Y44705D01*
X17927Y44856D01*
X17793Y45000D01*
X18293Y45914D01*
X18434Y45787D01*
X18576Y45688D01*
X18717Y45617D01*
X18859Y45575D01*
X19000Y45561D01*
X19141Y45575D01*
X19283Y45617D01*
X19424Y45688D01*
X19566Y45787D01*
X19707Y45914D01*
X20207Y45000D01*
D02*
G37*
G36*
X69942Y45294D02*
X69981Y45292D01*
X70074Y45289D01*
X70056Y44789D01*
X69961Y44788D01*
X69917Y44784D01*
X69902Y44469D01*
X69844Y44530D01*
X69785Y44584D01*
X69723Y44632D01*
X69661Y44674D01*
X69596Y44709D01*
X69570Y44721D01*
X69540Y44702D01*
X69516Y44679D01*
X69500Y44653D01*
Y44748D01*
X69462Y44761D01*
X69392Y44776D01*
X69321Y44786D01*
X69248Y44789D01*
X69274Y45289D01*
X69346Y45292D01*
X69417Y45301D01*
X69487Y45316D01*
X69500Y45320D01*
Y45504D01*
X69522Y45463D01*
X69551Y45427D01*
X69589Y45395D01*
X69633Y45368D01*
X69693Y45397D01*
X69760Y45435D01*
X69826Y45480D01*
X69892Y45531D01*
X69957Y45587D01*
X69942Y45294D01*
D02*
G37*
G36*
X76959Y60459D02*
X76959Y60459D01*
X77207Y60294D01*
X77500Y60235D01*
X81683D01*
X86164Y55755D01*
X86176Y55710D01*
X86259Y55605D01*
X86329Y55477D01*
X86410Y55275D01*
X86494Y55006D01*
X86574Y54686D01*
X86872Y52745D01*
X86932Y52129D01*
X86933Y52128D01*
X86932Y52128D01*
X86957Y52083D01*
Y51968D01*
X87232Y50939D01*
X87765Y50017D01*
X88517Y49265D01*
X89439Y48732D01*
X90468Y48457D01*
X91532D01*
X92561Y48732D01*
X93483Y49265D01*
X94225Y50006D01*
X94335Y50003D01*
X94725Y49898D01*
Y45101D01*
X94335Y44997D01*
X94225Y44994D01*
X93483Y45735D01*
X92561Y46268D01*
X91532Y46543D01*
X90468D01*
X89439Y46268D01*
X88517Y45735D01*
X87765Y44983D01*
X87232Y44061D01*
X86957Y43032D01*
Y41968D01*
X87232Y40939D01*
X87765Y40017D01*
X88517Y39265D01*
X89439Y38732D01*
X90468Y38457D01*
X91532D01*
X92561Y38732D01*
X93483Y39265D01*
X94225Y40006D01*
X94335Y40003D01*
X94725Y39898D01*
Y28166D01*
X94023Y27465D01*
X93982Y27452D01*
X93840Y27332D01*
X93683Y27233D01*
X93473Y27130D01*
X93211Y27030D01*
X92900Y26934D01*
X92550Y26847D01*
X91170Y26623D01*
X90627Y26567D01*
X90582Y26543D01*
X90468D01*
X89439Y26268D01*
X88517Y25735D01*
X87765Y24983D01*
X87232Y24061D01*
X86957Y23032D01*
Y22918D01*
X86933Y22873D01*
X86877Y22330D01*
X86653Y20950D01*
X86566Y20600D01*
X86470Y20289D01*
X86370Y20027D01*
X86268Y19817D01*
X86168Y19660D01*
X86048Y19518D01*
X86035Y19477D01*
X79779Y13221D01*
X79558Y12890D01*
X79480Y12500D01*
Y8922D01*
X74078Y3520D01*
X65434D01*
X65020Y4000D01*
Y4500D01*
X65020Y4500D01*
X65020Y4500D01*
Y5000D01*
X64942Y5390D01*
X64721Y5721D01*
X64390Y5942D01*
X64478Y6434D01*
X64832D01*
X65144Y6496D01*
X65408Y6673D01*
X65623D01*
X65888Y6496D01*
X66200Y6434D01*
X66800D01*
X67112Y6496D01*
X67377Y6673D01*
X67592D01*
X67856Y6496D01*
X68168Y6434D01*
X68769D01*
X69081Y6496D01*
X69345Y6673D01*
X69560D01*
X69825Y6496D01*
X70137Y6434D01*
X70737D01*
X71049Y6496D01*
X71314Y6673D01*
X71529D01*
X71793Y6496D01*
X72105Y6434D01*
X72706D01*
X73018Y6496D01*
X73282Y6673D01*
X73459Y6938D01*
X73521Y7250D01*
Y10450D01*
X73487Y10620D01*
X73554Y10732D01*
X73768Y10946D01*
X73880Y11013D01*
X74050Y10979D01*
X77250D01*
X77562Y11041D01*
X77827Y11218D01*
X78004Y11482D01*
X78066Y11795D01*
Y12394D01*
X78004Y12707D01*
X77866Y13079D01*
X78004Y13451D01*
X78066Y13763D01*
Y14363D01*
X78004Y14675D01*
X77866Y15047D01*
X78004Y15419D01*
X78066Y15732D01*
Y16331D01*
X78004Y16644D01*
X77866Y17016D01*
X78004Y17388D01*
X78066Y17700D01*
Y18300D01*
X78004Y18612D01*
X77866Y18984D01*
X78004Y19356D01*
X78066Y19669D01*
Y20268D01*
X78004Y20581D01*
X77866Y20953D01*
X78004Y21325D01*
X78066Y21637D01*
Y22237D01*
X78004Y22549D01*
X77866Y22921D01*
X78004Y23293D01*
X78066Y23606D01*
Y24205D01*
X78004Y24518D01*
X77827Y24782D01*
X77562Y24959D01*
X77250Y25021D01*
X74050D01*
X73880Y24987D01*
X73768Y25054D01*
X73554Y25268D01*
X73487Y25380D01*
X73521Y25550D01*
Y28750D01*
X73459Y29062D01*
X73282Y29327D01*
X73018Y29504D01*
X72706Y29566D01*
X72105D01*
X71793Y29504D01*
X71529Y29327D01*
X71314D01*
X71049Y29504D01*
X70737Y29566D01*
X70262D01*
X70086Y29633D01*
X69800Y30008D01*
Y30259D01*
X69602Y30736D01*
X69721Y31279D01*
X69942Y31610D01*
X70020Y32000D01*
Y32705D01*
X70020Y32706D01*
X70020Y32708D01*
Y32773D01*
X70027Y32790D01*
X70337Y33144D01*
X70351Y33147D01*
X70391Y33154D01*
X70436Y33158D01*
X70503Y33159D01*
X70597Y33200D01*
X70759D01*
X71236Y33398D01*
X71602Y33764D01*
X71800Y34241D01*
Y34759D01*
X71602Y35236D01*
X71236Y35602D01*
X70759Y35800D01*
X70241D01*
X69764Y35602D01*
X69398Y35236D01*
X69249Y34876D01*
X68749Y34975D01*
Y35232D01*
X68703Y35343D01*
X68736Y35898D01*
X69102Y36264D01*
X69300Y36741D01*
Y37259D01*
X69136Y37654D01*
X69263Y37969D01*
X69392Y38154D01*
X72173D01*
X72563Y38231D01*
X72894Y38452D01*
X75221Y40779D01*
X75442Y41110D01*
X75520Y41500D01*
Y51942D01*
X75541Y51992D01*
X75544Y52155D01*
X75553Y52290D01*
X75567Y52407D01*
X75585Y52506D01*
X75605Y52584D01*
X75626Y52642D01*
X75644Y52679D01*
X75656Y52698D01*
X75660Y52701D01*
X75691Y52727D01*
X75706Y52754D01*
X75735Y52766D01*
X75771Y52855D01*
X75942Y53110D01*
X76020Y53500D01*
Y54500D01*
X75942Y54890D01*
X75771Y55146D01*
X75735Y55234D01*
X75706Y55246D01*
X75691Y55273D01*
X75660Y55299D01*
X75656Y55302D01*
X75644Y55321D01*
X75626Y55358D01*
X75605Y55416D01*
X75585Y55494D01*
X75568Y55585D01*
X75544Y55852D01*
X75541Y56008D01*
X75520Y56058D01*
Y56942D01*
X75541Y56992D01*
X75544Y57155D01*
X75553Y57290D01*
X75567Y57407D01*
X75585Y57506D01*
X75605Y57584D01*
X75626Y57642D01*
X75644Y57679D01*
X75656Y57698D01*
X75660Y57701D01*
X75691Y57727D01*
X75706Y57754D01*
X75735Y57766D01*
X75771Y57854D01*
X75942Y58110D01*
X76020Y58500D01*
Y59500D01*
X75942Y59890D01*
X75771Y60145D01*
X75735Y60234D01*
X75706Y60246D01*
X75691Y60273D01*
X75660Y60299D01*
X75656Y60302D01*
X75644Y60321D01*
X75626Y60358D01*
X75605Y60416D01*
X75585Y60494D01*
X75568Y60585D01*
X75544Y60852D01*
X75541Y61008D01*
X75636Y61117D01*
X76271Y61147D01*
X76959Y60459D01*
D02*
G37*
G36*
X43042Y41534D02*
X43070Y41504D01*
X43106Y41478D01*
X43150Y41455D01*
X43203Y41436D01*
X43265Y41420D01*
X43335Y41407D01*
X43413Y41399D01*
X43596Y41392D01*
Y40892D01*
X43501Y40890D01*
X43335Y40876D01*
X43265Y40864D01*
X43203Y40848D01*
X43150Y40829D01*
X43106Y40806D01*
X43070Y40780D01*
X43042Y40750D01*
X43024Y40716D01*
Y41567D01*
X43042Y41534D01*
D02*
G37*
G36*
X30319Y40905D02*
X30360Y40863D01*
X30406Y40825D01*
X30457Y40793D01*
X30512Y40765D01*
X30573Y40743D01*
X30639Y40725D01*
X30710Y40713D01*
X30786Y40705D01*
X30867Y40703D01*
Y40203D01*
X30786Y40200D01*
X30710Y40193D01*
X30639Y40180D01*
X30573Y40163D01*
X30512Y40140D01*
X30457Y40113D01*
X30406Y40080D01*
X30360Y40043D01*
X30319Y40001D01*
X30283Y39953D01*
Y40952D01*
X30319Y40905D01*
D02*
G37*
G36*
X51929Y39440D02*
X51867Y39499D01*
X51805Y39552D01*
X51741Y39598D01*
X51676Y39638D01*
X51610Y39672D01*
X51542Y39700D01*
X51473Y39722D01*
X51403Y39738D01*
X51332Y39747D01*
X51260Y39750D01*
Y40250D01*
X51332Y40253D01*
X51403Y40262D01*
X51473Y40278D01*
X51542Y40300D01*
X51610Y40328D01*
X51676Y40362D01*
X51741Y40402D01*
X51805Y40448D01*
X51867Y40501D01*
X51929Y40560D01*
Y39440D01*
D02*
G37*
G36*
X63602Y39707D02*
X63609Y39625D01*
X63621Y39547D01*
X63639Y39473D01*
X63661Y39402D01*
X63689Y39334D01*
X63722Y39271D01*
X63761Y39210D01*
X63805Y39153D01*
X63854Y39100D01*
X63500Y38747D01*
X63447Y38795D01*
X63390Y38839D01*
X63329Y38878D01*
X63266Y38911D01*
X63198Y38939D01*
X63127Y38961D01*
X63053Y38979D01*
X62975Y38991D01*
X62893Y38998D01*
X62808Y39000D01*
X63600Y39792D01*
X63602Y39707D01*
D02*
G37*
G36*
X61823Y59735D02*
X62154Y59514D01*
X62544Y59436D01*
X64255D01*
X64298Y59415D01*
X64455Y59407D01*
X64553Y59390D01*
X64621Y59367D01*
X64664Y59344D01*
X64692Y59321D01*
X64715Y59293D01*
X64738Y59250D01*
X64761Y59182D01*
X64778Y59084D01*
X64786Y58927D01*
X64804Y58890D01*
X64796Y58850D01*
X64807Y58833D01*
Y57673D01*
X64885Y57283D01*
X65106Y56952D01*
X65172Y56886D01*
X64968Y56579D01*
X64890Y56189D01*
Y51570D01*
X64968Y51180D01*
X65080Y51011D01*
X63279Y49210D01*
X63058Y48879D01*
X62980Y48489D01*
Y42000D01*
X63058Y41610D01*
X63067Y41597D01*
X62797Y41100D01*
X62541D01*
X62064Y40902D01*
X61698Y40536D01*
X61500Y40059D01*
Y39541D01*
X61681Y39105D01*
X61673Y39008D01*
X61481Y38573D01*
X61353Y38547D01*
X61106Y38382D01*
X60705D01*
X60458Y38547D01*
X60167Y38605D01*
X59675D01*
X59384Y38547D01*
X59137Y38382D01*
X58737D01*
X58490Y38547D01*
X58199Y38605D01*
X57707D01*
X57416Y38547D01*
X57169Y38382D01*
X56768Y38382D01*
X56521Y38547D01*
X56230Y38605D01*
X55738D01*
X55447Y38547D01*
X55200Y38382D01*
X54800D01*
X54553Y38547D01*
X54262Y38605D01*
X53770D01*
X53621Y38576D01*
X53366Y39028D01*
X53602Y39264D01*
X53800Y39741D01*
Y40259D01*
X53602Y40736D01*
X53236Y41102D01*
X52759Y41300D01*
X52241D01*
X51764Y41102D01*
X51649Y40988D01*
X51554Y40951D01*
X51505Y40904D01*
X51471Y40875D01*
X51439Y40851D01*
X51409Y40833D01*
X51382Y40819D01*
X51357Y40809D01*
X51333Y40801D01*
X51310Y40796D01*
X51286Y40793D01*
X51237Y40791D01*
X51181Y40765D01*
X46317D01*
X45399Y41682D01*
X45151Y41848D01*
X44858Y41906D01*
X43674D01*
X43661Y41912D01*
X43587Y42022D01*
X43464Y42393D01*
X43474Y42463D01*
X43547Y42573D01*
X43605Y42864D01*
Y43356D01*
X43547Y43647D01*
X43382Y43894D01*
Y44295D01*
X43547Y44542D01*
X43605Y44833D01*
Y45325D01*
X43547Y45616D01*
X43382Y45863D01*
Y46263D01*
X43547Y46510D01*
X43605Y46801D01*
Y47293D01*
X43568Y47480D01*
X43758Y47833D01*
X43884Y47980D01*
X44500D01*
X44890Y48058D01*
X45221Y48279D01*
X46721Y49779D01*
X46942Y50110D01*
X47020Y50500D01*
Y57055D01*
X47945Y57980D01*
X59336D01*
X59726Y58058D01*
X60056Y58279D01*
X60642Y58865D01*
X60863Y59196D01*
X60941Y59586D01*
Y59910D01*
X61441Y60117D01*
X61823Y59735D01*
D02*
G37*
G36*
X64110Y38500D02*
X64124Y38335D01*
X64136Y38265D01*
X64152Y38203D01*
X64171Y38150D01*
X64194Y38106D01*
X64220Y38070D01*
X64250Y38042D01*
X64284Y38024D01*
X63433D01*
X63466Y38042D01*
X63496Y38070D01*
X63522Y38106D01*
X63545Y38150D01*
X63564Y38203D01*
X63580Y38265D01*
X63592Y38335D01*
X63601Y38413D01*
X63608Y38596D01*
X64108D01*
X64110Y38500D01*
D02*
G37*
G36*
X24564Y38000D02*
X24558Y38045D01*
X24541Y38085D01*
X24511Y38120D01*
X24471Y38150D01*
X24419Y38176D01*
X24355Y38197D01*
X24280Y38213D01*
X24193Y38225D01*
X24094Y38232D01*
X23984Y38234D01*
Y38734D01*
X24094Y38737D01*
X24280Y38755D01*
X24355Y38772D01*
X24419Y38793D01*
X24471Y38818D01*
X24511Y38849D01*
X24541Y38884D01*
X24558Y38924D01*
X24564Y38968D01*
Y38000D01*
D02*
G37*
G36*
X31755Y39155D02*
X31770Y39070D01*
X31795Y38995D01*
X31830Y38930D01*
X31875Y38875D01*
X31930Y38830D01*
X31995Y38795D01*
X32070Y38770D01*
X32155Y38755D01*
X32250Y38750D01*
Y38250D01*
X32155Y38245D01*
X32070Y38230D01*
X31995Y38205D01*
X31930Y38170D01*
X31875Y38125D01*
X31830Y38070D01*
X31795Y38005D01*
X31770Y37930D01*
X31755Y37845D01*
X31750Y37750D01*
X31250Y38500D01*
X31750Y39250D01*
X31755Y39155D01*
D02*
G37*
G36*
X67429Y36440D02*
X67367Y36499D01*
X67305Y36552D01*
X67241Y36598D01*
X67176Y36638D01*
X67110Y36672D01*
X67042Y36700D01*
X66973Y36722D01*
X66904Y36738D01*
X66832Y36747D01*
X66785Y36749D01*
X66729Y36748D01*
X66642Y36740D01*
X66565Y36727D01*
X66499Y36710D01*
X66442Y36687D01*
X66396Y36660D01*
X66360Y36628D01*
X66335Y36590D01*
X66319Y36547D01*
X66314Y36500D01*
Y37500D01*
X66319Y37453D01*
X66335Y37410D01*
X66360Y37372D01*
X66396Y37340D01*
X66442Y37312D01*
X66499Y37290D01*
X66565Y37273D01*
X66642Y37260D01*
X66729Y37253D01*
X66785Y37251D01*
X66832Y37253D01*
X66904Y37262D01*
X66973Y37278D01*
X67042Y37300D01*
X67110Y37328D01*
X67176Y37362D01*
X67241Y37402D01*
X67305Y37448D01*
X67367Y37501D01*
X67429Y37560D01*
Y36440D01*
D02*
G37*
G36*
X36353Y37505D02*
X36410Y37461D01*
X36471Y37422D01*
X36535Y37389D01*
X36602Y37361D01*
X36673Y37339D01*
X36747Y37321D01*
X36825Y37309D01*
X36907Y37302D01*
X36992Y37300D01*
X36200Y36508D01*
X36198Y36593D01*
X36191Y36675D01*
X36179Y36753D01*
X36162Y36827D01*
X36139Y36898D01*
X36111Y36966D01*
X36078Y37029D01*
X36039Y37090D01*
X35995Y37147D01*
X35947Y37200D01*
X36300Y37554D01*
X36353Y37505D01*
D02*
G37*
G36*
X30289Y36947D02*
X30307Y36906D01*
X30336Y36869D01*
X30377Y36838D01*
X30429Y36811D01*
X30494Y36789D01*
X30569Y36772D01*
X30657Y36760D01*
X30757Y36752D01*
X30867Y36750D01*
Y36250D01*
X30785Y36248D01*
X30707Y36241D01*
X30635Y36229D01*
X30568Y36213D01*
X30507Y36192D01*
X30451Y36166D01*
X30401Y36136D01*
X30356Y36100D01*
X30317Y36061D01*
X30283Y36016D01*
X30283Y36993D01*
X30289Y36947D01*
D02*
G37*
G36*
X53479Y34976D02*
X53770Y34918D01*
X54262D01*
X54553Y34976D01*
X54800Y35141D01*
X55200D01*
X55447Y34976D01*
X55738Y34918D01*
X56230D01*
X56521Y34976D01*
X56768Y35141D01*
X57169Y35141D01*
X57416Y34976D01*
X57707Y34918D01*
X58199D01*
X58490Y34976D01*
X58737Y35141D01*
X59137D01*
X59384Y34976D01*
X59675Y34918D01*
X60167D01*
X60458Y34976D01*
X60705Y35141D01*
X61106D01*
X61353Y34976D01*
X61644Y34918D01*
X62136D01*
X62427Y34976D01*
X62674Y35141D01*
X63074D01*
X63321Y34976D01*
X63612Y34918D01*
X64104D01*
X64395Y34976D01*
X64642Y35141D01*
X65043D01*
X65290Y34976D01*
X65522Y34930D01*
X65529Y34926D01*
X65657Y34745D01*
X65759Y34515D01*
X65513Y34068D01*
X65235Y33973D01*
X65000Y34020D01*
X64000D01*
X63610Y33942D01*
X63279Y33721D01*
X63058Y33390D01*
X62980Y33000D01*
Y32000D01*
X63058Y31610D01*
X63279Y31279D01*
X63610Y31058D01*
X63735Y31033D01*
Y29716D01*
X63506Y29543D01*
X63383Y29503D01*
X63268Y29483D01*
X63232Y29482D01*
X63175Y29504D01*
X62863Y29566D01*
X62263D01*
X61951Y29504D01*
X61941Y29497D01*
X61843Y29463D01*
X61693Y29493D01*
X61505Y29562D01*
X61359Y29669D01*
Y29906D01*
X61359Y29906D01*
X61301Y30198D01*
X61135Y30446D01*
X61135Y30446D01*
X59541Y32041D01*
X59293Y32206D01*
X59000Y32265D01*
X58319D01*
X58263Y32291D01*
X58214Y32293D01*
X58190Y32296D01*
X58167Y32301D01*
X58143Y32309D01*
X58118Y32319D01*
X58091Y32333D01*
X58061Y32351D01*
X58029Y32375D01*
X57995Y32404D01*
X57946Y32451D01*
X57851Y32488D01*
X57736Y32602D01*
X57259Y32800D01*
X56741D01*
X56264Y32602D01*
X55898Y32236D01*
X55700Y31759D01*
Y31241D01*
X55898Y30764D01*
X56264Y30398D01*
X56741Y30200D01*
X57259D01*
X57736Y30398D01*
X57851Y30512D01*
X57946Y30549D01*
X57995Y30596D01*
X58029Y30625D01*
X58061Y30649D01*
X58091Y30667D01*
X58118Y30681D01*
X58143Y30691D01*
X58167Y30699D01*
X58190Y30704D01*
X58214Y30707D01*
X58263Y30709D01*
X58319Y30735D01*
X58683D01*
X59607Y29812D01*
X59610Y29800D01*
X59665Y29566D01*
X59673Y29284D01*
X59662Y29243D01*
X59541Y29062D01*
X59479Y28750D01*
Y25550D01*
X59513Y25380D01*
X59446Y25268D01*
X59232Y25054D01*
X59120Y24987D01*
X58950Y25021D01*
X55750D01*
X55438Y24959D01*
X55173Y24782D01*
X54996Y24518D01*
X54934Y24205D01*
Y23606D01*
X54996Y23293D01*
X55134Y22921D01*
X54996Y22549D01*
X54934Y22237D01*
Y21637D01*
X54996Y21325D01*
X55173Y21060D01*
X55438Y20883D01*
X55750Y20821D01*
X58950D01*
X59262Y20883D01*
X59527Y21060D01*
X59704Y21325D01*
X59766Y21637D01*
Y22237D01*
X59704Y22549D01*
X59566Y22921D01*
X59704Y23293D01*
X59766Y23606D01*
Y24205D01*
X59732Y24375D01*
X59799Y24487D01*
X60013Y24701D01*
X60125Y24768D01*
X60295Y24734D01*
X60895D01*
X61207Y24796D01*
X61471Y24973D01*
X61686D01*
X61951Y24796D01*
X62263Y24734D01*
X62863D01*
X63175Y24796D01*
X63440Y24973D01*
X63919Y24796D01*
X64231Y24734D01*
X64832D01*
X65144Y24796D01*
X65623Y24973D01*
X65888Y24796D01*
X66200Y24734D01*
X66800D01*
X67112Y24796D01*
X67377Y24973D01*
X67592D01*
X67856Y24796D01*
X68168Y24734D01*
X68769D01*
X69081Y24796D01*
X69560Y24973D01*
X69825Y24796D01*
X70137Y24734D01*
X70737D01*
X71049Y24796D01*
X71314Y24973D01*
X71529D01*
X71793Y24796D01*
X72105Y24734D01*
X72706D01*
X72875Y24768D01*
X72988Y24701D01*
X73201Y24488D01*
X73268Y24375D01*
X73234Y24205D01*
Y23606D01*
X73296Y23293D01*
X73434Y22921D01*
X73296Y22549D01*
X73234Y22237D01*
Y21637D01*
X73296Y21325D01*
X73434Y20953D01*
X73296Y20581D01*
X73234Y20268D01*
Y19669D01*
X73296Y19356D01*
X73434Y18984D01*
X73296Y18612D01*
X73234Y18300D01*
Y17700D01*
X73296Y17388D01*
X73434Y17016D01*
X73296Y16644D01*
X73234Y16331D01*
Y15732D01*
X73296Y15419D01*
X73434Y15047D01*
X73296Y14675D01*
X73234Y14363D01*
Y13763D01*
X73296Y13451D01*
X73434Y13079D01*
X73296Y12707D01*
X73234Y12394D01*
Y11795D01*
X73268Y11625D01*
X73201Y11512D01*
X72988Y11299D01*
X72875Y11232D01*
X72706Y11266D01*
X72105D01*
X71793Y11204D01*
X71529Y11027D01*
X71314D01*
X71049Y11204D01*
X70737Y11266D01*
X70137D01*
X69825Y11204D01*
X69560Y11027D01*
X69345D01*
X69081Y11204D01*
X68769Y11266D01*
X68168D01*
X67856Y11204D01*
X67592Y11027D01*
X67377D01*
X67112Y11204D01*
X66800Y11266D01*
X66200D01*
X65888Y11204D01*
X65623Y11027D01*
X65408D01*
X65144Y11204D01*
X64832Y11266D01*
X64231D01*
X63919Y11204D01*
X63655Y11027D01*
X63440D01*
X63175Y11204D01*
X62863Y11266D01*
X62263D01*
X62137Y11241D01*
X61791Y11358D01*
X61584Y11559D01*
X61537Y11796D01*
X61315Y12127D01*
X60627Y12815D01*
X60627Y12815D01*
X60296Y13036D01*
X60059Y13083D01*
X59856Y13293D01*
X59741Y13637D01*
X59766Y13763D01*
Y14363D01*
X59704Y14675D01*
X59566Y15047D01*
X59704Y15419D01*
X59766Y15732D01*
Y16331D01*
X59704Y16644D01*
X59566Y17016D01*
X59704Y17388D01*
X59766Y17700D01*
Y18300D01*
X59704Y18612D01*
X59527Y18877D01*
X59262Y19054D01*
X58950Y19116D01*
X55750D01*
X55438Y19054D01*
X55257Y18932D01*
X55216Y18922D01*
X54951Y18883D01*
X54826Y18888D01*
X54673Y18908D01*
X54265Y19317D01*
Y30000D01*
X54265Y30000D01*
X54207Y30293D01*
X54041Y30541D01*
X50163Y34418D01*
X50291Y34814D01*
X50363Y34926D01*
X50616Y34976D01*
X50863Y35141D01*
X51263D01*
X51510Y34976D01*
X51801Y34918D01*
X52293D01*
X52584Y34976D01*
X52831Y35141D01*
X53232Y35141D01*
X53479Y34976D01*
D02*
G37*
G36*
X67327Y34183D02*
X67253Y34191D01*
X67180Y34193D01*
X67110Y34188D01*
X67042Y34176D01*
X66976Y34158D01*
X66912Y34133D01*
X66850Y34102D01*
X66790Y34064D01*
X66733Y34019D01*
X66677Y33968D01*
X66359Y34357D01*
X66410Y34412D01*
X66456Y34469D01*
X66497Y34529D01*
X66534Y34592D01*
X66566Y34657D01*
X66592Y34724D01*
X66614Y34795D01*
X66631Y34867D01*
X66643Y34943D01*
X66650Y35021D01*
X67327Y34183D01*
D02*
G37*
G36*
X30319Y34999D02*
X30360Y34957D01*
X30406Y34920D01*
X30457Y34887D01*
X30512Y34860D01*
X30573Y34837D01*
X30639Y34820D01*
X30710Y34807D01*
X30786Y34800D01*
X30867Y34797D01*
Y34297D01*
X30786Y34295D01*
X30710Y34287D01*
X30639Y34275D01*
X30573Y34257D01*
X30512Y34235D01*
X30457Y34207D01*
X30406Y34175D01*
X30360Y34138D01*
X30319Y34095D01*
X30283Y34048D01*
Y35047D01*
X30319Y34999D01*
D02*
G37*
G36*
X24559Y34048D02*
X24530Y34086D01*
X24494Y34121D01*
X24452Y34151D01*
X24405Y34177D01*
X24352Y34199D01*
X24293Y34218D01*
X24229Y34232D01*
X24158Y34242D01*
X24082Y34248D01*
X24000Y34250D01*
Y34750D01*
X24101Y34752D01*
X24270Y34770D01*
X24338Y34785D01*
X24396Y34805D01*
X24442Y34829D01*
X24478Y34857D01*
X24504Y34890D01*
X24518Y34927D01*
X24521Y34968D01*
X24559Y34048D01*
D02*
G37*
G36*
X70492Y33700D02*
X70407Y33698D01*
X70325Y33691D01*
X70247Y33679D01*
X70173Y33661D01*
X70102Y33639D01*
X70034Y33611D01*
X69971Y33578D01*
X69910Y33539D01*
X69853Y33495D01*
X69808Y33454D01*
X69732Y33375D01*
X69581Y33197D01*
X69527Y33118D01*
X69486Y33047D01*
X69458Y32982D01*
X69445Y32924D01*
Y32872D01*
X69458Y32828D01*
X69486Y32790D01*
X68790Y33486D01*
X68828Y33458D01*
X68872Y33445D01*
X68924D01*
X68982Y33458D01*
X69047Y33486D01*
X69118Y33527D01*
X69197Y33581D01*
X69282Y33650D01*
X69459Y33813D01*
X69495Y33853D01*
X69539Y33910D01*
X69578Y33971D01*
X69611Y34034D01*
X69639Y34102D01*
X69661Y34173D01*
X69679Y34247D01*
X69691Y34325D01*
X69698Y34407D01*
X69700Y34492D01*
X70492Y33700D01*
D02*
G37*
G36*
X41802Y32407D02*
X41809Y32325D01*
X41821Y32247D01*
X41838Y32173D01*
X41861Y32102D01*
X41889Y32035D01*
X41922Y31971D01*
X41961Y31910D01*
X42005Y31853D01*
X42053Y31800D01*
X41700Y31446D01*
X41647Y31495D01*
X41590Y31539D01*
X41529Y31578D01*
X41465Y31611D01*
X41398Y31639D01*
X41327Y31661D01*
X41253Y31679D01*
X41175Y31691D01*
X41093Y31698D01*
X41008Y31700D01*
X41800Y32492D01*
X41802Y32407D01*
D02*
G37*
G36*
X57633Y32001D02*
X57695Y31948D01*
X57759Y31902D01*
X57824Y31862D01*
X57890Y31828D01*
X57958Y31800D01*
X58027Y31778D01*
X58096Y31762D01*
X58168Y31753D01*
X58240Y31750D01*
Y31250D01*
X58168Y31247D01*
X58096Y31238D01*
X58027Y31222D01*
X57958Y31200D01*
X57890Y31172D01*
X57824Y31138D01*
X57759Y31098D01*
X57695Y31052D01*
X57633Y30999D01*
X57571Y30940D01*
Y32060D01*
X57633Y32001D01*
D02*
G37*
G36*
X68737Y29461D02*
X68740Y29424D01*
X69049Y29418D01*
X68989Y29358D01*
X68936Y29296D01*
X68888Y29234D01*
X68847Y29169D01*
X68824Y29125D01*
X68853Y29078D01*
X68889Y29033D01*
X68930Y28993D01*
X68976Y28958D01*
X68760Y28959D01*
X68747Y28899D01*
X68737Y28828D01*
X68734Y28755D01*
X68234Y28765D01*
X68231Y28837D01*
X68222Y28909D01*
X68210Y28962D01*
X67991Y28963D01*
X68037Y28969D01*
X68079Y28986D01*
X68115Y29015D01*
X68147Y29056D01*
X68167Y29094D01*
X68158Y29116D01*
X68124Y29182D01*
X68085Y29248D01*
X68039Y29313D01*
X67987Y29377D01*
X67929Y29440D01*
X68232Y29434D01*
X68234Y29544D01*
X68734D01*
X68737Y29461D01*
D02*
G37*
G36*
X64752Y29435D02*
X64760Y29337D01*
X64772Y29251D01*
X64789Y29177D01*
X64811Y29114D01*
X64838Y29063D01*
X64869Y29023D01*
X64906Y28995D01*
X64947Y28979D01*
X64993Y28974D01*
X64024Y28958D01*
X64067Y28991D01*
X64105Y29029D01*
X64139Y29074D01*
X64169Y29124D01*
X64193Y29180D01*
X64214Y29241D01*
X64230Y29308D01*
X64241Y29381D01*
X64248Y29460D01*
X64250Y29544D01*
X64750D01*
X64752Y29435D01*
D02*
G37*
G36*
X66752Y29431D02*
X66772Y29242D01*
X66789Y29166D01*
X66811Y29100D01*
X66838Y29047D01*
X66869Y29006D01*
X66906Y28976D01*
X66947Y28959D01*
X66993Y28953D01*
X66007D01*
X66053Y28959D01*
X66094Y28976D01*
X66131Y29006D01*
X66162Y29047D01*
X66189Y29100D01*
X66211Y29166D01*
X66228Y29242D01*
X66240Y29331D01*
X66248Y29431D01*
X66250Y29544D01*
X66750D01*
X66752Y29431D01*
D02*
G37*
G36*
X60847Y29431D02*
X60866Y29242D01*
X60883Y29166D01*
X60905Y29100D01*
X60932Y29047D01*
X60964Y29006D01*
X61000Y28976D01*
X61042Y28959D01*
X61088Y28953D01*
X60101D01*
X60147Y28959D01*
X60189Y28976D01*
X60225Y29006D01*
X60257Y29047D01*
X60284Y29100D01*
X60306Y29166D01*
X60323Y29242D01*
X60335Y29331D01*
X60342Y29431D01*
X60344Y29544D01*
X60844D01*
X60847Y29431D01*
D02*
G37*
G36*
X24653Y28080D02*
X24625Y28091D01*
X24579Y28102D01*
X24516Y28112D01*
X24333Y28127D01*
X23751Y28142D01*
X23560Y28142D01*
Y29141D01*
X23751Y29142D01*
X24625Y29192D01*
X24653Y29204D01*
Y28080D01*
D02*
G37*
G36*
X30232Y28001D02*
X30291Y27981D01*
X30365Y27963D01*
X30454Y27948D01*
X30680Y27924D01*
X30969Y27910D01*
X31319Y27905D01*
X31200Y26906D01*
X30189Y26899D01*
Y28023D01*
X30232Y28001D01*
D02*
G37*
G36*
X39944Y33283D02*
X39898Y33236D01*
X39700Y32759D01*
Y32241D01*
X39898Y31764D01*
X40264Y31398D01*
X40741Y31200D01*
X40903D01*
X40997Y31159D01*
X41064Y31158D01*
X41109Y31154D01*
X41149Y31148D01*
X41183Y31140D01*
X41211Y31130D01*
X41236Y31120D01*
X41259Y31108D01*
X41279Y31095D01*
X41298Y31081D01*
X41334Y31048D01*
X41392Y31027D01*
X41959Y30459D01*
X42207Y30294D01*
X42500Y30235D01*
X50683D01*
X51735Y29183D01*
Y26851D01*
X51235Y26700D01*
X51221Y26721D01*
X49721Y28221D01*
X49390Y28442D01*
X49000Y28520D01*
X47983D01*
X47935Y28541D01*
X47759Y28546D01*
X47624Y28557D01*
X47518Y28575D01*
X47445Y28594D01*
X47436Y28598D01*
X47358Y28991D01*
X47117Y29351D01*
X46756Y29592D01*
X46331Y29677D01*
X45150D01*
X44724Y29592D01*
X44363Y29351D01*
X44122Y28991D01*
X44038Y28565D01*
Y26246D01*
X44122Y25821D01*
X44308Y25542D01*
X44319Y25502D01*
X44345Y25487D01*
X44356Y25471D01*
X44364Y25451D01*
X44396Y25438D01*
X44634Y25279D01*
X44640Y25262D01*
X44661Y25169D01*
X44695Y24846D01*
X44699Y24644D01*
X44721Y24596D01*
Y24162D01*
X44078Y23520D01*
X39922D01*
X39279Y24162D01*
Y24596D01*
X39301Y24644D01*
X39305Y24854D01*
X39318Y25023D01*
X39337Y25160D01*
X39360Y25262D01*
X39366Y25279D01*
X39604Y25438D01*
X39636Y25451D01*
X39644Y25471D01*
X39655Y25487D01*
X39681Y25502D01*
X39692Y25542D01*
X39878Y25821D01*
X39962Y26246D01*
Y28565D01*
X39878Y28991D01*
X39637Y29351D01*
X39276Y29592D01*
X38850Y29677D01*
X37669D01*
X37244Y29592D01*
X36883Y29351D01*
X36642Y28991D01*
X36557Y28565D01*
Y28501D01*
X36555Y28500D01*
X36482Y28480D01*
X36376Y28463D01*
X36241Y28451D01*
X36065Y28446D01*
X36017Y28425D01*
X31415D01*
X31384Y28443D01*
X31355Y28435D01*
X31327Y28447D01*
X30986Y28451D01*
X30890Y28456D01*
Y28937D01*
X30828Y29247D01*
X30652Y29510D01*
Y29742D01*
X30828Y30005D01*
X30890Y30315D01*
Y30906D01*
X30828Y31216D01*
X30652Y31479D01*
Y31710D01*
X30828Y31973D01*
X30890Y32283D01*
Y32874D01*
X30828Y33184D01*
X30824Y33190D01*
X30776Y33335D01*
X30776Y33337D01*
X30779Y33348D01*
X30900Y33670D01*
X30977Y33776D01*
X30984Y33783D01*
X39737D01*
X39944Y33283D01*
D02*
G37*
G36*
X46919Y28405D02*
X46949Y28320D01*
X47000Y28245D01*
X47071Y28180D01*
X47162Y28125D01*
X47273Y28080D01*
X47405Y28045D01*
X47556Y28020D01*
X47728Y28005D01*
X47921Y28000D01*
Y27000D01*
X47728Y26995D01*
X47556Y26980D01*
X47405Y26955D01*
X47273Y26920D01*
X47162Y26875D01*
X47071Y26820D01*
X47000Y26755D01*
X46949Y26680D01*
X46919Y26595D01*
X46909Y26500D01*
Y28500D01*
X46919Y28405D01*
D02*
G37*
G36*
X37091Y26406D02*
X37081Y26500D01*
X37051Y26586D01*
X37000Y26660D01*
X36930Y26726D01*
X36838Y26781D01*
X36727Y26825D01*
X36595Y26860D01*
X36444Y26886D01*
X36272Y26901D01*
X36079Y26906D01*
Y27905D01*
X36272Y27911D01*
X36444Y27926D01*
X36595Y27951D01*
X36727Y27986D01*
X36838Y28030D01*
X36930Y28086D01*
X37000Y28150D01*
X37051Y28225D01*
X37081Y28310D01*
X37091Y28405D01*
Y26406D01*
D02*
G37*
G36*
X46640Y25822D02*
X46556Y25787D01*
X46482Y25728D01*
X46418Y25645D01*
X46363Y25539D01*
X46319Y25410D01*
X46285Y25257D01*
X46260Y25080D01*
X46245Y24880D01*
X46240Y24656D01*
X45240D01*
X45235Y24880D01*
X45196Y25257D01*
X45161Y25410D01*
X45117Y25539D01*
X45063Y25645D01*
X44998Y25728D01*
X44924Y25787D01*
X44841Y25822D01*
X44747Y25834D01*
X46733D01*
X46640Y25822D01*
D02*
G37*
G36*
X39159D02*
X39076Y25787D01*
X39002Y25728D01*
X38937Y25645D01*
X38883Y25539D01*
X38839Y25410D01*
X38804Y25257D01*
X38780Y25080D01*
X38765Y24880D01*
X38760Y24656D01*
X37760D01*
X37755Y24880D01*
X37715Y25257D01*
X37681Y25410D01*
X37637Y25539D01*
X37582Y25645D01*
X37518Y25728D01*
X37444Y25787D01*
X37360Y25822D01*
X37266Y25834D01*
X39253D01*
X39159Y25822D01*
D02*
G37*
G36*
X95110Y26403D02*
X94946Y26210D01*
X94805Y25981D01*
X94688Y25717D01*
X94594Y25419D01*
X94524Y25085D01*
X94476Y24716D01*
X94453Y24312D01*
X94452Y23873D01*
X94522Y22889D01*
X90650Y22850D01*
X90682Y26029D01*
X91241Y26086D01*
X92659Y26316D01*
X93045Y26412D01*
X93388Y26518D01*
X93689Y26634D01*
X93946Y26759D01*
X94160Y26894D01*
X94332Y27039D01*
X95110Y26403D01*
D02*
G37*
G36*
X90611Y18978D02*
X89627Y19048D01*
X89188Y19047D01*
X88784Y19024D01*
X88415Y18977D01*
X88081Y18906D01*
X87782Y18812D01*
X87519Y18695D01*
X87290Y18554D01*
X87097Y18390D01*
X86461Y19169D01*
X86606Y19340D01*
X86741Y19554D01*
X86866Y19811D01*
X86982Y20111D01*
X87088Y20455D01*
X87184Y20841D01*
X87414Y22259D01*
X87471Y22818D01*
X90650Y22850D01*
X90611Y18978D01*
D02*
G37*
G36*
X96224Y25813D02*
Y1020D01*
X74746D01*
X74697Y1520D01*
X74890Y1558D01*
X75221Y1779D01*
X81221Y7779D01*
X81442Y8110D01*
X81520Y8500D01*
Y12078D01*
X87401Y17959D01*
X87439Y17970D01*
X87442Y17975D01*
X87447Y17977D01*
X87609Y18115D01*
X87772Y18215D01*
X87974Y18305D01*
X88219Y18382D01*
X88505Y18442D01*
X88834Y18484D01*
X89204Y18506D01*
X89609Y18506D01*
X90573Y18438D01*
X90590Y18444D01*
X90606Y18437D01*
X90655Y18457D01*
X91532D01*
X92561Y18732D01*
X93483Y19264D01*
X94235Y20017D01*
X94768Y20939D01*
X95043Y21968D01*
Y22845D01*
X95063Y22894D01*
X95056Y22910D01*
X95062Y22927D01*
X94994Y23891D01*
X94994Y24296D01*
X95016Y24666D01*
X95058Y24995D01*
X95118Y25281D01*
X95195Y25526D01*
X95285Y25728D01*
X95385Y25891D01*
X95523Y26053D01*
X95650Y26104D01*
X95725Y26130D01*
X96224Y25813D01*
D02*
G37*
G36*
X55547Y17507D02*
X55541Y17553D01*
X55524Y17594D01*
X55494Y17631D01*
X55453Y17662D01*
X55400Y17689D01*
X55335Y17711D01*
X55258Y17728D01*
X55169Y17740D01*
X55069Y17748D01*
X54956Y17750D01*
Y18250D01*
X55069Y18252D01*
X55258Y18272D01*
X55335Y18289D01*
X55400Y18311D01*
X55453Y18338D01*
X55494Y18369D01*
X55524Y18406D01*
X55541Y18447D01*
X55547Y18493D01*
Y17507D01*
D02*
G37*
G36*
X55517Y15583D02*
X55513Y15629D01*
X55497Y15670D01*
X55470Y15707D01*
X55431Y15739D01*
X55380Y15765D01*
X55318Y15787D01*
X55245Y15804D01*
X55160Y15816D01*
X55064Y15824D01*
X54956Y15826D01*
Y16326D01*
X55042Y16328D01*
X55122Y16335D01*
X55195Y16345D01*
X55263Y16360D01*
X55325Y16379D01*
X55380Y16403D01*
X55430Y16431D01*
X55473Y16462D01*
X55511Y16499D01*
X55542Y16539D01*
X55517Y15583D01*
D02*
G37*
G36*
X46640Y14422D02*
X46556Y14387D01*
X46482Y14328D01*
X46418Y14245D01*
X46363Y14139D01*
X46319Y14010D01*
X46285Y13857D01*
X46260Y13680D01*
X46245Y13480D01*
X46240Y13256D01*
X45240D01*
X45235Y13480D01*
X45196Y13857D01*
X45161Y14010D01*
X45117Y14139D01*
X45063Y14245D01*
X44998Y14328D01*
X44924Y14387D01*
X44841Y14422D01*
X44747Y14434D01*
X46733D01*
X46640Y14422D01*
D02*
G37*
G36*
X59166Y12601D02*
X59189Y12599D01*
X59905Y12595D01*
Y11594D01*
X59158Y11587D01*
Y12602D01*
X59166Y12601D01*
D02*
G37*
G36*
X55638Y11523D02*
X55607Y11537D01*
X55559Y11549D01*
X55494Y11560D01*
X55309Y11577D01*
X54899Y11592D01*
X54537Y11594D01*
Y12595D01*
X54727Y12595D01*
X55607Y12652D01*
X55638Y12666D01*
Y11523D01*
D02*
G37*
G36*
X61102Y10658D02*
X60087D01*
X60088Y10666D01*
X60090Y10689D01*
X60094Y11406D01*
X61094D01*
X61102Y10658D01*
D02*
G37*
G36*
X46906Y11785D02*
X46973Y11725D01*
X47054Y11672D01*
X47148Y11627D01*
X47256Y11588D01*
X47377Y11556D01*
X47512Y11532D01*
X47660Y11514D01*
X47822Y11503D01*
X47998Y11500D01*
Y10500D01*
X47822Y10497D01*
X47512Y10468D01*
X47377Y10444D01*
X47256Y10412D01*
X47148Y10373D01*
X47054Y10328D01*
X46973Y10275D01*
X46906Y10215D01*
X46852Y10148D01*
Y11852D01*
X46906Y11785D01*
D02*
G37*
G36*
X46245Y12780D02*
X46260Y12587D01*
X46285Y12419D01*
X46319Y12274D01*
X46363Y12154D01*
X46418Y12058D01*
X46482Y11986D01*
X46556Y11939D01*
X46640Y11915D01*
X46733Y11917D01*
X45148Y11705D01*
Y10148D01*
X45094Y10215D01*
X45027Y10275D01*
X44946Y10328D01*
X44852Y10373D01*
X44744Y10412D01*
X44623Y10444D01*
X44488Y10468D01*
X44340Y10486D01*
X44178Y10497D01*
X44002Y10500D01*
Y11500D01*
X44178Y11503D01*
X44488Y11532D01*
X44623Y11556D01*
X44744Y11588D01*
X44852Y11627D01*
X44946Y11672D01*
X45027Y11725D01*
X45088Y11779D01*
X45112Y11835D01*
X45142Y11926D01*
X45168Y12030D01*
X45190Y12146D01*
X45222Y12415D01*
X45232Y12569D01*
X45240Y12913D01*
X46240Y12998D01*
X46245Y12780D01*
D02*
G37*
G36*
X42906Y11785D02*
X42973Y11725D01*
X43054Y11672D01*
X43148Y11627D01*
X43256Y11588D01*
X43377Y11556D01*
X43512Y11532D01*
X43660Y11514D01*
X43822Y11503D01*
X43998Y11500D01*
Y10500D01*
X43822Y10497D01*
X43512Y10468D01*
X43377Y10444D01*
X43256Y10412D01*
X43148Y10373D01*
X43054Y10328D01*
X42973Y10275D01*
X42906Y10215D01*
X42852Y10148D01*
Y11852D01*
X42906Y11785D01*
D02*
G37*
G36*
X61152Y7108D02*
X61140Y7062D01*
X61129Y6999D01*
X61120Y6920D01*
X61101Y6582D01*
X61094Y6095D01*
X60223D01*
X60948Y5741D01*
X60799Y5587D01*
X60569Y5319D01*
X60488Y5205D01*
X60431Y5105D01*
X60396Y5018D01*
X60384Y4944D01*
X60395Y4884D01*
X60429Y4837D01*
X60486Y4804D01*
X58810Y5460D01*
X58921Y5487D01*
X59034Y5525D01*
X59149Y5573D01*
X59265Y5632D01*
X59383Y5701D01*
X59503Y5781D01*
X59747Y5972D01*
X59871Y6083D01*
X59998Y6205D01*
X60094Y6157D01*
X60094Y6273D01*
X60049Y7062D01*
X60037Y7108D01*
X60023Y7138D01*
X61166D01*
X61152Y7108D01*
D02*
G37*
G36*
X63121Y7107D02*
X63109Y7060D01*
X63098Y6994D01*
X63081Y6809D01*
X63066Y6399D01*
X63064Y6144D01*
X63147Y6062D01*
X63750Y5535D01*
X63806Y5503D01*
X63850Y5486D01*
X63881Y5486D01*
X62534Y5097D01*
X62553Y5108D01*
X62561Y5128D01*
X62558Y5156D01*
X62542Y5192D01*
X62516Y5237D01*
X62478Y5289D01*
X62428Y5350D01*
X62294Y5497D01*
X62209Y5584D01*
X62789Y6037D01*
X62063D01*
X62062Y6227D01*
X62005Y7107D01*
X61992Y7138D01*
X63134D01*
X63121Y7107D01*
D02*
G37*
%LPC*%
G36*
X44000Y89020D02*
X43000D01*
X42610Y88942D01*
X42279Y88721D01*
X42058Y88390D01*
X41980Y88000D01*
Y87295D01*
X41980Y87294D01*
X41980Y87292D01*
Y87227D01*
X41973Y87210D01*
X41980Y87192D01*
Y87123D01*
X41867Y86989D01*
X41783Y86902D01*
X41759Y86841D01*
X41699Y86781D01*
X41534Y86533D01*
X41475Y86240D01*
Y85977D01*
X41453Y85926D01*
X41305D01*
X40745Y85814D01*
X40271Y85497D01*
X39953Y85022D01*
X39842Y84463D01*
Y82396D01*
X39953Y81836D01*
X40271Y81361D01*
X40745Y81044D01*
X41305Y80932D01*
X43175D01*
X43735Y81044D01*
X44210Y81361D01*
X44527Y81836D01*
X44638Y82396D01*
Y84463D01*
X44527Y85022D01*
X44210Y85497D01*
X44192Y85509D01*
X44298Y86040D01*
X44390Y86058D01*
X44721Y86279D01*
X44942Y86610D01*
X45020Y87000D01*
Y88000D01*
X44942Y88390D01*
X44721Y88721D01*
X44390Y88942D01*
X44000Y89020D01*
D02*
G37*
G36*
X8200Y73029D02*
X5800D01*
X5215Y72913D01*
X4719Y72581D01*
X4387Y72085D01*
X4271Y71500D01*
Y69500D01*
X4387Y68915D01*
X4719Y68419D01*
X5215Y68087D01*
X5800Y67971D01*
X8200D01*
X8785Y68087D01*
X9281Y68419D01*
X9613Y68915D01*
X9729Y69500D01*
Y71500D01*
X9613Y72085D01*
X9281Y72581D01*
X8785Y72913D01*
X8200Y73029D01*
D02*
G37*
G36*
X26200Y86029D02*
X23800D01*
X23215Y85913D01*
X22719Y85581D01*
X22387Y85085D01*
X22271Y84500D01*
Y82500D01*
X22387Y81915D01*
X22719Y81419D01*
X23215Y81087D01*
X23800Y80971D01*
X24213D01*
X24235Y80919D01*
Y78500D01*
X24294Y78207D01*
X24459Y77959D01*
X27735Y74683D01*
Y63319D01*
X27709Y63263D01*
X27707Y63214D01*
X27704Y63190D01*
X27699Y63167D01*
X27691Y63143D01*
X27681Y63118D01*
X27667Y63091D01*
X27649Y63061D01*
X27625Y63029D01*
X27596Y62995D01*
X27549Y62946D01*
X27512Y62851D01*
X27398Y62736D01*
X27200Y62259D01*
Y61741D01*
X27398Y61264D01*
X27764Y60898D01*
X28241Y60700D01*
X28759D01*
X29236Y60898D01*
X29602Y61264D01*
X29800Y61741D01*
Y62259D01*
X29602Y62736D01*
X29488Y62851D01*
X29451Y62946D01*
X29404Y62995D01*
X29375Y63029D01*
X29351Y63061D01*
X29333Y63091D01*
X29319Y63118D01*
X29309Y63143D01*
X29301Y63167D01*
X29296Y63190D01*
X29293Y63214D01*
X29291Y63263D01*
X29265Y63319D01*
Y75000D01*
X29206Y75293D01*
X29041Y75541D01*
X25765Y78817D01*
Y80919D01*
X25787Y80971D01*
X26200D01*
X26785Y81087D01*
X27281Y81419D01*
X27613Y81915D01*
X27729Y82500D01*
Y84500D01*
X27613Y85085D01*
X27281Y85581D01*
X26785Y85913D01*
X26200Y86029D01*
D02*
G37*
G36*
X38850Y18277D02*
X37669D01*
X37244Y18192D01*
X36883Y17951D01*
X36642Y17591D01*
X36557Y17165D01*
Y14846D01*
X36642Y14421D01*
X36883Y14060D01*
X37244Y13819D01*
X37468Y13774D01*
X37469Y13742D01*
X37495Y13683D01*
Y12570D01*
X37470Y12514D01*
X37110Y12442D01*
X36779Y12221D01*
X36558Y11890D01*
X36480Y11500D01*
Y10500D01*
X36558Y10110D01*
X36779Y9779D01*
X37110Y9558D01*
X37500Y9480D01*
X38500D01*
X38890Y9558D01*
X39221Y9779D01*
X39442Y10110D01*
X39520Y10500D01*
Y11500D01*
X39442Y11890D01*
X39221Y12221D01*
X39063Y12327D01*
X39053Y12421D01*
X39051Y12508D01*
X39024Y12567D01*
Y13683D01*
X39051Y13742D01*
X39052Y13774D01*
X39276Y13819D01*
X39637Y14060D01*
X39878Y14421D01*
X39962Y14846D01*
Y17165D01*
X39878Y17591D01*
X39637Y17951D01*
X39276Y18192D01*
X38850Y18277D01*
D02*
G37*
%LPD*%
G36*
X43210Y86514D02*
X43172Y86542D01*
X43128Y86555D01*
X43076D01*
X43018Y86542D01*
X42953Y86514D01*
X42882Y86473D01*
X42803Y86419D01*
X42718Y86350D01*
X42526Y86173D01*
X42173Y86526D01*
X42268Y86625D01*
X42419Y86803D01*
X42473Y86882D01*
X42514Y86953D01*
X42542Y87018D01*
X42555Y87076D01*
Y87128D01*
X42542Y87172D01*
X42515Y87210D01*
X43210Y86514D01*
D02*
G37*
G36*
X42493Y85806D02*
X42500Y85719D01*
X42513Y85643D01*
X42530Y85576D01*
X42553Y85520D01*
X42580Y85474D01*
X42613Y85438D01*
X42650Y85412D01*
X42693Y85397D01*
X42740Y85392D01*
X41740D01*
X41788Y85397D01*
X41830Y85412D01*
X41868Y85438D01*
X41900Y85474D01*
X41928Y85520D01*
X41950Y85576D01*
X41968Y85643D01*
X41980Y85719D01*
X41988Y85806D01*
X41990Y85904D01*
X42490D01*
X42493Y85806D01*
D02*
G37*
G36*
X25453Y81499D02*
X25410Y81484D01*
X25372Y81459D01*
X25340Y81423D01*
X25313Y81377D01*
X25290Y81320D01*
X25273Y81254D01*
X25260Y81177D01*
X25253Y81090D01*
X25250Y80993D01*
X24750D01*
X24747Y81090D01*
X24740Y81177D01*
X24727Y81254D01*
X24710Y81320D01*
X24688Y81377D01*
X24660Y81423D01*
X24627Y81459D01*
X24590Y81484D01*
X24547Y81499D01*
X24500Y81505D01*
X25500D01*
X25453Y81499D01*
D02*
G37*
G36*
X28753Y63168D02*
X28762Y63096D01*
X28778Y63027D01*
X28800Y62958D01*
X28828Y62890D01*
X28862Y62824D01*
X28902Y62759D01*
X28948Y62695D01*
X29001Y62633D01*
X29060Y62571D01*
X27940D01*
X27999Y62633D01*
X28052Y62695D01*
X28098Y62759D01*
X28138Y62824D01*
X28172Y62890D01*
X28200Y62958D01*
X28222Y63027D01*
X28238Y63096D01*
X28247Y63168D01*
X28250Y63240D01*
X28750D01*
X28753Y63168D01*
D02*
G37*
G36*
X38712Y14263D02*
X38670Y14248D01*
X38632Y14222D01*
X38600Y14186D01*
X38572Y14140D01*
X38550Y14084D01*
X38532Y14017D01*
X38520Y13940D01*
X38512Y13853D01*
X38510Y13756D01*
X38010D01*
X38007Y13853D01*
X38000Y13940D01*
X37987Y14017D01*
X37970Y14084D01*
X37947Y14140D01*
X37920Y14186D01*
X37887Y14222D01*
X37850Y14248D01*
X37807Y14263D01*
X37760Y14268D01*
X38760D01*
X38712Y14263D01*
D02*
G37*
G36*
X38510Y12496D02*
X38512Y12387D01*
X38532Y12202D01*
X38549Y12126D01*
X38571Y12061D01*
X38597Y12008D01*
X38629Y11965D01*
X38666Y11934D01*
X38707Y11913D01*
X38753Y11903D01*
X37760Y11986D01*
X37807Y11987D01*
X37850Y11999D01*
X37887Y12023D01*
X37920Y12058D01*
X37947Y12103D01*
X37970Y12160D01*
X37987Y12228D01*
X38000Y12307D01*
X38007Y12397D01*
X38010Y12498D01*
X38510Y12496D01*
D02*
G37*
%LPC*%
G36*
X82259Y74800D02*
X81741D01*
X81264Y74602D01*
X80898Y74236D01*
X80700Y73759D01*
Y73241D01*
X80898Y72764D01*
X81264Y72398D01*
X81741Y72200D01*
X81903D01*
X81997Y72159D01*
X82064Y72158D01*
X82109Y72154D01*
X82149Y72148D01*
X82183Y72140D01*
X82211Y72130D01*
X82236Y72120D01*
X82259Y72108D01*
X82279Y72096D01*
X82298Y72081D01*
X82334Y72048D01*
X82392Y72027D01*
X87101Y67318D01*
X87349Y67152D01*
X87642Y67094D01*
X90272D01*
X90323Y67071D01*
Y66972D01*
X90431Y66432D01*
X90737Y65973D01*
X91195Y65667D01*
X91736Y65560D01*
X96264D01*
X96804Y65667D01*
X97263Y65973D01*
X97569Y66432D01*
X97677Y66972D01*
Y68744D01*
X97569Y69285D01*
X97263Y69743D01*
X96804Y70050D01*
X96264Y70157D01*
X91736D01*
X91195Y70050D01*
X90737Y69743D01*
X90431Y69285D01*
X90323Y68744D01*
Y68646D01*
X90272Y68623D01*
X87959D01*
X83473Y73108D01*
X83452Y73166D01*
X83419Y73202D01*
X83404Y73221D01*
X83392Y73241D01*
X83380Y73264D01*
X83370Y73289D01*
X83360Y73318D01*
X83353Y73351D01*
X83346Y73391D01*
X83342Y73436D01*
X83341Y73503D01*
X83300Y73597D01*
Y73759D01*
X83102Y74236D01*
X82736Y74602D01*
X82259Y74800D01*
D02*
G37*
%LPD*%
G36*
X82802Y73407D02*
X82809Y73325D01*
X82821Y73247D01*
X82838Y73173D01*
X82861Y73102D01*
X82889Y73035D01*
X82922Y72971D01*
X82961Y72910D01*
X83005Y72853D01*
X83053Y72800D01*
X82700Y72447D01*
X82647Y72495D01*
X82590Y72539D01*
X82529Y72578D01*
X82465Y72611D01*
X82398Y72639D01*
X82327Y72662D01*
X82253Y72679D01*
X82175Y72691D01*
X82093Y72698D01*
X82008Y72700D01*
X82800Y73492D01*
X82802Y73407D01*
D02*
G37*
G36*
X90857Y67358D02*
X90852Y67406D01*
X90837Y67448D01*
X90811Y67486D01*
X90775Y67518D01*
X90729Y67546D01*
X90673Y67568D01*
X90606Y67586D01*
X90530Y67598D01*
X90443Y67606D01*
X90345Y67608D01*
Y68108D01*
X90443Y68111D01*
X90530Y68118D01*
X90606Y68131D01*
X90673Y68148D01*
X90729Y68171D01*
X90775Y68198D01*
X90811Y68231D01*
X90837Y68268D01*
X90852Y68311D01*
X90857Y68358D01*
Y67358D01*
D02*
G37*
D10*
X68500Y76000D02*
X69500D01*
X19000Y30500D02*
Y44500D01*
X20858Y28642D02*
X27421D01*
X19000Y44500D02*
X20858Y46358D01*
X19000Y30500D02*
X20858Y28642D01*
X20858Y46358D02*
X27421D01*
X46000Y57477D02*
X47523Y59000D01*
X44500Y49000D02*
X46000Y50500D01*
Y57477D01*
X87500Y63500D02*
X95744Y55256D01*
Y27744D02*
Y55256D01*
X80500Y12500D02*
X95744Y27744D01*
X78421Y63500D02*
Y71500D01*
X73500Y101000D02*
X76500D01*
X69500Y97000D02*
X73500Y101000D01*
X61000Y85500D02*
X69500Y94000D01*
Y97000D01*
X61000Y68000D02*
Y85500D01*
X78421Y75984D02*
X78421Y75984D01*
Y78016D01*
X71000Y71500D02*
Y74500D01*
X69500Y76000D02*
X71000Y74500D01*
X64000Y42000D02*
Y48489D01*
X66827Y39173D02*
X72173D01*
X64000Y42000D02*
X66827Y39173D01*
X61000Y68000D02*
X63858Y65142D01*
Y63238D02*
Y65142D01*
X71000Y89500D02*
X74000D01*
X75500Y88000D01*
X58500Y92500D02*
X61500Y89500D01*
X58500Y92500D02*
Y95516D01*
X53622Y100394D02*
X58500Y95516D01*
X75500Y86500D02*
Y88000D01*
X47523Y59000D02*
X59336D01*
X64000Y48489D02*
X66495Y50984D01*
X59921Y59586D02*
Y63238D01*
X65827Y57673D02*
X66610Y56890D01*
X59921Y63238D02*
X61890D01*
X41762Y49016D02*
X41770Y49008D01*
X65909Y56189D02*
X66610Y56890D01*
X61890Y61110D02*
Y63238D01*
X65827Y57673D02*
Y60456D01*
X42750Y49008D02*
X42758Y49000D01*
X44500D01*
X62544Y60456D02*
X65827D01*
X41770Y49008D02*
X42750Y49008D01*
X59336Y59000D02*
X59921Y59586D01*
X66610Y56890D02*
X68238D01*
X61890Y61110D02*
X62544Y60456D01*
X65909Y51570D02*
X66495Y50984D01*
X65909Y51570D02*
Y56189D01*
X65827Y60456D02*
Y63238D01*
X66495Y50984D02*
X68238D01*
X44500Y22500D02*
X45740Y23740D01*
Y27406D01*
X39500Y22500D02*
X44500D01*
X38260Y23740D02*
X39500Y22500D01*
X38260Y23740D02*
Y27406D01*
X27421D02*
X38260D01*
X38500Y51000D02*
Y64500D01*
X38500Y64500D01*
Y64500D01*
X38500Y51000D02*
X40484Y49016D01*
X38500Y64500D02*
X41500Y67500D01*
X49000Y27500D02*
X50500Y26000D01*
Y15500D02*
X53905Y12094D01*
X50500Y15500D02*
Y26000D01*
X74500Y41500D02*
Y54000D01*
X72173Y39173D02*
X74500Y41500D01*
Y54000D02*
X74500Y54000D01*
Y59000D01*
Y63500D01*
X78421Y71500D02*
Y75984D01*
X75000Y71500D02*
X78421D01*
X78421Y71500D01*
X75500Y86500D02*
X83000D01*
Y82000D02*
Y86500D01*
Y79000D02*
Y82000D01*
X82016Y78016D02*
X83000Y79000D01*
X78421Y78016D02*
X82016D01*
X78500Y63500D02*
X87500D01*
X40484Y49016D02*
X41762D01*
X74500Y2500D02*
X80500Y8500D01*
Y12500D01*
X56500Y2500D02*
X74500D01*
X46000Y11000D02*
X48000D01*
X56500Y2500D01*
X63500Y4500D02*
Y5000D01*
X59500Y4500D02*
Y5000D01*
X62563Y5937D02*
Y8850D01*
Y5937D02*
X63500Y5000D01*
X60594Y8850D02*
Y11406D01*
Y6095D02*
Y8850D01*
X59500Y5000D02*
X60594Y6095D01*
X57350Y12094D02*
X59905Y12094D01*
X62563Y8850D02*
X62579Y8834D01*
X59905Y12094D02*
X60594Y11406D01*
X64000Y4500D02*
X64000Y4500D01*
X53905Y12094D02*
X57350D01*
X45740Y11260D02*
Y16005D01*
Y11260D02*
X46000Y11000D01*
X42000Y11000D02*
X46000D01*
X46000Y11000D01*
X45835Y27500D02*
X49000D01*
X14500Y49000D02*
Y76000D01*
X7000Y83500D02*
X14500Y76000D01*
Y49000D02*
X19000Y44500D01*
D18*
X27421Y50689D02*
D03*
Y49508D02*
D03*
Y47539D02*
D03*
Y46358D02*
D03*
Y44390D02*
D03*
Y42421D02*
D03*
Y40453D02*
D03*
Y38484D02*
D03*
Y36516D02*
D03*
Y34547D02*
D03*
Y32579D02*
D03*
Y30610D02*
D03*
Y28642D02*
D03*
Y27461D02*
D03*
Y25492D02*
D03*
Y24311D02*
D03*
D19*
X96591Y101000D02*
D03*
X76500D02*
D03*
D20*
X78421Y75984D02*
D03*
X78421Y78016D02*
D03*
Y79984D02*
D03*
X78421Y81953D02*
D03*
X68579Y76047D02*
D03*
X68579Y78016D02*
D03*
X68579Y81953D02*
D03*
X68579Y79984D02*
D03*
D21*
X73500Y79000D02*
D03*
D22*
X68238Y60827D02*
D03*
Y58858D02*
D03*
X68238Y56890D02*
D03*
Y54921D02*
D03*
Y52953D02*
D03*
X68238Y50984D02*
D03*
Y49016D02*
D03*
Y47047D02*
D03*
Y45079D02*
D03*
Y43110D02*
D03*
X68238Y41142D02*
D03*
Y39173D02*
D03*
X41762D02*
D03*
Y41142D02*
D03*
Y43110D02*
D03*
Y45079D02*
D03*
Y47047D02*
D03*
X41762Y49016D02*
D03*
Y50984D02*
D03*
X41762Y52953D02*
D03*
Y54921D02*
D03*
Y56890D02*
D03*
Y58858D02*
D03*
Y60827D02*
D03*
D23*
X65827Y36762D02*
D03*
X63858D02*
D03*
X61890D02*
D03*
X59921D02*
D03*
X57953D02*
D03*
X55984Y36762D02*
D03*
X54016D02*
D03*
X52047Y36762D02*
D03*
X50079D02*
D03*
X48110D02*
D03*
X46142D02*
D03*
X44173D02*
D03*
Y63238D02*
D03*
X46142D02*
D03*
X48110Y63238D02*
D03*
X50079D02*
D03*
X52047D02*
D03*
X54016D02*
D03*
X55984D02*
D03*
X57953Y63238D02*
D03*
X59921D02*
D03*
X61890D02*
D03*
X63858Y63238D02*
D03*
X65827D02*
D03*
D24*
X55000Y50000D02*
D03*
D25*
X57350Y23905D02*
D03*
Y21937D02*
D03*
X57350Y19969D02*
D03*
Y18000D02*
D03*
Y16032D02*
D03*
X57350Y14063D02*
D03*
Y12094D02*
D03*
X75650Y12094D02*
D03*
Y14063D02*
D03*
Y16032D02*
D03*
Y18000D02*
D03*
Y19969D02*
D03*
Y21937D02*
D03*
Y23905D02*
D03*
D26*
X60594Y8850D02*
D03*
X62563D02*
D03*
X64531D02*
D03*
X66500D02*
D03*
X68468D02*
D03*
X70437D02*
D03*
X72405D02*
D03*
X72405Y27150D02*
D03*
X70437D02*
D03*
X68468Y27150D02*
D03*
X66500D02*
D03*
X64531Y27150D02*
D03*
X62563Y27150D02*
D03*
X60594D02*
D03*
D27*
X66500Y18000D02*
D03*
D28*
X47500Y87500D02*
D03*
X43500D02*
D03*
X43500Y71500D02*
D03*
X47500D02*
D03*
X63500Y4500D02*
D03*
X59500D02*
D03*
X74500Y63500D02*
D03*
X78500D02*
D03*
X74500Y59000D02*
D03*
X78500D02*
D03*
X74500Y54000D02*
D03*
X78500D02*
D03*
X64500Y32500D02*
D03*
X68500D02*
D03*
X45500Y67500D02*
D03*
X41500D02*
D03*
X54000D02*
D03*
X50000D02*
D03*
X83000Y86500D02*
D03*
X87000D02*
D03*
X83000Y82000D02*
D03*
X87000D02*
D03*
X75500Y86500D02*
D03*
X71500D02*
D03*
X75000Y71500D02*
D03*
X71000Y71500D02*
D03*
D29*
X52500Y74571D02*
D03*
X48760Y83429D02*
D03*
X56240Y83429D02*
D03*
X38500Y74571D02*
D03*
X34760Y83429D02*
D03*
X42240Y83429D02*
D03*
D30*
X38260Y27406D02*
D03*
X42000D02*
D03*
X45740D02*
D03*
X45740Y16005D02*
D03*
X38260Y16005D02*
D03*
D31*
X46000Y11000D02*
D03*
Y7000D02*
D03*
X42000Y11000D02*
D03*
Y7000D02*
D03*
X38000Y11000D02*
D03*
Y7000D02*
D03*
X63500Y80000D02*
D03*
Y84000D02*
D03*
D32*
X7000Y83500D02*
D03*
Y70500D02*
D03*
X25000D02*
D03*
Y83500D02*
D03*
D33*
X94000Y84000D02*
D03*
Y67858D02*
D03*
D56*
X41500Y61069D02*
Y62500D01*
X24000Y34500D02*
X27374D01*
X23000Y37500D02*
X23984Y38484D01*
X27437Y36500D02*
X31000D01*
X35000Y38500D02*
X37000Y36500D01*
X23000Y35500D02*
X24000Y34500D01*
X31000Y36500D02*
X31500Y37000D01*
Y38500D02*
Y40000D01*
Y37000D02*
Y38500D01*
X23000Y35500D02*
Y37500D01*
X31047Y40453D02*
X31500Y40000D01*
X23984Y38484D02*
X27421D01*
Y40453D02*
X31047D01*
X31500Y38500D02*
X35000D01*
X67500Y86500D02*
X71500D01*
X77500Y61000D02*
X82000D01*
X90500Y52500D01*
X66047Y81953D02*
X68579D01*
X68687Y82061D01*
X67000Y78000D02*
X68500D01*
X65500Y68851D02*
Y76500D01*
X67000Y78000D01*
X68687Y82061D02*
X70061D01*
X71500Y83500D01*
X62800Y68851D02*
Y74300D01*
X63500Y75000D02*
Y80000D01*
X62800Y74300D02*
X63500Y75000D01*
X64231Y80000D02*
X68563D01*
X64000Y79769D02*
X64231Y80000D01*
X68563D02*
X68579Y79984D01*
X64000Y79500D02*
Y79769D01*
X68000Y71500D02*
X71000D01*
X62800Y39800D02*
X63858Y38742D01*
Y36762D02*
Y38742D01*
X59000Y71500D02*
Y86500D01*
X55500Y90000D02*
X59000Y86500D01*
X47500Y90000D02*
X55500D01*
X43622Y93878D02*
Y100394D01*
Y93878D02*
X47500Y90000D01*
X82000Y73500D02*
X87642Y67858D01*
X94000D01*
X52500Y74571D02*
X57219Y79290D01*
X32000Y54000D02*
Y80835D01*
X34594Y83429D01*
X28500Y62000D02*
Y75000D01*
X25000Y78500D02*
X28500Y75000D01*
X25000Y78500D02*
Y83500D01*
X68484Y27166D02*
Y29984D01*
X68468Y27150D02*
X68484Y27166D01*
Y29984D02*
X68500Y30000D01*
X65800Y47100D02*
X65826Y47074D01*
X68212D01*
X66065Y37000D02*
X68000D01*
X65827Y36762D02*
X66065Y37000D01*
X66500Y34144D02*
X67329Y34974D01*
X66500Y27150D02*
Y34144D01*
X71500Y86500D02*
X71500Y86500D01*
X71500Y83500D02*
Y86500D01*
X44858Y41142D02*
X46000Y40000D01*
X41762Y41142D02*
X44858D01*
X41801Y54961D02*
X43961D01*
X41762Y54921D02*
X41801Y54961D01*
X43961D02*
X44000Y55000D01*
X70461Y45039D02*
X70500Y45000D01*
X46000Y40000D02*
X52500D01*
X44173Y59939D02*
Y63238D01*
X68238Y45079D02*
X68278Y45039D01*
X70461D01*
X68212Y47074D02*
X68238Y47047D01*
X52500Y71000D02*
Y74571D01*
X48953Y34547D02*
X53500Y30000D01*
X27421Y34547D02*
X48953D01*
X53500Y19000D02*
Y30000D01*
X60594Y27150D02*
Y29906D01*
X57000Y31500D02*
X59000D01*
X60594Y29906D01*
X48760Y79706D02*
Y83429D01*
X48760Y83429D02*
X48760Y83429D01*
X48760Y83429D02*
Y86240D01*
X47500Y87500D02*
X48760Y86240D01*
X42500Y31000D02*
X51000D01*
X52500Y18000D02*
Y29500D01*
X51000Y31000D02*
X52500Y29500D01*
Y18000D02*
X54424Y16076D01*
X53500Y19000D02*
X54500Y18000D01*
X54424Y16076D02*
X57305D01*
X57350Y16032D01*
X41000Y32500D02*
X42500Y31000D01*
X54500Y18000D02*
X57350D01*
X70500Y34500D02*
X70500D01*
X68500Y32500D02*
X70500Y34500D01*
X45000Y69500D02*
X45500Y69000D01*
Y67500D02*
Y69000D01*
X41500Y69500D02*
X45000D01*
X38855Y72145D02*
Y74216D01*
Y72145D02*
X41500Y69500D01*
X45500Y67500D02*
X50000D01*
X50079Y63238D02*
Y67421D01*
X76500Y62000D02*
X77500Y61000D01*
X76500Y62000D02*
Y66000D01*
X71000Y71500D02*
Y71500D01*
Y71500D02*
X76500Y66000D01*
X64500Y27182D02*
Y31500D01*
Y27182D02*
X64531Y27150D01*
X38000Y11000D02*
X38260Y11260D01*
Y16005D01*
X34760Y83429D02*
X43500Y74689D01*
Y71500D02*
Y74689D01*
X47500Y74689D02*
X56240Y83429D01*
X47500Y71500D02*
X47500Y74689D01*
X42240Y83429D02*
Y86240D01*
X43500Y87500D01*
D57*
X23327Y54528D02*
D03*
Y20472D02*
D03*
D58*
X7579Y54528D02*
D03*
Y20472D02*
D03*
D59*
X21358Y26122D02*
D03*
Y48878D02*
D03*
D60*
X33622Y100394D02*
D03*
X43622D02*
D03*
X53622D02*
D03*
X63622D02*
D03*
X91000Y22500D02*
D03*
Y32500D02*
D03*
Y42500D02*
D03*
Y52500D02*
D03*
D61*
X37000Y36500D02*
D03*
X30000Y91000D02*
D03*
Y87500D02*
D03*
Y84000D02*
D03*
X66500Y21000D02*
D03*
Y17500D02*
D03*
Y14000D02*
D03*
X42000Y24500D02*
D03*
X67500Y86500D02*
D03*
X73000Y91500D02*
D03*
X71500Y93500D02*
D03*
Y104500D02*
D03*
Y102000D02*
D03*
Y96000D02*
D03*
X76500Y91500D02*
D03*
X80000D02*
D03*
X83500D02*
D03*
X87000D02*
D03*
X90000D02*
D03*
X93500D02*
D03*
X97000D02*
D03*
X10828Y73929D02*
D03*
X8354Y76404D02*
D03*
X5879Y78879D02*
D03*
X16500Y74000D02*
D03*
Y77500D02*
D03*
Y81000D02*
D03*
X19500Y74000D02*
D03*
Y77500D02*
D03*
Y81000D02*
D03*
X11500Y33500D02*
D03*
Y37000D02*
D03*
Y40500D02*
D03*
X35500Y44000D02*
D03*
Y47500D02*
D03*
Y51000D02*
D03*
X59500Y46000D02*
D03*
Y49500D02*
D03*
Y53000D02*
D03*
X56000Y46000D02*
D03*
Y49500D02*
D03*
Y53000D02*
D03*
X66000Y82000D02*
D03*
X65500Y68851D02*
D03*
X68000Y71500D02*
D03*
X62800Y39800D02*
D03*
Y68851D02*
D03*
X59000Y71500D02*
D03*
X82000Y73500D02*
D03*
X61500Y89500D02*
D03*
X71000D02*
D03*
X57219Y79290D02*
D03*
X32000Y54000D02*
D03*
X28500Y62000D02*
D03*
X68500Y30000D02*
D03*
X67449Y34974D02*
D03*
X68000Y37000D02*
D03*
X44226Y59886D02*
D03*
X44000Y55000D02*
D03*
X52500Y40000D02*
D03*
X41500Y62500D02*
D03*
X70500Y45000D02*
D03*
X65800Y47100D02*
D03*
X52500Y71000D02*
D03*
X57000Y31500D02*
D03*
X48760Y79706D02*
D03*
X41000Y32500D02*
D03*
X70500Y34500D02*
D03*
D62*
X88976Y7874D02*
D03*
X8268Y98425D02*
D03*
Y7874D02*
D03*
M02*
