G04*
G04 #@! TF.GenerationSoftware,Altium Limited,Altium Designer,21.0.8 (223)*
G04*
G04 Layer_Physical_Order=2*
G04 Layer_Color=16711680*
%FSLAX25Y25*%
%MOIN*%
G70*
G04*
G04 #@! TF.SameCoordinates,482E8025-2E78-4A05-A4F1-2824EEF061A7*
G04*
G04*
G04 #@! TF.FilePolarity,Positive*
G04*
G01*
G75*
%ADD10C,0.01000*%
%ADD56C,0.00500*%
%ADD57O,0.08268X0.03937*%
%ADD58O,0.06299X0.03937*%
%ADD59C,0.02559*%
%ADD60C,0.07087*%
%ADD61C,0.01600*%
%ADD62C,0.12598*%
G36*
X71500Y93500D02*
X73000Y91500D01*
X99374D01*
Y62316D01*
X96523Y59465D01*
X96302Y59134D01*
X96224Y58744D01*
Y1020D01*
X1020D01*
Y19078D01*
X2721Y20779D01*
X2942Y21110D01*
X3020Y21500D01*
Y53500D01*
X2942Y53890D01*
X2721Y54221D01*
X1020Y55922D01*
Y105480D01*
X26578D01*
X27779Y104279D01*
X28110Y104058D01*
X28500Y103980D01*
X30784D01*
X30991Y103480D01*
X30387Y102876D01*
X29854Y101954D01*
X29579Y100926D01*
Y99861D01*
X29854Y98833D01*
X30387Y97911D01*
X30716Y97582D01*
X30754Y97486D01*
X31545Y96673D01*
X32148Y95973D01*
X32373Y95674D01*
X32554Y95403D01*
X32687Y95168D01*
X32774Y94973D01*
X32817Y94827D01*
X32834Y94674D01*
X32857Y94631D01*
Y62878D01*
X32916Y62585D01*
X33081Y62337D01*
X35959Y59459D01*
X36207Y59294D01*
X36500Y59235D01*
X42843D01*
X42877Y59215D01*
X42906Y59222D01*
X42933Y59209D01*
X42981Y59207D01*
X43001Y59204D01*
X43016Y59201D01*
X43030Y59196D01*
X43044Y59189D01*
X43059Y59180D01*
X43077Y59167D01*
X43097Y59149D01*
X43119Y59124D01*
X43157Y59077D01*
X43247Y59027D01*
X43490Y58784D01*
X43967Y58587D01*
X44484D01*
X44962Y58784D01*
X45328Y59150D01*
X45526Y59628D01*
Y60145D01*
X45328Y60623D01*
X45214Y60737D01*
X45176Y60832D01*
X45130Y60881D01*
X45101Y60916D01*
X45077Y60948D01*
X45059Y60977D01*
X45045Y61005D01*
X45035Y61030D01*
X45027Y61053D01*
X45022Y61077D01*
X45019Y61101D01*
X45017Y61150D01*
X44991Y61206D01*
Y80909D01*
X49817Y85735D01*
X66181D01*
X66237Y85709D01*
X66286Y85707D01*
X66310Y85704D01*
X66333Y85699D01*
X66357Y85691D01*
X66382Y85681D01*
X66409Y85667D01*
X66439Y85649D01*
X66471Y85625D01*
X66505Y85596D01*
X66554Y85549D01*
X66649Y85512D01*
X66764Y85398D01*
X67085Y85265D01*
X66986Y84765D01*
X62062D01*
X61769Y84706D01*
X61521Y84541D01*
X57713Y80733D01*
X57670Y80721D01*
X57659Y80702D01*
X57637Y80694D01*
X57602Y80661D01*
X57586Y80649D01*
X57570Y80640D01*
X57556Y80633D01*
X57539Y80627D01*
X57520Y80622D01*
X57496Y80618D01*
X57466Y80616D01*
X57431Y80616D01*
X57370Y80622D01*
X57265Y80589D01*
X56960D01*
X56482Y80392D01*
X56117Y80026D01*
X55919Y79548D01*
Y79031D01*
X56117Y78553D01*
X56482Y78187D01*
X56960Y77990D01*
X57477D01*
X57955Y78187D01*
X58321Y78553D01*
X58519Y79031D01*
Y79077D01*
X58551Y79132D01*
X58560Y79204D01*
X58570Y79258D01*
X58582Y79305D01*
X58595Y79347D01*
X58610Y79384D01*
X58625Y79417D01*
X58641Y79445D01*
X58658Y79471D01*
X58676Y79493D01*
X58709Y79530D01*
X58731Y79588D01*
X62378Y83235D01*
X64690D01*
X64898Y82736D01*
X64700Y82259D01*
Y81741D01*
X64898Y81264D01*
X65012Y81149D01*
X65049Y81054D01*
X65096Y81005D01*
X65125Y80971D01*
X65149Y80939D01*
X65167Y80909D01*
X65181Y80882D01*
X65191Y80857D01*
X65199Y80833D01*
X65204Y80810D01*
X65207Y80786D01*
X65209Y80737D01*
X65235Y80681D01*
Y78500D01*
X65294Y78207D01*
X65459Y77959D01*
X70735Y72683D01*
Y52000D01*
X70793Y51707D01*
X70959Y51459D01*
X80459Y41959D01*
X80707Y41794D01*
X81000Y41735D01*
X85238D01*
X85280Y41712D01*
X85433Y41695D01*
X85579Y41652D01*
X85774Y41565D01*
X86009Y41432D01*
X86281Y41251D01*
X86576Y41028D01*
X87673Y40050D01*
X88087Y39637D01*
X88087Y39637D01*
X88087Y39637D01*
X88087Y39636D01*
X88186Y39596D01*
X88517Y39265D01*
X89439Y38732D01*
X90468Y38457D01*
X91532D01*
X92561Y38732D01*
X93483Y39265D01*
X94235Y40017D01*
X94768Y40939D01*
X95043Y41968D01*
Y43032D01*
X94768Y44061D01*
X94235Y44983D01*
X93483Y45735D01*
X92561Y46268D01*
X91532Y46543D01*
X90468D01*
X89439Y46268D01*
X88517Y45735D01*
X88188Y45406D01*
X88092Y45368D01*
X87279Y44577D01*
X86580Y43975D01*
X86281Y43749D01*
X86009Y43568D01*
X85774Y43435D01*
X85579Y43348D01*
X85433Y43305D01*
X85280Y43288D01*
X85238Y43265D01*
X81317D01*
X72265Y52317D01*
Y73000D01*
X72206Y73293D01*
X72041Y73541D01*
X72041Y73541D01*
X66765Y78817D01*
Y80681D01*
X66791Y80737D01*
X66793Y80786D01*
X66796Y80810D01*
X66801Y80833D01*
X66809Y80857D01*
X66819Y80882D01*
X66833Y80909D01*
X66851Y80939D01*
X66875Y80971D01*
X66904Y81005D01*
X66951Y81054D01*
X66988Y81149D01*
X67102Y81264D01*
X67300Y81741D01*
Y82259D01*
X67102Y82736D01*
X67310Y83235D01*
X71183D01*
X80527Y73892D01*
X80548Y73834D01*
X80581Y73798D01*
X80595Y73779D01*
X80608Y73759D01*
X80620Y73737D01*
X80630Y73712D01*
X80640Y73682D01*
X80647Y73649D01*
X80654Y73609D01*
X80658Y73564D01*
X80659Y73497D01*
X80700Y73403D01*
Y73241D01*
X80898Y72764D01*
X81264Y72398D01*
X81741Y72200D01*
X82259D01*
X82736Y72398D01*
X83102Y72764D01*
X83300Y73241D01*
Y73759D01*
X83102Y74236D01*
X82736Y74602D01*
X82259Y74800D01*
X82097D01*
X82003Y74841D01*
X81936Y74842D01*
X81891Y74846D01*
X81851Y74853D01*
X81818Y74860D01*
X81789Y74870D01*
X81763Y74880D01*
X81741Y74892D01*
X81721Y74905D01*
X81702Y74919D01*
X81666Y74952D01*
X81608Y74973D01*
X72041Y84541D01*
X71793Y84706D01*
X71500Y84765D01*
X68014D01*
X67915Y85265D01*
X68236Y85398D01*
X68602Y85764D01*
X68800Y86241D01*
Y86759D01*
X68602Y87236D01*
X68236Y87602D01*
X67759Y87800D01*
X67241D01*
X66764Y87602D01*
X66649Y87488D01*
X66554Y87450D01*
X66505Y87404D01*
X66471Y87375D01*
X66439Y87351D01*
X66409Y87333D01*
X66382Y87319D01*
X66357Y87309D01*
X66333Y87301D01*
X66310Y87296D01*
X66286Y87293D01*
X66237Y87291D01*
X66181Y87265D01*
X49500D01*
X49207Y87207D01*
X48959Y87041D01*
X43685Y81767D01*
X43519Y81519D01*
X43461Y81226D01*
Y61206D01*
X43435Y61150D01*
X43433Y61101D01*
X43430Y61077D01*
X43425Y61053D01*
X43417Y61030D01*
X43407Y61005D01*
X43393Y60977D01*
X43375Y60948D01*
X43351Y60916D01*
X43339Y60901D01*
X43315Y60886D01*
X43271Y60860D01*
X43230Y60840D01*
X43191Y60823D01*
X43156Y60811D01*
X43123Y60802D01*
X43091Y60796D01*
X43062Y60793D01*
X43012Y60791D01*
X42956Y60765D01*
X42014D01*
X41915Y61265D01*
X42236Y61398D01*
X42602Y61764D01*
X42800Y62241D01*
Y62759D01*
X42602Y63236D01*
X42488Y63351D01*
X42450Y63446D01*
X42404Y63495D01*
X42375Y63529D01*
X42351Y63561D01*
X42333Y63591D01*
X42319Y63618D01*
X42309Y63643D01*
X42301Y63667D01*
X42296Y63690D01*
X42293Y63714D01*
X42291Y63763D01*
X42265Y63819D01*
Y91183D01*
X44163Y93081D01*
X44163Y93081D01*
X44328Y93329D01*
X44387Y93622D01*
X44387Y93622D01*
Y94631D01*
X44410Y94674D01*
X44427Y94827D01*
X44470Y94973D01*
X44557Y95168D01*
X44690Y95403D01*
X44871Y95674D01*
X45094Y95970D01*
X46072Y97067D01*
X46485Y97481D01*
X46485Y97481D01*
X46485Y97481D01*
X46485Y97481D01*
X46526Y97580D01*
X46858Y97911D01*
X47390Y98833D01*
X47665Y99861D01*
Y100926D01*
X47390Y101954D01*
X46858Y102876D01*
X46253Y103480D01*
X46461Y103980D01*
X50784D01*
X50991Y103480D01*
X50387Y102876D01*
X49854Y101954D01*
X49579Y100926D01*
Y99861D01*
X49854Y98833D01*
X50387Y97911D01*
X51139Y97158D01*
X52061Y96626D01*
X53090Y96350D01*
X54154D01*
X55183Y96626D01*
X56105Y97158D01*
X56858Y97911D01*
X57390Y98833D01*
X57665Y99861D01*
Y100926D01*
X57390Y101954D01*
X56858Y102876D01*
X56253Y103480D01*
X56461Y103980D01*
X69000D01*
X69390Y104058D01*
X69721Y104279D01*
X70923Y105481D01*
X71500D01*
Y93500D01*
D02*
G37*
G36*
X45679Y97439D02*
X44675Y96313D01*
X44430Y95988D01*
X44229Y95687D01*
X44073Y95411D01*
X43961Y95161D01*
X43894Y94934D01*
X43872Y94733D01*
X43372D01*
X43350Y94934D01*
X43283Y95161D01*
X43171Y95411D01*
X43015Y95687D01*
X42814Y95988D01*
X42569Y96313D01*
X41945Y97039D01*
X41142Y97863D01*
X46102D01*
X45679Y97439D01*
D02*
G37*
G36*
X35679D02*
X34675Y96313D01*
X34430Y95988D01*
X34229Y95687D01*
X34073Y95411D01*
X33961Y95161D01*
X33894Y94934D01*
X33872Y94733D01*
X33372D01*
X33350Y94934D01*
X33283Y95161D01*
X33171Y95411D01*
X33015Y95687D01*
X32814Y95988D01*
X32569Y96313D01*
X31945Y97039D01*
X31142Y97863D01*
X36102D01*
X35679Y97439D01*
D02*
G37*
G36*
X66929Y85940D02*
X66867Y85999D01*
X66805Y86052D01*
X66741Y86098D01*
X66676Y86138D01*
X66610Y86172D01*
X66542Y86200D01*
X66473Y86222D01*
X66404Y86238D01*
X66332Y86247D01*
X66260Y86250D01*
Y86750D01*
X66332Y86753D01*
X66404Y86762D01*
X66473Y86778D01*
X66542Y86800D01*
X66610Y86827D01*
X66676Y86862D01*
X66741Y86902D01*
X66805Y86948D01*
X66867Y87001D01*
X66929Y87060D01*
Y85940D01*
D02*
G37*
G36*
X66501Y81367D02*
X66448Y81305D01*
X66402Y81241D01*
X66362Y81176D01*
X66328Y81110D01*
X66300Y81042D01*
X66278Y80973D01*
X66262Y80904D01*
X66253Y80832D01*
X66250Y80760D01*
X65750D01*
X65747Y80832D01*
X65738Y80904D01*
X65722Y80973D01*
X65700Y81042D01*
X65672Y81110D01*
X65638Y81176D01*
X65598Y81241D01*
X65552Y81305D01*
X65499Y81367D01*
X65440Y81429D01*
X66560D01*
X66501Y81367D01*
D02*
G37*
G36*
X58312Y79897D02*
X58264Y79845D01*
X58220Y79789D01*
X58180Y79729D01*
X58144Y79666D01*
X58112Y79598D01*
X58085Y79527D01*
X58061Y79452D01*
X58041Y79373D01*
X58026Y79290D01*
X58014Y79204D01*
X57320Y80083D01*
X57402Y80076D01*
X57481Y80074D01*
X57557Y80080D01*
X57630Y80091D01*
X57700Y80109D01*
X57766Y80133D01*
X57830Y80164D01*
X57890Y80201D01*
X57948Y80244D01*
X58002Y80294D01*
X58312Y79897D01*
D02*
G37*
G36*
X81353Y74505D02*
X81410Y74461D01*
X81471Y74422D01*
X81534Y74389D01*
X81602Y74361D01*
X81673Y74339D01*
X81747Y74321D01*
X81825Y74309D01*
X81907Y74302D01*
X81992Y74300D01*
X81200Y73508D01*
X81198Y73593D01*
X81191Y73675D01*
X81179Y73753D01*
X81161Y73827D01*
X81139Y73898D01*
X81111Y73966D01*
X81078Y74029D01*
X81039Y74090D01*
X80995Y74147D01*
X80946Y74200D01*
X81300Y74554D01*
X81353Y74505D01*
D02*
G37*
G36*
X41753Y63668D02*
X41762Y63596D01*
X41778Y63527D01*
X41800Y63458D01*
X41827Y63390D01*
X41862Y63324D01*
X41902Y63259D01*
X41948Y63195D01*
X42001Y63133D01*
X42060Y63071D01*
X40940D01*
X40999Y63133D01*
X41052Y63195D01*
X41098Y63259D01*
X41138Y63324D01*
X41173Y63390D01*
X41200Y63458D01*
X41222Y63527D01*
X41238Y63596D01*
X41247Y63668D01*
X41250Y63740D01*
X41750D01*
X41753Y63668D01*
D02*
G37*
G36*
X44479Y61054D02*
X44488Y60983D01*
X44504Y60913D01*
X44526Y60844D01*
X44553Y60777D01*
X44587Y60711D01*
X44628Y60646D01*
X44674Y60582D01*
X44727Y60519D01*
X44786Y60458D01*
X43731D01*
X43581Y59413D01*
X43530Y59477D01*
X43477Y59535D01*
X43421Y59585D01*
X43363Y59629D01*
X43301Y59666D01*
X43238Y59696D01*
X43172Y59720D01*
X43103Y59737D01*
X43032Y59747D01*
X42958Y59750D01*
X43033Y60250D01*
X43104Y60253D01*
X43174Y60261D01*
X43244Y60274D01*
X43315Y60294D01*
X43385Y60318D01*
X43456Y60348D01*
X43527Y60383D01*
X43598Y60424D01*
X43669Y60470D01*
X43699Y60492D01*
X43725Y60519D01*
X43777Y60582D01*
X43824Y60646D01*
X43864Y60711D01*
X43898Y60777D01*
X43926Y60844D01*
X43948Y60913D01*
X43964Y60983D01*
X43973Y61054D01*
X43976Y61126D01*
X44476D01*
X44479Y61054D01*
D02*
G37*
G36*
X88470Y40020D02*
X88045Y40444D01*
X86919Y41447D01*
X86594Y41692D01*
X86293Y41893D01*
X86018Y42049D01*
X85767Y42161D01*
X85541Y42228D01*
X85339Y42250D01*
Y42750D01*
X85541Y42772D01*
X85767Y42839D01*
X86018Y42951D01*
X86293Y43107D01*
X86594Y43308D01*
X86919Y43553D01*
X87645Y44177D01*
X88470Y44980D01*
Y40020D01*
D02*
G37*
%LPC*%
G36*
X71259Y90800D02*
X70741D01*
X70264Y90602D01*
X70219Y90558D01*
X69967Y90542D01*
X69892Y90541D01*
X69841Y90520D01*
X62665D01*
X62616Y90541D01*
X62384Y90546D01*
X62291Y90553D01*
X62284Y90554D01*
X62236Y90602D01*
X61759Y90800D01*
X61241D01*
X60764Y90602D01*
X60398Y90236D01*
X60200Y89759D01*
Y89241D01*
X60398Y88764D01*
X60764Y88398D01*
X61241Y88200D01*
X61759D01*
X62236Y88398D01*
X62281Y88442D01*
X62533Y88458D01*
X62608Y88459D01*
X62659Y88480D01*
X69835D01*
X69884Y88459D01*
X70116Y88454D01*
X70209Y88447D01*
X70216Y88446D01*
X70264Y88398D01*
X70741Y88200D01*
X71259D01*
X71736Y88398D01*
X72102Y88764D01*
X72300Y89241D01*
Y89759D01*
X72102Y90236D01*
X71736Y90602D01*
X71259Y90800D01*
D02*
G37*
G36*
X68259Y72800D02*
X67741D01*
X67264Y72602D01*
X67149Y72488D01*
X67054Y72451D01*
X67005Y72404D01*
X66971Y72375D01*
X66939Y72351D01*
X66909Y72333D01*
X66882Y72319D01*
X66857Y72309D01*
X66833Y72301D01*
X66810Y72296D01*
X66786Y72293D01*
X66737Y72291D01*
X66681Y72265D01*
X60319D01*
X60263Y72291D01*
X60214Y72293D01*
X60190Y72296D01*
X60167Y72301D01*
X60143Y72309D01*
X60118Y72319D01*
X60091Y72333D01*
X60061Y72351D01*
X60029Y72375D01*
X59995Y72404D01*
X59946Y72451D01*
X59851Y72488D01*
X59736Y72602D01*
X59259Y72800D01*
X58741D01*
X58264Y72602D01*
X57898Y72236D01*
X57700Y71759D01*
Y71241D01*
X57898Y70764D01*
X58264Y70398D01*
X58741Y70200D01*
X59259D01*
X59736Y70398D01*
X59851Y70512D01*
X59946Y70549D01*
X59995Y70596D01*
X60029Y70625D01*
X60061Y70649D01*
X60091Y70667D01*
X60118Y70681D01*
X60143Y70691D01*
X60167Y70699D01*
X60190Y70704D01*
X60214Y70707D01*
X60263Y70709D01*
X60319Y70735D01*
X66681D01*
X66737Y70709D01*
X66786Y70707D01*
X66810Y70704D01*
X66833Y70699D01*
X66857Y70691D01*
X66882Y70681D01*
X66909Y70667D01*
X66939Y70649D01*
X66971Y70625D01*
X67005Y70596D01*
X67054Y70549D01*
X67149Y70512D01*
X67264Y70398D01*
X67741Y70200D01*
X68259D01*
X68736Y70398D01*
X69102Y70764D01*
X69300Y71241D01*
Y71759D01*
X69102Y72236D01*
X68736Y72602D01*
X68259Y72800D01*
D02*
G37*
G36*
X65759Y70151D02*
X65241D01*
X64764Y69953D01*
X64430Y69620D01*
X64150Y69603D01*
X63870Y69620D01*
X63536Y69953D01*
X63059Y70151D01*
X62541D01*
X62064Y69953D01*
X61698Y69588D01*
X61500Y69110D01*
Y68593D01*
X61698Y68115D01*
X61812Y68000D01*
X61849Y67905D01*
X61896Y67857D01*
X61925Y67822D01*
X61949Y67790D01*
X61967Y67760D01*
X61981Y67733D01*
X61991Y67708D01*
X61999Y67684D01*
X62004Y67661D01*
X62007Y67637D01*
X62009Y67588D01*
X62035Y67532D01*
Y41119D01*
X62009Y41063D01*
X62007Y41014D01*
X62004Y40990D01*
X61999Y40967D01*
X61991Y40943D01*
X61981Y40918D01*
X61967Y40891D01*
X61949Y40861D01*
X61925Y40829D01*
X61896Y40795D01*
X61849Y40746D01*
X61812Y40651D01*
X61698Y40536D01*
X61500Y40059D01*
Y39541D01*
X61698Y39064D01*
X62064Y38698D01*
X62541Y38500D01*
X63059D01*
X63536Y38698D01*
X63902Y39064D01*
X64100Y39541D01*
Y40059D01*
X63902Y40536D01*
X63788Y40651D01*
X63750Y40746D01*
X63704Y40795D01*
X63675Y40829D01*
X63651Y40861D01*
X63633Y40891D01*
X63619Y40918D01*
X63609Y40943D01*
X63601Y40967D01*
X63596Y40990D01*
X63593Y41014D01*
X63591Y41063D01*
X63565Y41119D01*
Y67532D01*
X63591Y67588D01*
X63593Y67637D01*
X63596Y67661D01*
X63601Y67684D01*
X63609Y67708D01*
X63619Y67733D01*
X63633Y67760D01*
X63651Y67790D01*
X63675Y67822D01*
X63704Y67857D01*
X63750Y67905D01*
X63788Y68000D01*
X63870Y68083D01*
X64150Y68100D01*
X64430Y68083D01*
X64764Y67749D01*
X65241Y67551D01*
X65403D01*
X65497Y67510D01*
X65564Y67509D01*
X65609Y67505D01*
X65649Y67499D01*
X65683Y67491D01*
X65711Y67481D01*
X65737Y67471D01*
X65759Y67459D01*
X65779Y67447D01*
X65798Y67432D01*
X65834Y67399D01*
X65892Y67378D01*
X67235Y66034D01*
Y48210D01*
X66735Y48003D01*
X66536Y48202D01*
X66059Y48400D01*
X65541D01*
X65064Y48202D01*
X64698Y47836D01*
X64500Y47359D01*
Y46841D01*
X64698Y46364D01*
X64812Y46249D01*
X64850Y46154D01*
X64896Y46105D01*
X64925Y46071D01*
X64949Y46039D01*
X64967Y46009D01*
X64981Y45982D01*
X64991Y45957D01*
X64999Y45933D01*
X65004Y45910D01*
X65007Y45886D01*
X65009Y45837D01*
X65035Y45781D01*
Y36503D01*
X65093Y36210D01*
X65259Y35962D01*
X65940Y35282D01*
X65961Y35223D01*
X65995Y35187D01*
X66012Y35165D01*
X66029Y35140D01*
X66044Y35112D01*
X66059Y35080D01*
X66073Y35044D01*
X66086Y35003D01*
X66097Y34956D01*
X66106Y34903D01*
X66115Y34832D01*
X66149Y34772D01*
Y34715D01*
X66347Y34237D01*
X66712Y33872D01*
X67190Y33674D01*
X67707D01*
X68185Y33872D01*
X68551Y34237D01*
X68653Y34484D01*
X68700Y34598D01*
X69200Y34498D01*
X69200Y34395D01*
Y34241D01*
X69398Y33764D01*
X69764Y33398D01*
X70241Y33200D01*
X70759D01*
X71236Y33398D01*
X71602Y33764D01*
X71800Y34241D01*
Y34759D01*
X71602Y35236D01*
X71488Y35351D01*
X71451Y35446D01*
X71404Y35495D01*
X71375Y35529D01*
X71351Y35561D01*
X71333Y35591D01*
X71319Y35618D01*
X71309Y35643D01*
X71301Y35667D01*
X71296Y35690D01*
X71293Y35714D01*
X71291Y35763D01*
X71265Y35819D01*
Y43681D01*
X71291Y43737D01*
X71293Y43786D01*
X71296Y43810D01*
X71301Y43833D01*
X71309Y43857D01*
X71319Y43882D01*
X71333Y43909D01*
X71351Y43939D01*
X71375Y43971D01*
X71404Y44005D01*
X71451Y44054D01*
X71488Y44149D01*
X71602Y44264D01*
X71800Y44741D01*
Y45259D01*
X71602Y45736D01*
X71236Y46102D01*
X70759Y46300D01*
X70241D01*
X69764Y46102D01*
X69398Y45736D01*
X69265Y45415D01*
X68765Y45514D01*
Y66351D01*
X68707Y66644D01*
X68541Y66892D01*
X68541Y66892D01*
X66973Y68459D01*
X66952Y68517D01*
X66919Y68553D01*
X66904Y68572D01*
X66892Y68593D01*
X66880Y68615D01*
X66870Y68640D01*
X66860Y68669D01*
X66852Y68703D01*
X66846Y68742D01*
X66842Y68787D01*
X66841Y68854D01*
X66800Y68948D01*
Y69110D01*
X66602Y69588D01*
X66236Y69953D01*
X65759Y70151D01*
D02*
G37*
G36*
X28759Y63300D02*
X28241D01*
X27764Y63102D01*
X27398Y62736D01*
X27200Y62259D01*
Y61741D01*
X27398Y61264D01*
X27764Y60898D01*
X28241Y60700D01*
X28403D01*
X28497Y60659D01*
X28564Y60658D01*
X28609Y60654D01*
X28649Y60647D01*
X28683Y60640D01*
X28711Y60630D01*
X28736Y60620D01*
X28759Y60608D01*
X28779Y60596D01*
X28798Y60581D01*
X28834Y60548D01*
X28892Y60527D01*
X34959Y54459D01*
X34959Y54459D01*
X35207Y54294D01*
X35500Y54235D01*
X42681D01*
X42737Y54209D01*
X42786Y54207D01*
X42810Y54204D01*
X42833Y54199D01*
X42857Y54191D01*
X42882Y54181D01*
X42909Y54167D01*
X42939Y54149D01*
X42971Y54125D01*
X43005Y54096D01*
X43054Y54049D01*
X43149Y54012D01*
X43264Y53898D01*
X43741Y53700D01*
X44259D01*
X44736Y53898D01*
X45102Y54264D01*
X45300Y54741D01*
Y55259D01*
X45102Y55736D01*
X44736Y56102D01*
X44259Y56300D01*
X43741D01*
X43264Y56102D01*
X43149Y55988D01*
X43054Y55950D01*
X43005Y55904D01*
X42971Y55875D01*
X42939Y55851D01*
X42909Y55833D01*
X42882Y55819D01*
X42857Y55809D01*
X42833Y55801D01*
X42810Y55796D01*
X42786Y55793D01*
X42737Y55791D01*
X42681Y55765D01*
X35817D01*
X29973Y61608D01*
X29952Y61666D01*
X29919Y61702D01*
X29904Y61721D01*
X29892Y61741D01*
X29880Y61764D01*
X29870Y61788D01*
X29860Y61818D01*
X29853Y61851D01*
X29846Y61891D01*
X29842Y61936D01*
X29841Y62003D01*
X29800Y62097D01*
Y62259D01*
X29602Y62736D01*
X29236Y63102D01*
X28759Y63300D01*
D02*
G37*
G36*
X91532Y56543D02*
X90468D01*
X89439Y56268D01*
X88517Y55735D01*
X87765Y54983D01*
X87232Y54061D01*
X86957Y53032D01*
Y51968D01*
X87232Y50939D01*
X87765Y50017D01*
X88517Y49265D01*
X89439Y48732D01*
X90468Y48457D01*
X91532D01*
X92561Y48732D01*
X93483Y49265D01*
X94235Y50017D01*
X94768Y50939D01*
X95043Y51968D01*
Y53032D01*
X94768Y54061D01*
X94235Y54983D01*
X93483Y55735D01*
X92561Y56268D01*
X91532Y56543D01*
D02*
G37*
G36*
X21712Y50657D02*
X21004D01*
X20350Y50387D01*
X19850Y49886D01*
X19579Y49232D01*
Y48524D01*
X19850Y47870D01*
X20350Y47369D01*
X21004Y47098D01*
X21712D01*
X22366Y47369D01*
X22867Y47870D01*
X23138Y48524D01*
Y49232D01*
X22867Y49886D01*
X22366Y50387D01*
X21712Y50657D01*
D02*
G37*
G36*
X52759Y72300D02*
X52241D01*
X51764Y72102D01*
X51398Y71736D01*
X51200Y71259D01*
Y70741D01*
X51398Y70264D01*
X51512Y70149D01*
X51550Y70054D01*
X51596Y70005D01*
X51625Y69971D01*
X51649Y69939D01*
X51667Y69909D01*
X51681Y69882D01*
X51691Y69857D01*
X51699Y69833D01*
X51704Y69810D01*
X51707Y69786D01*
X51709Y69737D01*
X51735Y69681D01*
Y41319D01*
X51709Y41263D01*
X51707Y41214D01*
X51704Y41190D01*
X51699Y41167D01*
X51691Y41143D01*
X51681Y41118D01*
X51667Y41091D01*
X51649Y41061D01*
X51625Y41029D01*
X51596Y40995D01*
X51550Y40946D01*
X51512Y40851D01*
X51398Y40736D01*
X51200Y40259D01*
Y39741D01*
X51398Y39264D01*
X51764Y38898D01*
X52241Y38700D01*
X52759D01*
X53236Y38898D01*
X53602Y39264D01*
X53800Y39741D01*
Y40259D01*
X53602Y40736D01*
X53488Y40851D01*
X53451Y40946D01*
X53404Y40995D01*
X53375Y41029D01*
X53351Y41061D01*
X53333Y41091D01*
X53319Y41118D01*
X53309Y41143D01*
X53301Y41167D01*
X53296Y41190D01*
X53293Y41214D01*
X53291Y41263D01*
X53265Y41319D01*
Y69681D01*
X53291Y69737D01*
X53293Y69786D01*
X53296Y69810D01*
X53301Y69833D01*
X53309Y69857D01*
X53319Y69882D01*
X53333Y69909D01*
X53351Y69939D01*
X53375Y69971D01*
X53404Y70005D01*
X53451Y70054D01*
X53488Y70149D01*
X53602Y70264D01*
X53800Y70741D01*
Y71259D01*
X53602Y71736D01*
X53236Y72102D01*
X52759Y72300D01*
D02*
G37*
G36*
X49018Y81006D02*
X48501D01*
X48024Y80808D01*
X47658Y80443D01*
X47460Y79965D01*
Y79448D01*
X47658Y78970D01*
X47772Y78856D01*
X47809Y78760D01*
X47856Y78712D01*
X47885Y78677D01*
X47909Y78645D01*
X47927Y78615D01*
X47941Y78588D01*
X47951Y78563D01*
X47959Y78539D01*
X47964Y78516D01*
X47967Y78492D01*
X47969Y78443D01*
X47995Y78387D01*
Y35740D01*
X48053Y35447D01*
X48219Y35199D01*
X52204Y31215D01*
X51997Y30715D01*
X41294D01*
X41259Y31200D01*
X41736Y31398D01*
X42102Y31764D01*
X42300Y32241D01*
Y32759D01*
X42102Y33236D01*
X41736Y33602D01*
X41259Y33800D01*
X41097D01*
X41003Y33841D01*
X40936Y33842D01*
X40891Y33846D01*
X40851Y33852D01*
X40817Y33860D01*
X40789Y33870D01*
X40764Y33880D01*
X40741Y33892D01*
X40721Y33904D01*
X40702Y33919D01*
X40666Y33952D01*
X40608Y33973D01*
X38473Y36108D01*
X38452Y36166D01*
X38419Y36202D01*
X38405Y36221D01*
X38392Y36241D01*
X38380Y36263D01*
X38370Y36288D01*
X38360Y36318D01*
X38353Y36351D01*
X38346Y36391D01*
X38342Y36436D01*
X38341Y36503D01*
X38300Y36597D01*
Y36759D01*
X38102Y37236D01*
X37736Y37602D01*
X37259Y37800D01*
X36741D01*
X36264Y37602D01*
X35898Y37236D01*
X35700Y36759D01*
Y36241D01*
X35898Y35764D01*
X36264Y35398D01*
X36741Y35200D01*
X36903D01*
X36997Y35159D01*
X37064Y35158D01*
X37109Y35154D01*
X37149Y35148D01*
X37183Y35140D01*
X37211Y35130D01*
X37236Y35120D01*
X37259Y35108D01*
X37279Y35096D01*
X37298Y35081D01*
X37334Y35048D01*
X37392Y35027D01*
X39527Y32892D01*
X39548Y32834D01*
X39581Y32798D01*
X39595Y32779D01*
X39608Y32759D01*
X39620Y32737D01*
X39630Y32711D01*
X39640Y32682D01*
X39647Y32649D01*
X39654Y32609D01*
X39658Y32564D01*
X39659Y32497D01*
X39700Y32403D01*
Y32241D01*
X39898Y31764D01*
X40264Y31398D01*
X40741Y31200D01*
X40706Y30715D01*
X39367D01*
X32765Y37317D01*
Y52681D01*
X32791Y52737D01*
X32793Y52786D01*
X32796Y52810D01*
X32801Y52833D01*
X32809Y52857D01*
X32819Y52882D01*
X32833Y52909D01*
X32851Y52939D01*
X32875Y52971D01*
X32904Y53005D01*
X32950Y53054D01*
X32988Y53149D01*
X33102Y53264D01*
X33300Y53741D01*
Y54259D01*
X33102Y54736D01*
X32736Y55102D01*
X32259Y55300D01*
X31741D01*
X31264Y55102D01*
X30898Y54736D01*
X30700Y54259D01*
Y53741D01*
X30898Y53264D01*
X31012Y53149D01*
X31049Y53054D01*
X31096Y53005D01*
X31125Y52971D01*
X31149Y52939D01*
X31167Y52909D01*
X31181Y52882D01*
X31191Y52857D01*
X31199Y52833D01*
X31204Y52810D01*
X31207Y52786D01*
X31209Y52737D01*
X31235Y52681D01*
Y37000D01*
X31293Y36707D01*
X31459Y36459D01*
X38509Y29409D01*
X38509Y29409D01*
X38757Y29243D01*
X39050Y29185D01*
X39050Y29185D01*
X57642D01*
X57893Y29235D01*
X67181D01*
X67237Y29209D01*
X67286Y29207D01*
X67310Y29204D01*
X67333Y29199D01*
X67357Y29191D01*
X67382Y29181D01*
X67409Y29167D01*
X67439Y29149D01*
X67471Y29125D01*
X67505Y29096D01*
X67554Y29050D01*
X67649Y29012D01*
X67764Y28898D01*
X68241Y28700D01*
X68759D01*
X69236Y28898D01*
X69602Y29264D01*
X69800Y29741D01*
Y30259D01*
X69602Y30736D01*
X69236Y31102D01*
X68759Y31300D01*
X68241D01*
X67764Y31102D01*
X67649Y30988D01*
X67554Y30950D01*
X67505Y30904D01*
X67471Y30875D01*
X67439Y30851D01*
X67409Y30833D01*
X67382Y30819D01*
X67357Y30809D01*
X67333Y30801D01*
X67310Y30796D01*
X67286Y30793D01*
X67237Y30791D01*
X67181Y30765D01*
X58552D01*
X58275Y31180D01*
X58300Y31241D01*
Y31759D01*
X58102Y32236D01*
X57736Y32602D01*
X57259Y32800D01*
X56741D01*
X56264Y32602D01*
X56149Y32488D01*
X56054Y32451D01*
X56005Y32404D01*
X55971Y32375D01*
X55939Y32351D01*
X55909Y32333D01*
X55882Y32319D01*
X55857Y32309D01*
X55833Y32301D01*
X55810Y32296D01*
X55786Y32293D01*
X55737Y32291D01*
X55681Y32265D01*
X53317D01*
X49525Y36057D01*
Y78387D01*
X49551Y78443D01*
X49553Y78492D01*
X49556Y78516D01*
X49561Y78539D01*
X49569Y78563D01*
X49579Y78588D01*
X49593Y78615D01*
X49611Y78645D01*
X49634Y78677D01*
X49664Y78712D01*
X49710Y78760D01*
X49747Y78856D01*
X49862Y78970D01*
X50060Y79448D01*
Y79965D01*
X49862Y80443D01*
X49496Y80808D01*
X49018Y81006D01*
D02*
G37*
G36*
X21712Y27902D02*
X21004D01*
X20350Y27631D01*
X19850Y27130D01*
X19579Y26476D01*
Y25768D01*
X19850Y25114D01*
X20350Y24613D01*
X21004Y24342D01*
X21712D01*
X22366Y24613D01*
X22867Y25114D01*
X23138Y25768D01*
Y26476D01*
X22867Y27130D01*
X22366Y27631D01*
X21712Y27902D01*
D02*
G37*
G36*
X91532Y26543D02*
X90468D01*
X89439Y26268D01*
X88517Y25735D01*
X87765Y24983D01*
X87232Y24061D01*
X86957Y23032D01*
Y21968D01*
X87232Y20939D01*
X87765Y20017D01*
X88517Y19264D01*
X89439Y18732D01*
X90468Y18457D01*
X91532D01*
X92561Y18732D01*
X93483Y19264D01*
X94235Y20017D01*
X94768Y20939D01*
X95043Y21968D01*
Y23032D01*
X94768Y24061D01*
X94235Y24983D01*
X93483Y25735D01*
X92561Y26268D01*
X91532Y26543D01*
D02*
G37*
%LPD*%
G36*
X70429Y88940D02*
X70413Y88951D01*
X70389Y88962D01*
X70356Y88971D01*
X70315Y88978D01*
X70266Y88985D01*
X70143Y88995D01*
X69895Y89000D01*
Y90000D01*
X69986Y90001D01*
X70315Y90022D01*
X70356Y90029D01*
X70389Y90038D01*
X70413Y90049D01*
X70429Y90060D01*
Y88940D01*
D02*
G37*
G36*
X62087Y90049D02*
X62112Y90038D01*
X62144Y90029D01*
X62185Y90022D01*
X62234Y90015D01*
X62357Y90005D01*
X62604Y90000D01*
Y89000D01*
X62514Y88999D01*
X62185Y88978D01*
X62144Y88971D01*
X62112Y88962D01*
X62087Y88951D01*
X62071Y88940D01*
Y90060D01*
X62087Y90049D01*
D02*
G37*
G36*
X67429Y70940D02*
X67367Y70999D01*
X67305Y71052D01*
X67241Y71098D01*
X67176Y71138D01*
X67110Y71172D01*
X67042Y71200D01*
X66973Y71222D01*
X66904Y71238D01*
X66832Y71247D01*
X66760Y71250D01*
Y71750D01*
X66832Y71753D01*
X66904Y71762D01*
X66973Y71778D01*
X67042Y71800D01*
X67110Y71828D01*
X67176Y71862D01*
X67241Y71902D01*
X67305Y71948D01*
X67367Y72001D01*
X67429Y72060D01*
Y70940D01*
D02*
G37*
G36*
X59633Y72001D02*
X59695Y71948D01*
X59759Y71902D01*
X59824Y71862D01*
X59890Y71828D01*
X59958Y71800D01*
X60027Y71778D01*
X60097Y71762D01*
X60168Y71753D01*
X60240Y71750D01*
Y71250D01*
X60168Y71247D01*
X60097Y71238D01*
X60027Y71222D01*
X59958Y71200D01*
X59890Y71172D01*
X59824Y71138D01*
X59759Y71098D01*
X59695Y71052D01*
X59633Y70999D01*
X59571Y70940D01*
Y72060D01*
X59633Y72001D01*
D02*
G37*
G36*
X66302Y68758D02*
X66309Y68677D01*
X66321Y68599D01*
X66338Y68524D01*
X66361Y68453D01*
X66389Y68386D01*
X66422Y68322D01*
X66461Y68261D01*
X66505Y68204D01*
X66553Y68151D01*
X66200Y67798D01*
X66147Y67847D01*
X66090Y67890D01*
X66029Y67929D01*
X65965Y67962D01*
X65898Y67990D01*
X65827Y68013D01*
X65753Y68030D01*
X65675Y68042D01*
X65593Y68050D01*
X65508Y68051D01*
X66300Y68843D01*
X66302Y68758D01*
D02*
G37*
G36*
X63301Y68218D02*
X63248Y68156D01*
X63202Y68092D01*
X63162Y68027D01*
X63127Y67961D01*
X63100Y67893D01*
X63078Y67825D01*
X63062Y67755D01*
X63053Y67684D01*
X63050Y67611D01*
X62550D01*
X62547Y67684D01*
X62538Y67755D01*
X62522Y67825D01*
X62500Y67893D01*
X62472Y67961D01*
X62438Y68027D01*
X62398Y68092D01*
X62352Y68156D01*
X62299Y68218D01*
X62240Y68280D01*
X63360D01*
X63301Y68218D01*
D02*
G37*
G36*
X66301Y46467D02*
X66248Y46405D01*
X66202Y46341D01*
X66162Y46276D01*
X66128Y46210D01*
X66100Y46142D01*
X66078Y46073D01*
X66062Y46003D01*
X66053Y45932D01*
X66050Y45860D01*
X65550D01*
X65547Y45932D01*
X65538Y46003D01*
X65522Y46073D01*
X65500Y46142D01*
X65473Y46210D01*
X65438Y46276D01*
X65398Y46341D01*
X65352Y46405D01*
X65299Y46467D01*
X65240Y46529D01*
X66360D01*
X66301Y46467D01*
D02*
G37*
G36*
X71001Y44367D02*
X70948Y44305D01*
X70902Y44241D01*
X70862Y44176D01*
X70828Y44110D01*
X70800Y44042D01*
X70778Y43973D01*
X70762Y43903D01*
X70753Y43832D01*
X70750Y43760D01*
X70250D01*
X70247Y43832D01*
X70238Y43903D01*
X70222Y43973D01*
X70200Y44042D01*
X70173Y44110D01*
X70138Y44176D01*
X70098Y44241D01*
X70052Y44305D01*
X69999Y44367D01*
X69940Y44429D01*
X71060D01*
X71001Y44367D01*
D02*
G37*
G36*
X63053Y40968D02*
X63062Y40896D01*
X63078Y40827D01*
X63100Y40758D01*
X63127Y40690D01*
X63162Y40624D01*
X63202Y40559D01*
X63248Y40495D01*
X63301Y40433D01*
X63360Y40371D01*
X62240D01*
X62299Y40433D01*
X62352Y40495D01*
X62398Y40559D01*
X62438Y40624D01*
X62472Y40690D01*
X62500Y40758D01*
X62522Y40827D01*
X62538Y40896D01*
X62547Y40968D01*
X62550Y41040D01*
X63050D01*
X63053Y40968D01*
D02*
G37*
G36*
X68253Y38168D02*
X68262Y38096D01*
X68278Y38027D01*
X68300Y37958D01*
X68327Y37890D01*
X68362Y37824D01*
X68402Y37759D01*
X68448Y37695D01*
X68501Y37633D01*
X68560Y37571D01*
X67440D01*
X67499Y37633D01*
X67552Y37695D01*
X67598Y37759D01*
X67638Y37824D01*
X67672Y37890D01*
X67700Y37958D01*
X67722Y38027D01*
X67738Y38096D01*
X67747Y38168D01*
X67750Y38240D01*
X68250D01*
X68253Y38168D01*
D02*
G37*
G36*
X70753Y35668D02*
X70762Y35596D01*
X70778Y35527D01*
X70800Y35458D01*
X70828Y35390D01*
X70862Y35324D01*
X70902Y35259D01*
X70948Y35195D01*
X71001Y35133D01*
X71060Y35071D01*
X69940D01*
X69999Y35133D01*
X70052Y35195D01*
X70098Y35259D01*
X70138Y35324D01*
X70173Y35390D01*
X70200Y35458D01*
X70222Y35527D01*
X70238Y35596D01*
X70247Y35668D01*
X70250Y35740D01*
X70750D01*
X70753Y35668D01*
D02*
G37*
G36*
X66727Y35934D02*
X66785Y35890D01*
X66845Y35853D01*
X66909Y35822D01*
X66976Y35798D01*
X67046Y35779D01*
X67119Y35767D01*
X67195Y35761D01*
X67274Y35762D01*
X67356Y35768D01*
X66652Y34897D01*
X66642Y34984D01*
X66627Y35067D01*
X66608Y35145D01*
X66585Y35221D01*
X66558Y35292D01*
X66526Y35359D01*
X66491Y35423D01*
X66451Y35482D01*
X66407Y35538D01*
X66359Y35590D01*
X66673Y35984D01*
X66727Y35934D01*
D02*
G37*
G36*
X29302Y61907D02*
X29309Y61825D01*
X29321Y61747D01*
X29338Y61673D01*
X29361Y61602D01*
X29389Y61535D01*
X29422Y61471D01*
X29461Y61410D01*
X29505Y61353D01*
X29553Y61300D01*
X29200Y60947D01*
X29147Y60995D01*
X29090Y61039D01*
X29029Y61078D01*
X28965Y61111D01*
X28898Y61139D01*
X28827Y61162D01*
X28753Y61179D01*
X28675Y61191D01*
X28593Y61198D01*
X28508Y61200D01*
X29300Y61992D01*
X29302Y61907D01*
D02*
G37*
G36*
X43429Y54440D02*
X43367Y54499D01*
X43305Y54552D01*
X43241Y54598D01*
X43176Y54638D01*
X43110Y54672D01*
X43042Y54700D01*
X42973Y54722D01*
X42904Y54738D01*
X42832Y54747D01*
X42760Y54750D01*
Y55250D01*
X42832Y55253D01*
X42904Y55262D01*
X42973Y55278D01*
X43042Y55300D01*
X43110Y55327D01*
X43176Y55362D01*
X43241Y55402D01*
X43305Y55448D01*
X43367Y55501D01*
X43429Y55560D01*
Y54440D01*
D02*
G37*
G36*
X53001Y70367D02*
X52948Y70305D01*
X52902Y70241D01*
X52862Y70176D01*
X52828Y70110D01*
X52800Y70042D01*
X52778Y69973D01*
X52762Y69903D01*
X52753Y69832D01*
X52750Y69760D01*
X52250D01*
X52247Y69832D01*
X52238Y69903D01*
X52222Y69973D01*
X52200Y70042D01*
X52172Y70110D01*
X52138Y70176D01*
X52098Y70241D01*
X52052Y70305D01*
X51999Y70367D01*
X51940Y70429D01*
X53060D01*
X53001Y70367D01*
D02*
G37*
G36*
X52753Y41168D02*
X52762Y41096D01*
X52778Y41027D01*
X52800Y40958D01*
X52828Y40890D01*
X52862Y40824D01*
X52902Y40759D01*
X52948Y40695D01*
X53001Y40633D01*
X53060Y40571D01*
X51940D01*
X51999Y40633D01*
X52052Y40695D01*
X52098Y40759D01*
X52138Y40824D01*
X52172Y40890D01*
X52200Y40958D01*
X52222Y41027D01*
X52238Y41096D01*
X52247Y41168D01*
X52250Y41240D01*
X52750D01*
X52753Y41168D01*
D02*
G37*
G36*
X49261Y79074D02*
X49208Y79011D01*
X49162Y78947D01*
X49121Y78882D01*
X49087Y78816D01*
X49059Y78749D01*
X49038Y78680D01*
X49022Y78610D01*
X49013Y78539D01*
X49010Y78466D01*
X48510D01*
X48507Y78539D01*
X48497Y78610D01*
X48482Y78680D01*
X48460Y78749D01*
X48432Y78816D01*
X48398Y78882D01*
X48358Y78947D01*
X48311Y79011D01*
X48259Y79074D01*
X48200Y79135D01*
X49320D01*
X49261Y79074D01*
D02*
G37*
G36*
X32501Y53367D02*
X32448Y53305D01*
X32402Y53241D01*
X32362Y53176D01*
X32327Y53110D01*
X32300Y53042D01*
X32278Y52973D01*
X32262Y52903D01*
X32253Y52832D01*
X32250Y52760D01*
X31750D01*
X31747Y52832D01*
X31738Y52903D01*
X31722Y52973D01*
X31700Y53042D01*
X31672Y53110D01*
X31638Y53176D01*
X31598Y53241D01*
X31552Y53305D01*
X31499Y53367D01*
X31440Y53429D01*
X32560D01*
X32501Y53367D01*
D02*
G37*
G36*
X37802Y36407D02*
X37809Y36325D01*
X37821Y36247D01*
X37839Y36173D01*
X37861Y36102D01*
X37889Y36035D01*
X37922Y35971D01*
X37961Y35910D01*
X38005Y35853D01*
X38054Y35800D01*
X37700Y35447D01*
X37647Y35495D01*
X37590Y35539D01*
X37529Y35578D01*
X37466Y35611D01*
X37398Y35639D01*
X37327Y35662D01*
X37253Y35679D01*
X37175Y35691D01*
X37093Y35698D01*
X37008Y35700D01*
X37800Y36492D01*
X37802Y36407D01*
D02*
G37*
G36*
X40353Y33505D02*
X40410Y33461D01*
X40471Y33422D01*
X40534Y33389D01*
X40602Y33361D01*
X40673Y33338D01*
X40747Y33321D01*
X40825Y33309D01*
X40907Y33302D01*
X40992Y33300D01*
X40200Y32508D01*
X40198Y32593D01*
X40191Y32675D01*
X40179Y32753D01*
X40161Y32827D01*
X40139Y32898D01*
X40111Y32965D01*
X40078Y33029D01*
X40039Y33090D01*
X39995Y33147D01*
X39946Y33200D01*
X40300Y33553D01*
X40353Y33505D01*
D02*
G37*
G36*
X56429Y30940D02*
X56367Y30999D01*
X56305Y31052D01*
X56241Y31098D01*
X56176Y31138D01*
X56110Y31172D01*
X56042Y31200D01*
X55973Y31222D01*
X55904Y31238D01*
X55832Y31247D01*
X55760Y31250D01*
Y31750D01*
X55832Y31753D01*
X55904Y31762D01*
X55973Y31778D01*
X56042Y31800D01*
X56110Y31828D01*
X56176Y31862D01*
X56241Y31902D01*
X56305Y31948D01*
X56367Y32001D01*
X56429Y32060D01*
Y30940D01*
D02*
G37*
G36*
X67929Y29440D02*
X67867Y29499D01*
X67805Y29552D01*
X67741Y29598D01*
X67676Y29638D01*
X67610Y29673D01*
X67542Y29700D01*
X67473Y29722D01*
X67404Y29738D01*
X67332Y29747D01*
X67260Y29750D01*
Y30250D01*
X67332Y30253D01*
X67404Y30262D01*
X67473Y30278D01*
X67542Y30300D01*
X67610Y30327D01*
X67676Y30362D01*
X67741Y30402D01*
X67805Y30448D01*
X67867Y30501D01*
X67929Y30560D01*
Y29440D01*
D02*
G37*
D10*
X61500Y89500D02*
X71000D01*
D56*
X32000Y37000D02*
Y54000D01*
X49500Y86500D02*
X67500D01*
X71500Y52000D02*
X81000Y42500D01*
X90500D01*
X71500Y52000D02*
Y73000D01*
X66000Y78500D02*
X71500Y73000D01*
X66000Y78500D02*
Y82000D01*
X62062Y84000D02*
X71500D01*
X57351Y79290D02*
X62062Y84000D01*
X71500D02*
X82000Y73500D01*
X57219Y79290D02*
X57351D01*
X44226Y81226D02*
X49500Y86500D01*
X59000Y71500D02*
X68000D01*
X65500Y68851D02*
X68000Y66351D01*
X62800Y39800D02*
Y68851D01*
X68000Y37000D02*
Y66351D01*
X82000Y73500D02*
Y73500D01*
X39050Y29950D02*
X57642D01*
X32000Y37000D02*
X39050Y29950D01*
X57642D02*
X57692Y30000D01*
X68500D01*
X28500Y62000D02*
X35500Y55000D01*
X44000D01*
X44226Y59886D02*
Y81226D01*
X65800Y36503D02*
Y47100D01*
Y36503D02*
X67329Y34974D01*
X44112Y60000D02*
X44226Y59886D01*
X36500Y60000D02*
X44112D01*
X41500Y62500D02*
Y91500D01*
X43622Y93622D02*
Y100394D01*
X41500Y91500D02*
X43622Y93622D01*
X33622Y62878D02*
X36500Y60000D01*
X33622Y62878D02*
Y100394D01*
X52500Y40000D02*
Y71000D01*
X48760Y35740D02*
Y79706D01*
X53000Y31500D02*
X57000D01*
X48760Y35740D02*
X53000Y31500D01*
X37000Y36500D02*
X41000Y32500D01*
X70500Y34500D02*
Y45000D01*
D57*
X23327Y54528D02*
D03*
Y20472D02*
D03*
D58*
X7579Y54528D02*
D03*
Y20472D02*
D03*
D59*
X21358Y26122D02*
D03*
Y48878D02*
D03*
D60*
X33622Y100394D02*
D03*
X43622D02*
D03*
X53622D02*
D03*
X63622D02*
D03*
X91000Y22500D02*
D03*
Y32500D02*
D03*
Y42500D02*
D03*
Y52500D02*
D03*
D61*
X37000Y36500D02*
D03*
X30000Y91000D02*
D03*
Y87500D02*
D03*
Y84000D02*
D03*
X66500Y21000D02*
D03*
Y17500D02*
D03*
Y14000D02*
D03*
X42000Y24500D02*
D03*
X67500Y86500D02*
D03*
X73000Y91500D02*
D03*
X71500Y93500D02*
D03*
Y104500D02*
D03*
Y102000D02*
D03*
Y96000D02*
D03*
X76500Y91500D02*
D03*
X80000D02*
D03*
X83500D02*
D03*
X87000D02*
D03*
X90000D02*
D03*
X93500D02*
D03*
X97000D02*
D03*
X10828Y73929D02*
D03*
X8354Y76404D02*
D03*
X5879Y78879D02*
D03*
X16500Y74000D02*
D03*
Y77500D02*
D03*
Y81000D02*
D03*
X19500Y74000D02*
D03*
Y77500D02*
D03*
Y81000D02*
D03*
X11500Y33500D02*
D03*
Y37000D02*
D03*
Y40500D02*
D03*
X35500Y44000D02*
D03*
Y47500D02*
D03*
Y51000D02*
D03*
X59500Y46000D02*
D03*
Y49500D02*
D03*
Y53000D02*
D03*
X56000Y46000D02*
D03*
Y49500D02*
D03*
Y53000D02*
D03*
X66000Y82000D02*
D03*
X65500Y68851D02*
D03*
X68000Y71500D02*
D03*
X62800Y39800D02*
D03*
Y68851D02*
D03*
X59000Y71500D02*
D03*
X82000Y73500D02*
D03*
X61500Y89500D02*
D03*
X71000D02*
D03*
X57219Y79290D02*
D03*
X32000Y54000D02*
D03*
X28500Y62000D02*
D03*
X68500Y30000D02*
D03*
X67449Y34974D02*
D03*
X68000Y37000D02*
D03*
X44226Y59886D02*
D03*
X44000Y55000D02*
D03*
X52500Y40000D02*
D03*
X41500Y62500D02*
D03*
X70500Y45000D02*
D03*
X65800Y47100D02*
D03*
X52500Y71000D02*
D03*
X57000Y31500D02*
D03*
X48760Y79706D02*
D03*
X41000Y32500D02*
D03*
X70500Y34500D02*
D03*
D62*
X88976Y7874D02*
D03*
X8268Y98425D02*
D03*
Y7874D02*
D03*
M02*
