G04*
G04 #@! TF.GenerationSoftware,Altium Limited,Altium Designer,21.0.8 (223)*
G04*
G04 Layer_Color=255*
%FSLAX25Y25*%
%MOIN*%
G70*
G04*
G04 #@! TF.SameCoordinates,482E8025-2E78-4A05-A4F1-2824EEF061A7*
G04*
G04*
G04 #@! TF.FilePolarity,Positive*
G04*
G01*
G75*
G04:AMPARAMS|DCode=18|XSize=59.06mil|YSize=11.81mil|CornerRadius=2.95mil|HoleSize=0mil|Usage=FLASHONLY|Rotation=0.000|XOffset=0mil|YOffset=0mil|HoleType=Round|Shape=RoundedRectangle|*
%AMROUNDEDRECTD18*
21,1,0.05906,0.00591,0,0,0.0*
21,1,0.05315,0.01181,0,0,0.0*
1,1,0.00591,0.02657,-0.00295*
1,1,0.00591,-0.02657,-0.00295*
1,1,0.00591,-0.02657,0.00295*
1,1,0.00591,0.02657,0.00295*
%
%ADD18ROUNDEDRECTD18*%
G04:AMPARAMS|DCode=19|XSize=31.5mil|YSize=70.87mil|CornerRadius=7.87mil|HoleSize=0mil|Usage=FLASHONLY|Rotation=0.000|XOffset=0mil|YOffset=0mil|HoleType=Round|Shape=RoundedRectangle|*
%AMROUNDEDRECTD19*
21,1,0.03150,0.05512,0,0,0.0*
21,1,0.01575,0.07087,0,0,0.0*
1,1,0.01575,0.00787,-0.02756*
1,1,0.01575,-0.00787,-0.02756*
1,1,0.01575,-0.00787,0.02756*
1,1,0.01575,0.00787,0.02756*
%
%ADD19ROUNDEDRECTD19*%
G04:AMPARAMS|DCode=20|XSize=23.62mil|YSize=9.84mil|CornerRadius=2.46mil|HoleSize=0mil|Usage=FLASHONLY|Rotation=0.000|XOffset=0mil|YOffset=0mil|HoleType=Round|Shape=RoundedRectangle|*
%AMROUNDEDRECTD20*
21,1,0.02362,0.00492,0,0,0.0*
21,1,0.01870,0.00984,0,0,0.0*
1,1,0.00492,0.00935,-0.00246*
1,1,0.00492,-0.00935,-0.00246*
1,1,0.00492,-0.00935,0.00246*
1,1,0.00492,0.00935,0.00246*
%
%ADD20ROUNDEDRECTD20*%
G04:AMPARAMS|DCode=21|XSize=43.31mil|YSize=70.87mil|CornerRadius=10.83mil|HoleSize=0mil|Usage=FLASHONLY|Rotation=0.000|XOffset=0mil|YOffset=0mil|HoleType=Round|Shape=RoundedRectangle|*
%AMROUNDEDRECTD21*
21,1,0.04331,0.04921,0,0,0.0*
21,1,0.02165,0.07087,0,0,0.0*
1,1,0.02165,0.01083,-0.02461*
1,1,0.02165,-0.01083,-0.02461*
1,1,0.02165,-0.01083,0.02461*
1,1,0.02165,0.01083,0.02461*
%
%ADD21ROUNDEDRECTD21*%
G04:AMPARAMS|DCode=22|XSize=26.57mil|YSize=9.84mil|CornerRadius=2.46mil|HoleSize=0mil|Usage=FLASHONLY|Rotation=0.000|XOffset=0mil|YOffset=0mil|HoleType=Round|Shape=RoundedRectangle|*
%AMROUNDEDRECTD22*
21,1,0.02657,0.00492,0,0,0.0*
21,1,0.02165,0.00984,0,0,0.0*
1,1,0.00492,0.01083,-0.00246*
1,1,0.00492,-0.01083,-0.00246*
1,1,0.00492,-0.01083,0.00246*
1,1,0.00492,0.01083,0.00246*
%
%ADD22ROUNDEDRECTD22*%
G04:AMPARAMS|DCode=23|XSize=26.57mil|YSize=9.84mil|CornerRadius=2.46mil|HoleSize=0mil|Usage=FLASHONLY|Rotation=270.000|XOffset=0mil|YOffset=0mil|HoleType=Round|Shape=RoundedRectangle|*
%AMROUNDEDRECTD23*
21,1,0.02657,0.00492,0,0,270.0*
21,1,0.02165,0.00984,0,0,270.0*
1,1,0.00492,-0.00246,-0.01083*
1,1,0.00492,-0.00246,0.01083*
1,1,0.00492,0.00246,0.01083*
1,1,0.00492,0.00246,-0.01083*
%
%ADD23ROUNDEDRECTD23*%
G04:AMPARAMS|DCode=24|XSize=160mil|YSize=160mil|CornerRadius=16mil|HoleSize=0mil|Usage=FLASHONLY|Rotation=270.000|XOffset=0mil|YOffset=0mil|HoleType=Round|Shape=RoundedRectangle|*
%AMROUNDEDRECTD24*
21,1,0.16000,0.12800,0,0,270.0*
21,1,0.12800,0.16000,0,0,270.0*
1,1,0.03200,-0.06400,-0.06400*
1,1,0.03200,-0.06400,0.06400*
1,1,0.03200,0.06400,0.06400*
1,1,0.03200,0.06400,-0.06400*
%
%ADD24ROUNDEDRECTD24*%
G04:AMPARAMS|DCode=25|XSize=12mil|YSize=38mil|CornerRadius=3mil|HoleSize=0mil|Usage=FLASHONLY|Rotation=270.000|XOffset=0mil|YOffset=0mil|HoleType=Round|Shape=RoundedRectangle|*
%AMROUNDEDRECTD25*
21,1,0.01200,0.03200,0,0,270.0*
21,1,0.00600,0.03800,0,0,270.0*
1,1,0.00600,-0.01600,-0.00300*
1,1,0.00600,-0.01600,0.00300*
1,1,0.00600,0.01600,0.00300*
1,1,0.00600,0.01600,-0.00300*
%
%ADD25ROUNDEDRECTD25*%
G04:AMPARAMS|DCode=26|XSize=12mil|YSize=38mil|CornerRadius=3mil|HoleSize=0mil|Usage=FLASHONLY|Rotation=180.000|XOffset=0mil|YOffset=0mil|HoleType=Round|Shape=RoundedRectangle|*
%AMROUNDEDRECTD26*
21,1,0.01200,0.03200,0,0,180.0*
21,1,0.00600,0.03800,0,0,180.0*
1,1,0.00600,-0.00300,0.01600*
1,1,0.00600,0.00300,0.01600*
1,1,0.00600,0.00300,-0.01600*
1,1,0.00600,-0.00300,-0.01600*
%
%ADD26ROUNDEDRECTD26*%
%ADD27R,0.10630X0.11024*%
G04:AMPARAMS|DCode=28|XSize=20mil|YSize=20mil|CornerRadius=5mil|HoleSize=0mil|Usage=FLASHONLY|Rotation=270.000|XOffset=0mil|YOffset=0mil|HoleType=Round|Shape=RoundedRectangle|*
%AMROUNDEDRECTD28*
21,1,0.02000,0.01000,0,0,270.0*
21,1,0.01000,0.02000,0,0,270.0*
1,1,0.01000,-0.00500,-0.00500*
1,1,0.01000,-0.00500,0.00500*
1,1,0.01000,0.00500,0.00500*
1,1,0.01000,0.00500,-0.00500*
%
%ADD28ROUNDEDRECTD28*%
G04:AMPARAMS|DCode=29|XSize=37.4mil|YSize=39.37mil|CornerRadius=9.35mil|HoleSize=0mil|Usage=FLASHONLY|Rotation=180.000|XOffset=0mil|YOffset=0mil|HoleType=Round|Shape=RoundedRectangle|*
%AMROUNDEDRECTD29*
21,1,0.03740,0.02067,0,0,180.0*
21,1,0.01870,0.03937,0,0,180.0*
1,1,0.01870,-0.00935,0.01034*
1,1,0.01870,0.00935,0.01034*
1,1,0.01870,0.00935,-0.01034*
1,1,0.01870,-0.00935,-0.01034*
%
%ADD29ROUNDEDRECTD29*%
G04:AMPARAMS|DCode=30|XSize=23.62mil|YSize=35mil|CornerRadius=5.91mil|HoleSize=0mil|Usage=FLASHONLY|Rotation=0.000|XOffset=0mil|YOffset=0mil|HoleType=Round|Shape=RoundedRectangle|*
%AMROUNDEDRECTD30*
21,1,0.02362,0.02319,0,0,0.0*
21,1,0.01181,0.03500,0,0,0.0*
1,1,0.01181,0.00591,-0.01159*
1,1,0.01181,-0.00591,-0.01159*
1,1,0.01181,-0.00591,0.01159*
1,1,0.01181,0.00591,0.01159*
%
%ADD30ROUNDEDRECTD30*%
G04:AMPARAMS|DCode=31|XSize=20mil|YSize=20mil|CornerRadius=5mil|HoleSize=0mil|Usage=FLASHONLY|Rotation=180.000|XOffset=0mil|YOffset=0mil|HoleType=Round|Shape=RoundedRectangle|*
%AMROUNDEDRECTD31*
21,1,0.02000,0.01000,0,0,180.0*
21,1,0.01000,0.02000,0,0,180.0*
1,1,0.01000,-0.00500,0.00500*
1,1,0.01000,0.00500,0.00500*
1,1,0.01000,0.00500,-0.00500*
1,1,0.01000,-0.00500,-0.00500*
%
%ADD31ROUNDEDRECTD31*%
G04:AMPARAMS|DCode=32|XSize=44mil|YSize=40mil|CornerRadius=10mil|HoleSize=0mil|Usage=FLASHONLY|Rotation=0.000|XOffset=0mil|YOffset=0mil|HoleType=Round|Shape=RoundedRectangle|*
%AMROUNDEDRECTD32*
21,1,0.04400,0.02000,0,0,0.0*
21,1,0.02400,0.04000,0,0,0.0*
1,1,0.02000,0.01200,-0.01000*
1,1,0.02000,-0.01200,-0.01000*
1,1,0.02000,-0.01200,0.01000*
1,1,0.02000,0.01200,0.01000*
%
%ADD32ROUNDEDRECTD32*%
G04:AMPARAMS|DCode=33|XSize=35.43mil|YSize=62.99mil|CornerRadius=8.86mil|HoleSize=0mil|Usage=FLASHONLY|Rotation=270.000|XOffset=0mil|YOffset=0mil|HoleType=Round|Shape=RoundedRectangle|*
%AMROUNDEDRECTD33*
21,1,0.03543,0.04528,0,0,270.0*
21,1,0.01772,0.06299,0,0,270.0*
1,1,0.01772,-0.02264,-0.00886*
1,1,0.01772,-0.02264,0.00886*
1,1,0.01772,0.02264,0.00886*
1,1,0.01772,0.02264,-0.00886*
%
%ADD33ROUNDEDRECTD33*%
%ADD57O,0.08268X0.03937*%
%ADD58O,0.06299X0.03937*%
%ADD59C,0.02559*%
%ADD60C,0.07087*%
D18*
X27421Y50689D02*
D03*
Y49508D02*
D03*
Y47539D02*
D03*
Y46358D02*
D03*
Y44390D02*
D03*
Y42421D02*
D03*
Y40453D02*
D03*
Y38484D02*
D03*
Y36516D02*
D03*
Y34547D02*
D03*
Y32579D02*
D03*
Y30610D02*
D03*
Y28642D02*
D03*
Y27461D02*
D03*
Y25492D02*
D03*
Y24311D02*
D03*
D19*
X96591Y101000D02*
D03*
X76500D02*
D03*
D20*
X78421Y75984D02*
D03*
X78421Y78016D02*
D03*
Y79984D02*
D03*
X78421Y81953D02*
D03*
X68579Y76047D02*
D03*
X68579Y78016D02*
D03*
X68579Y81953D02*
D03*
X68579Y79984D02*
D03*
D21*
X73500Y79000D02*
D03*
D22*
X68238Y60827D02*
D03*
Y58858D02*
D03*
X68238Y56890D02*
D03*
Y54921D02*
D03*
Y52953D02*
D03*
X68238Y50984D02*
D03*
Y49016D02*
D03*
Y47047D02*
D03*
Y45079D02*
D03*
Y43110D02*
D03*
X68238Y41142D02*
D03*
Y39173D02*
D03*
X41762D02*
D03*
Y41142D02*
D03*
Y43110D02*
D03*
Y45079D02*
D03*
Y47047D02*
D03*
X41762Y49016D02*
D03*
Y50984D02*
D03*
X41762Y52953D02*
D03*
Y54921D02*
D03*
Y56890D02*
D03*
Y58858D02*
D03*
Y60827D02*
D03*
D23*
X65827Y36762D02*
D03*
X63858D02*
D03*
X61890D02*
D03*
X59921D02*
D03*
X57953D02*
D03*
X55984Y36762D02*
D03*
X54016D02*
D03*
X52047Y36762D02*
D03*
X50079D02*
D03*
X48110D02*
D03*
X46142D02*
D03*
X44173D02*
D03*
Y63238D02*
D03*
X46142D02*
D03*
X48110Y63238D02*
D03*
X50079D02*
D03*
X52047D02*
D03*
X54016D02*
D03*
X55984D02*
D03*
X57953Y63238D02*
D03*
X59921D02*
D03*
X61890D02*
D03*
X63858Y63238D02*
D03*
X65827D02*
D03*
D24*
X55000Y50000D02*
D03*
D25*
X57350Y23905D02*
D03*
Y21937D02*
D03*
X57350Y19969D02*
D03*
Y18000D02*
D03*
Y16032D02*
D03*
X57350Y14063D02*
D03*
Y12094D02*
D03*
X75650Y12094D02*
D03*
Y14063D02*
D03*
Y16032D02*
D03*
Y18000D02*
D03*
Y19969D02*
D03*
Y21937D02*
D03*
Y23905D02*
D03*
D26*
X60594Y8850D02*
D03*
X62563D02*
D03*
X64531D02*
D03*
X66500D02*
D03*
X68468D02*
D03*
X70437D02*
D03*
X72405D02*
D03*
X72405Y27150D02*
D03*
X70437D02*
D03*
X68468Y27150D02*
D03*
X66500D02*
D03*
X64531Y27150D02*
D03*
X62563Y27150D02*
D03*
X60594D02*
D03*
D27*
X66500Y18000D02*
D03*
D28*
X47500Y87500D02*
D03*
X43500D02*
D03*
X43500Y71500D02*
D03*
X47500D02*
D03*
X63500Y4500D02*
D03*
X59500D02*
D03*
X74500Y63500D02*
D03*
X78500D02*
D03*
X74500Y59000D02*
D03*
X78500D02*
D03*
X74500Y54000D02*
D03*
X78500D02*
D03*
X64500Y32500D02*
D03*
X68500D02*
D03*
X45500Y67500D02*
D03*
X41500D02*
D03*
X54000D02*
D03*
X50000D02*
D03*
X83000Y86500D02*
D03*
X87000D02*
D03*
X83000Y82000D02*
D03*
X87000D02*
D03*
X75500Y86500D02*
D03*
X71500D02*
D03*
X75000Y71500D02*
D03*
X71000Y71500D02*
D03*
D29*
X52500Y74571D02*
D03*
X48760Y83429D02*
D03*
X56240Y83429D02*
D03*
X38500Y74571D02*
D03*
X34760Y83429D02*
D03*
X42240Y83429D02*
D03*
D30*
X38260Y27406D02*
D03*
X42000D02*
D03*
X45740D02*
D03*
X45740Y16005D02*
D03*
X38260Y16005D02*
D03*
D31*
X46000Y11000D02*
D03*
Y7000D02*
D03*
X42000Y11000D02*
D03*
Y7000D02*
D03*
X38000Y11000D02*
D03*
Y7000D02*
D03*
X63500Y80000D02*
D03*
Y84000D02*
D03*
D32*
X7000Y83500D02*
D03*
Y70500D02*
D03*
X25000D02*
D03*
Y83500D02*
D03*
D33*
X94000Y84000D02*
D03*
Y67858D02*
D03*
D57*
X23327Y54528D02*
D03*
Y20472D02*
D03*
D58*
X7579Y54528D02*
D03*
Y20472D02*
D03*
D59*
X21358Y26122D02*
D03*
Y48878D02*
D03*
D60*
X33622Y100394D02*
D03*
X43622D02*
D03*
X53622D02*
D03*
X63622D02*
D03*
X91000Y22500D02*
D03*
Y32500D02*
D03*
Y42500D02*
D03*
Y52500D02*
D03*
M02*
